<?xml version="1.0" encoding="UTF-8"?>
<svg version="1.1" xmlns="http://www.w3.org/2000/svg" width="1033" height="1033">
<path d="M0 0 C2.26871143 -0.02137868 4.53734511 -0.05523434 6.80566406 -0.10253906 C31.25342136 -0.60597009 55.37581221 2.88493758 74.28027344 19.76928711 C84.20206652 29.51364561 90.05464863 40.66157013 91.94580078 54.4050293 C91.94580078 55.7250293 91.94580078 57.0450293 91.94580078 58.4050293 C92.60580078 58.4050293 93.26580078 58.4050293 93.94580078 58.4050293 C93.94580078 66.3250293 93.94580078 74.2450293 93.94580078 82.4050293 C93.28580078 82.4050293 92.62580078 82.4050293 91.94580078 82.4050293 C91.92074463 83.16122559 91.89568848 83.91742188 91.86987305 84.6965332 C91.75343192 88.14118389 91.63092416 91.58559337 91.50830078 95.0300293 C91.44932617 96.81473633 91.44932617 96.81473633 91.38916016 98.63549805 C91.32631836 100.36606445 91.32631836 100.36606445 91.26220703 102.1315918 C91.22554932 103.18942871 91.1888916 104.24726563 91.15112305 105.3371582 C90.94502826 108.41657216 90.46675196 111.365168 89.94580078 114.4050293 C89.82210422 115.98630494 89.72704165 117.57015441 89.66455078 119.1550293 C89.62716797 120.0109668 89.58978516 120.8669043 89.55126953 121.7487793 C89.4990625 123.06362305 89.4990625 123.06362305 89.44580078 124.4050293 C89.08088091 133.59560384 89.08088091 133.59560384 88.44580078 137.40112305 C87.57921569 142.60740378 87.54749952 147.88174478 87.34033203 153.14916992 C87.15707709 157.36087402 86.78430126 161.27148395 85.94580078 165.4050293 C85.70398762 168.5265834 85.57653494 171.65209357 85.44580078 174.7800293 C85.20884623 180.39672987 84.74238822 185.83514055 83.94580078 191.4050293 C83.66020813 195.42095563 83.51015053 199.44339362 83.34033203 203.46557617 C83.18488894 206.81832278 83.00453736 210.05673973 82.44580078 213.36987305 C81.73256002 217.69946738 81.61971647 222.02493041 81.44580078 226.4050293 C81.23005329 231.83866991 80.84040681 237.03739314 79.94580078 242.4050293 C79.70999256 245.73545653 79.57825757 249.06908046 79.44580078 252.4050293 C79.23014376 257.83639129 78.85999726 263.04126713 77.94580078 268.4050293 C77.71394848 271.38118269 77.57943364 274.3605367 77.44580078 277.3425293 C77.25606399 281.55538885 77.04793848 285.69644899 76.44580078 289.8737793 C75.71219654 295.05485924 75.56089212 300.24156962 75.34033203 305.46557617 C75.18488894 308.81832278 75.00453736 312.05673973 74.44580078 315.36987305 C73.73256002 319.69946738 73.61971647 324.02493041 73.44580078 328.4050293 C73.23005329 333.83866991 72.84040681 339.03739314 71.94580078 344.4050293 C71.70999256 347.73545653 71.57825757 351.06908046 71.44580078 354.4050293 C71.08088091 363.59560384 71.08088091 363.59560384 70.44580078 367.40112305 C69.57921569 372.60740378 69.54749952 377.88174478 69.34033203 383.14916992 C69.15707709 387.36087402 68.78430126 391.27148395 67.94580078 395.4050293 C67.70398762 398.5265834 67.57653494 401.65209357 67.44580078 404.7800293 C67.20884623 410.39672987 66.74238822 415.83514055 65.94580078 421.4050293 C65.66020813 425.42095563 65.51015053 429.44339362 65.34033203 433.46557617 C65.18488894 436.81832278 65.00453736 440.05673973 64.44580078 443.36987305 C63.73256002 447.69946738 63.61971647 452.02493041 63.44580078 456.4050293 C63.23005329 461.83866991 62.84040681 467.03739314 61.94580078 472.4050293 C61.70999256 475.73545653 61.57825757 479.06908046 61.44580078 482.4050293 C61.08088091 491.59560384 61.08088091 491.59560384 60.44580078 495.40112305 C59.57921569 500.60740378 59.54749952 505.88174478 59.34033203 511.14916992 C59.15707709 515.36087402 58.78430126 519.27148395 57.94580078 523.4050293 C57.70398762 526.5265834 57.57653494 529.65209357 57.44580078 532.7800293 C57.20884623 538.39672987 56.74238822 543.83514055 55.94580078 549.4050293 C55.66020813 553.42095563 55.51015053 557.44339362 55.34033203 561.46557617 C55.18488894 564.81832278 55.00453736 568.05673973 54.44580078 571.36987305 C53.73256002 575.69946738 53.61971647 580.02493041 53.44580078 584.4050293 C53.08088091 593.59560384 53.08088091 593.59560384 52.44580078 597.40112305 C51.57921569 602.60740378 51.54749952 607.88174478 51.34033203 613.14916992 C51.15707709 617.36087402 50.78430126 621.27148395 49.94580078 625.4050293 C49.70398762 628.5265834 49.57653494 631.65209357 49.44580078 634.7800293 C49.20884623 640.39672987 48.74238822 645.83514055 47.94580078 651.4050293 C47.66020813 655.42095563 47.51015053 659.44339362 47.34033203 663.46557617 C47.18488894 666.81832278 47.00453736 670.05673973 46.44580078 673.36987305 C45.73256002 677.69946738 45.61971647 682.02493041 45.44580078 686.4050293 C45.23005329 691.83866991 44.84040681 697.03739314 43.94580078 702.4050293 C43.70999256 705.73545653 43.57825757 709.06908046 43.44580078 712.4050293 C43.23012714 717.83681 42.85648151 723.04055064 41.94580078 728.4050293 C41.65340406 732.24769985 41.50825365 736.09823953 41.34033203 739.94799805 C41.28425781 741.1062207 41.28425781 741.1062207 41.22705078 742.2878418 C41.18161133 743.33029053 41.18161133 743.33029053 41.13525391 744.39379883 C40.9386827 746.48059473 40.46872183 748.37858027 39.94580078 750.4050293 C39.84228911 752.29986802 39.76242792 754.19603535 39.69580078 756.0925293 C37.31020647 791.04510047 26.8861011 831.65411164 0.41064453 856.3581543 C-4.84932965 860.72618357 -10.32339476 864.67925826 -16.05419922 868.4050293 C-16.92947266 868.98381836 -17.80474609 869.56260742 -18.70654297 870.15893555 C-29.67629634 876.47685365 -45.46121003 880.4050293 -58.05419922 880.4050293 C-58.05419922 881.0650293 -58.05419922 881.7250293 -58.05419922 882.4050293 C-63.66419922 882.4050293 -69.27419922 882.4050293 -75.05419922 882.4050293 C-75.05419922 881.7450293 -75.05419922 881.0850293 -75.05419922 880.4050293 C-75.66408691 880.37417236 -76.27397461 880.34331543 -76.90234375 880.31152344 C-85.45291681 879.72050255 -93.63088411 877.88137416 -101.92919922 875.8425293 C-102.65353149 875.6661795 -103.37786377 875.48982971 -104.12414551 875.30813599 C-139.57034393 866.61547077 -172.45806407 850.03783875 -192.02294922 817.90893555 C-204.03259347 797.50243837 -205.94874904 774.13962795 -205.82714844 750.98706055 C-205.83534178 748.33326254 -205.84589827 745.6795694 -205.85935974 743.02580261 C-205.88346102 737.36703735 -205.88631762 731.70860307 -205.87377548 726.04980469 C-205.85567514 717.86870913 -205.87112111 709.68793182 -205.8941548 701.50686097 C-205.93066195 688.22630958 -205.94089814 674.94587794 -205.93408203 661.6652832 C-205.92752735 648.78210386 -205.93367563 635.89903129 -205.95654297 623.01586914 C-205.95795362 622.21867269 -205.95936428 621.42147625 -205.96081768 620.60012233 C-205.96797331 616.599902 -205.97537482 612.59968217 -205.98289847 608.59946251 C-206.04477033 575.53463496 -206.06378381 542.46991464 -206.05419922 509.4050293 C-206.5336348 510.16016312 -207.01307037 510.91529694 -207.5070343 511.6933136 C-208.13659531 512.68397324 -208.76615631 513.67463287 -209.41479492 514.6953125 C-210.35051079 516.16832573 -210.35051079 516.16832573 -211.30513 517.6710968 C-221.89450724 534.22312476 -233.84379635 549.86620603 -247.05419922 564.4050293 C-247.87275391 565.30866211 -248.69130859 566.21229492 -249.53466797 567.14331055 C-263.28510748 581.58472692 -280.88088124 593.42914275 -300.11669922 598.85375977 C-302.04300403 599.40184397 -303.95510515 599.9990624 -305.86669922 600.59643555 C-331.04519141 607.96201877 -360.7346064 603.86131821 -383.7824707 591.60717773 C-390.5570304 587.7381205 -396.87612932 583.15366342 -403.05419922 578.4050293 C-404.00939453 577.68831055 -404.96458984 576.9715918 -405.94873047 576.2331543 C-406.64353516 575.62987305 -407.33833984 575.0265918 -408.05419922 574.4050293 C-408.05419922 573.7450293 -408.05419922 573.0850293 -408.05419922 572.4050293 C-408.67294922 572.1575293 -409.29169922 571.9100293 -409.92919922 571.6550293 C-412.40488609 570.1987429 -413.00544924 569.02690424 -414.05419922 566.4050293 C-414.71419922 566.4050293 -415.37419922 566.4050293 -416.05419922 566.4050293 C-417.39526367 564.95556641 -417.39526367 564.95556641 -418.91748047 562.93237305 C-419.475 562.19696289 -420.03251953 561.46155273 -420.60693359 560.70385742 C-421.18765625 559.92461914 -421.76837891 559.14538086 -422.36669922 558.3425293 C-422.93582031 557.59036133 -423.50494141 556.83819336 -424.09130859 556.06323242 C-426.65895243 552.65837751 -429.18562636 549.22939213 -431.66227722 545.75782776 C-432.11073596 545.12939248 -432.5591947 544.5009572 -433.0212431 543.85347843 C-433.36211862 543.37549022 -433.70299414 542.897502 -434.05419922 542.4050293 C-434.05382219 543.3621154 -434.05344517 544.31920151 -434.05305672 545.30529022 C-434.04521911 568.69706633 -434.0721067 592.0886116 -434.13447762 615.48030853 C-434.16385415 626.79282915 -434.1823404 638.10516356 -434.17431641 649.41772461 C-434.16734343 659.28881752 -434.18169268 669.15962166 -434.22063529 679.03064394 C-434.24049806 684.2473328 -434.25037121 689.46356962 -434.23462296 694.68028259 C-434.1208505 736.85625365 -434.1208505 736.85625365 -441.05419922 756.4050293 C-441.29432362 757.1090538 -441.53444801 757.81307831 -441.78184891 758.53843689 C-448.92297743 779.27365143 -464.25357345 794.48851398 -482.05419922 806.4050293 C-482.92173828 806.99541992 -483.78927734 807.58581055 -484.68310547 808.1940918 C-508.58967738 823.55416271 -540.69153372 826.68490902 -567.86669922 820.7800293 C-587.09392381 816.2754726 -604.83087083 809.44075341 -620.05419922 796.4050293 C-620.05419922 795.7450293 -620.05419922 795.0850293 -620.05419922 794.4050293 C-620.63685547 794.15495117 -621.21951172 793.90487305 -621.81982422 793.6472168 C-633.84342918 786.96276509 -643.10490871 768.58805881 -646.81982422 755.79174805 C-647.32564621 753.89491558 -647.82042742 751.99510495 -648.30419922 750.0925293 C-648.68705078 748.64910156 -648.68705078 748.64910156 -649.07763672 747.17651367 C-649.75777253 744.59020775 -650.42795026 742.00490341 -651.05419922 739.4050293 C-651.31547115 738.37413153 -651.31547115 738.37413153 -651.5820213 737.32240754 C-652.2325796 733.30289594 -652.19832204 729.36405863 -652.19400692 725.29851055 C-652.19843405 723.91279902 -652.19843405 723.91279902 -652.20295063 722.49909332 C-652.21165067 719.38640574 -652.21322311 716.27375528 -652.21482849 713.16105652 C-652.21955891 710.91345437 -652.22470975 708.66585307 -652.23024613 706.41825277 C-652.24416386 700.22782375 -652.25173919 694.03740063 -652.25821912 687.84695995 C-652.26540396 681.85993201 -652.27721187 675.87291352 -652.28869411 669.88589266 C-652.32054574 653.07680639 -652.34038552 636.26771089 -652.35797963 619.45860454 C-652.3627495 614.90263656 -652.36775789 610.34666886 -652.37278485 605.79070115 C-652.40384251 577.48943293 -652.43045002 549.18816233 -652.44720364 520.88688183 C-652.45114064 514.32969852 -652.45515253 507.77251526 -652.45922852 501.21533203 C-652.45973018 500.40071088 -652.46023185 499.58608974 -652.46074872 498.7467831 C-652.47714582 472.36891521 -652.51557192 445.99114043 -652.56651562 419.61331829 C-652.61882966 392.47626149 -652.65153187 365.33925423 -652.65878117 338.202146 C-652.65980964 334.36247402 -652.66104594 330.52280214 -652.6624012 326.68313026 C-652.66265924 325.92751445 -652.66291727 325.17189865 -652.66318313 324.39338539 C-652.66786347 312.27238974 -652.69273794 300.15151738 -652.72515263 288.03056774 C-652.75731815 275.82382864 -652.76710906 263.61722719 -652.75472068 251.41045078 C-652.74860963 244.80698588 -652.75260973 238.20382395 -652.78289032 231.6003952 C-652.81045673 225.53899141 -652.80960132 219.47824043 -652.78737987 213.4168208 C-652.78418424 211.2395627 -652.79086265 209.06225925 -652.80917709 206.88507583 C-653.01055543 181.37096676 -647.24477787 156.26373432 -632.05419922 135.4050293 C-630.95591797 133.8272168 -630.95591797 133.8272168 -629.83544922 132.2175293 C-625.80375119 126.49134949 -625.80375119 126.49134949 -624.05419922 124.4050293 C-623.39419922 124.4050293 -622.73419922 124.4050293 -622.05419922 124.4050293 C-622.05419922 123.7450293 -622.05419922 123.0850293 -622.05419922 122.4050293 C-621.39419922 122.4050293 -620.73419922 122.4050293 -620.05419922 122.4050293 C-620.05419922 121.7450293 -620.05419922 121.0850293 -620.05419922 120.4050293 C-619.39419922 120.4050293 -618.73419922 120.4050293 -618.05419922 120.4050293 C-618.05419922 119.7450293 -618.05419922 119.0850293 -618.05419922 118.4050293 C-616.57641602 117.07983398 -616.57641602 117.07983398 -614.50341797 115.5769043 C-613.74770508 115.02711914 -612.99199219 114.47733398 -612.21337891 113.91088867 C-611.39772461 113.33145508 -610.58207031 112.75202148 -609.74169922 112.1550293 C-608.91444336 111.5652832 -608.0871875 110.97553711 -607.23486328 110.36791992 C-580.29688925 91.3838647 -543.73425577 83.17225173 -511.11669922 88.5300293 C-484.81905483 93.29974401 -462.06495894 101.71664658 -441.05419922 118.4050293 C-440.12865234 119.12561523 -439.20310547 119.84620117 -438.24951172 120.58862305 C-429.46659868 127.56768001 -420.77244664 135.37014483 -414.05419922 144.4050293 C-414.05419922 145.0650293 -414.05419922 145.7250293 -414.05419922 146.4050293 C-413.39419922 146.4050293 -412.73419922 146.4050293 -412.05419922 146.4050293 C-410.74487305 147.8828125 -410.74487305 147.8828125 -409.26123047 149.95581055 C-408.71700439 150.71112061 -408.17277832 151.46643066 -407.61206055 152.24462891 C-407.03609131 153.06068604 -406.46012207 153.87674316 -405.86669922 154.7175293 C-405.27590576 155.54841064 -404.6851123 156.37929199 -404.07641602 157.23535156 C-396.1783881 168.4018291 -389.58362374 179.86259422 -383.30517578 191.99584961 C-381.41073317 195.64424142 -379.48274067 199.27458209 -377.55419922 202.9050293 C-374.3766252 208.89931276 -371.21211583 214.90036876 -368.05419922 220.9050293 C-364.8087697 227.07411065 -361.56179622 233.24236221 -358.30419922 239.4050293 C-357.92763184 240.11763916 -357.55106445 240.83024902 -357.16308594 241.56445312 C-355.20480689 245.26173607 -353.21361097 248.93640074 -351.17919922 252.5925293 C-347.67010994 258.97712229 -344.48250686 265.52420649 -341.24243164 272.04785156 C-337.81433839 278.9327864 -334.26943358 285.74066633 -330.61279297 292.5065918 C-329.38531378 294.78927239 -328.19489261 297.07824178 -327.05419922 299.4050293 C-323.60955597 295.44751694 -321.41122171 291.4074337 -319.17919922 286.7175293 C-316.96292348 282.16595559 -314.73582193 277.70588321 -312.05419922 273.4050293 C-309.43772811 269.1959236 -307.23524479 264.84911464 -305.05419922 260.4050293 C-302.4659059 255.1311384 -299.72025011 250.08519812 -296.61669922 245.0925293 C-294.59189853 241.60987212 -292.82844917 238.02023032 -291.05419922 234.4050293 C-288.4659059 229.1311384 -285.72025011 224.08519812 -282.61669922 219.0925293 C-280.59189853 215.60987212 -278.82844917 212.02023032 -277.05419922 208.4050293 C-274.4659059 203.1311384 -271.72025011 198.08519812 -268.61669922 193.0925293 C-266.59189853 189.60987212 -264.82844917 186.02023032 -263.05419922 182.4050293 C-260.4659059 177.1311384 -257.72025011 172.08519812 -254.61669922 167.0925293 C-252.59189105 163.60985924 -250.82860027 160.02016805 -249.05419922 156.4050293 C-246.39129953 150.98414885 -243.59446816 145.74578175 -240.40185547 140.61206055 C-239.11055354 138.4973197 -237.95507783 136.3485157 -236.80419922 134.1550293 C-226.68064992 115.76337221 -211.77889962 100.07590684 -197.11669922 85.2800293 C-196.26293701 84.41321533 -195.4091748 83.54640137 -194.52954102 82.65332031 C-193.72427979 81.84693115 -192.91901855 81.04054199 -192.08935547 80.2097168 C-191.36111572 79.47736816 -190.63287598 78.74501953 -189.88256836 77.99047852 C-188.05419922 76.4050293 -188.05419922 76.4050293 -186.05419922 76.4050293 C-186.05419922 75.7450293 -186.05419922 75.0850293 -186.05419922 74.4050293 C-184.06201172 72.69799805 -184.06201172 72.69799805 -181.17919922 70.5925293 C-180.65036133 70.20508545 -180.12152344 69.8176416 -179.57666016 69.41845703 C-178.39129267 68.55200664 -177.20364629 67.68866834 -176.01416016 66.82788086 C-173.93815376 65.32078503 -171.87486513 63.79725818 -169.81201172 62.2722168 C-160.16465909 55.17627385 -150.35690002 48.51252592 -140.05419922 42.4050293 C-139.41305176 42.0239502 -138.7719043 41.64287109 -138.11132812 41.25024414 C-122.82052149 32.23554352 -106.73609515 24.4847484 -90.05419922 18.4050293 C-89.15894531 18.07535156 -88.26369141 17.74567383 -87.34130859 17.40600586 C-58.99230991 7.1014874 -30.20714284 0.21266585 0 0 Z M-139.76904297 97.7175293 C-141.72018065 99.15836943 -143.6919753 100.48646803 -145.74169922 101.7800293 C-146.50482422 102.3162793 -147.26794922 102.8525293 -148.05419922 103.4050293 C-148.05419922 104.0650293 -148.05419922 104.7250293 -148.05419922 105.4050293 C-148.65232422 105.6937793 -149.25044922 105.9825293 -149.86669922 106.2800293 C-152.24747714 107.45244955 -152.24747714 107.45244955 -155.05419922 109.4050293 C-155.05419922 110.0650293 -155.05419922 110.7250293 -155.05419922 111.4050293 C-156.70419922 112.0650293 -158.35419922 112.7250293 -160.05419922 113.4050293 C-160.05419922 114.0650293 -160.05419922 114.7250293 -160.05419922 115.4050293 C-160.71419922 115.4050293 -161.37419922 115.4050293 -162.05419922 115.4050293 C-162.05419922 116.0650293 -162.05419922 116.7250293 -162.05419922 117.4050293 C-162.71419922 117.4050293 -163.37419922 117.4050293 -164.05419922 117.4050293 C-164.05419922 118.0650293 -164.05419922 118.7250293 -164.05419922 119.4050293 C-164.71419922 119.4050293 -165.37419922 119.4050293 -166.05419922 119.4050293 C-166.05419922 120.0650293 -166.05419922 120.7250293 -166.05419922 121.4050293 C-166.71419922 121.4050293 -167.37419922 121.4050293 -168.05419922 121.4050293 C-168.05419922 122.0650293 -168.05419922 122.7250293 -168.05419922 123.4050293 C-168.71419922 123.4050293 -169.37419922 123.4050293 -170.05419922 123.4050293 C-170.05419922 124.0650293 -170.05419922 124.7250293 -170.05419922 125.4050293 C-170.71419922 125.4050293 -171.37419922 125.4050293 -172.05419922 125.4050293 C-172.05419922 126.0650293 -172.05419922 126.7250293 -172.05419922 127.4050293 C-172.71419922 127.4050293 -173.37419922 127.4050293 -174.05419922 127.4050293 C-174.05419922 128.0650293 -174.05419922 128.7250293 -174.05419922 129.4050293 C-174.71419922 129.4050293 -175.37419922 129.4050293 -176.05419922 129.4050293 C-178.45240227 132.04187677 -178.45240227 132.04187677 -179.05419922 135.4050293 C-179.71419922 135.4050293 -180.37419922 135.4050293 -181.05419922 135.4050293 C-182.43658209 136.92020811 -182.43658209 136.92020811 -183.80419922 138.9050293 C-184.33529297 139.63979492 -184.86638672 140.37456055 -185.41357422 141.1315918 C-185.95498047 141.88182617 -186.49638672 142.63206055 -187.05419922 143.4050293 C-188.05316033 144.6974996 -189.05313689 145.98918577 -190.05419922 147.2800293 C-196.12537464 155.41114241 -200.78842383 164.47329006 -205.55419922 173.4050293 C-206.79371782 175.717564 -208.03330302 178.030063 -209.27294922 180.3425293 C-209.90711369 181.52739843 -210.54122832 182.71229424 -211.17529297 183.8972168 C-214.12542262 189.40494325 -217.09020115 194.90475779 -220.05419922 200.4050293 C-221.22094362 202.5716541 -222.38761011 204.73832087 -223.55419922 206.9050293 C-300.55419922 349.9050293 -300.55419922 349.9050293 -302.30761719 353.16088867 C-303.46343521 355.30773098 -304.61871686 357.45486216 -305.7734375 359.60229492 C-308.51844657 364.70560456 -311.26908878 369.80565479 -314.03851318 374.89575195 C-315.35410654 377.31453801 -316.66667654 379.73495834 -317.97900391 382.15551758 C-318.91257036 383.87441203 -319.85053351 385.59091621 -320.78857422 387.30737305 C-321.62775391 388.85618164 -321.62775391 388.85618164 -322.48388672 390.4362793 C-322.98130371 391.34958008 -323.4787207 392.26288086 -323.99121094 393.20385742 C-325.19915468 395.29779394 -325.19915468 395.29779394 -325.05419922 397.4050293 C-326.37419922 397.4050293 -327.69419922 397.4050293 -329.05419922 397.4050293 C-329.27076172 396.63545898 -329.48732422 395.86588867 -329.71044922 395.07299805 C-331.55280782 390.04400176 -334.04487821 385.44206136 -336.55419922 380.7175293 C-337.09173828 379.6965918 -337.62927734 378.6756543 -338.18310547 377.6237793 C-339.80292712 374.54879872 -341.42834334 371.47682246 -343.05419922 368.4050293 C-344.32428053 365.99509603 -345.59269627 363.58429316 -346.86083984 361.17333984 C-347.66102931 359.65235778 -348.46181747 358.13169056 -349.26318359 356.61132812 C-352.54427467 350.38494922 -355.8014532 344.14625508 -359.05419922 337.9050293 C-363.95833699 328.4961999 -368.8883538 319.10136299 -373.83642578 309.71557617 C-376.32965462 304.98503934 -378.81897156 300.25244248 -381.30908203 295.52026367 C-383.3661199 291.61141074 -385.42398301 287.70299783 -387.48388672 283.7956543 C-392.54428174 274.19387914 -397.5765431 264.57780267 -402.59277344 254.95288086 C-406.13069634 248.16723316 -409.68612171 241.39107923 -413.25854492 234.62353516 C-415.55495474 230.26893993 -417.83414677 225.90598747 -420.09716797 221.53393555 C-427.35514474 207.51868768 -434.5375941 194.04879472 -444.05419922 181.4050293 C-444.63814453 180.59163086 -445.22208984 179.77823242 -445.82373047 178.94018555 C-446.35353516 178.20670898 -446.88333984 177.47323242 -447.42919922 176.7175293 C-447.89068359 176.07428711 -448.35216797 175.43104492 -448.82763672 174.76831055 C-449.23240234 174.31842773 -449.63716797 173.86854492 -450.05419922 173.4050293 C-450.71419922 173.4050293 -451.37419922 173.4050293 -452.05419922 173.4050293 C-452.26044922 172.87393555 -452.46669922 172.3428418 -452.67919922 171.7956543 C-454.63381114 168.39729494 -457.27543639 165.89447001 -460.05419922 163.1550293 C-460.60076172 162.60073242 -461.14732422 162.04643555 -461.71044922 161.4753418 C-464.3802069 158.41287155 -464.3802069 158.41287155 -468.05419922 157.4050293 C-468.05419922 156.7450293 -468.05419922 156.0850293 -468.05419922 155.4050293 C-471.6874361 152.44267235 -471.6874361 152.44267235 -476.05419922 151.4050293 C-476.05419922 150.7450293 -476.05419922 150.0850293 -476.05419922 149.4050293 C-499.89235173 135.16274326 -527.82787192 129.94866543 -555.05664062 136.62988281 C-563.94824924 139.03634632 -572.20678103 142.58956814 -580.05419922 147.4050293 C-580.05419922 148.0650293 -580.05419922 148.7250293 -580.05419922 149.4050293 C-582.52919922 150.3950293 -582.52919922 150.3950293 -585.05419922 151.4050293 C-585.05419922 152.0650293 -585.05419922 152.7250293 -585.05419922 153.4050293 C-585.71419922 153.4050293 -586.37419922 153.4050293 -587.05419922 153.4050293 C-587.05419922 154.0650293 -587.05419922 154.7250293 -587.05419922 155.4050293 C-587.71419922 155.4050293 -588.37419922 155.4050293 -589.05419922 155.4050293 C-605.66923204 173.32123938 -607.35922579 194.71406644 -607.32162476 217.86126709 C-607.32536473 220.04636646 -607.32996764 222.23146449 -607.3353554 224.41656041 C-607.34755759 230.40140793 -607.34732821 236.38619944 -607.34496665 242.37105656 C-607.34455779 248.83338845 -607.35560421 255.29570256 -607.36508179 261.75802612 C-607.38210991 274.4111153 -607.3872166 287.06418855 -607.38830654 299.71728799 C-607.38922683 310.00386248 -607.39334975 320.29043095 -607.39970779 330.57700348 C-607.40150297 333.54161302 -607.4032826 336.50622256 -607.40505755 339.47083211 C-607.40549965 340.20791078 -607.40594174 340.94498944 -607.40639724 341.70440383 C-607.41869942 362.42689135 -607.42659898 383.14937679 -607.42571068 403.87186813 C-607.42567952 404.65258838 -607.42564836 405.43330864 -607.42561626 406.23768708 C-607.42545005 410.19440087 -607.42525197 414.15111467 -607.42504685 418.10782847 C-607.42500696 418.89359926 -607.42496707 419.67937004 -607.42492597 420.48895207 C-607.42484509 422.07797055 -607.4247615 423.66698904 -607.42467518 425.25600753 C-607.42344979 449.97627789 -607.43846331 474.69649338 -607.46582031 499.41674805 C-607.49656703 527.21123508 -607.51375129 555.00568606 -607.51189387 582.80019116 C-607.51174461 585.76605813 -607.5116472 588.73192509 -607.51158524 591.69779205 C-607.51156193 592.42802504 -607.51153862 593.15825802 -607.5115146 593.91061927 C-607.51145316 605.64131464 -607.52420265 617.3719622 -607.54144976 629.10264337 C-607.55843505 640.89950386 -607.5600154 652.69628885 -607.54723112 664.49315497 C-607.54070637 670.87892379 -607.54056686 677.26452003 -607.55793762 683.65027237 C-607.5736944 689.50300717 -607.57077776 695.35543293 -607.55336936 701.20816031 C-607.55030527 703.31843711 -607.55390935 705.42873713 -607.56508951 707.53898653 C-607.64535721 723.77258702 -606.81157826 738.71682041 -597.05419922 752.4050293 C-596.06419922 753.8900293 -596.06419922 753.8900293 -595.05419922 755.4050293 C-594.39419922 755.4050293 -593.73419922 755.4050293 -593.05419922 755.4050293 C-593.05419922 756.0650293 -593.05419922 756.7250293 -593.05419922 757.4050293 C-592.39419922 757.4050293 -591.73419922 757.4050293 -591.05419922 757.4050293 C-591.05419922 758.0650293 -591.05419922 758.7250293 -591.05419922 759.4050293 C-590.39419922 759.4050293 -589.73419922 759.4050293 -589.05419922 759.4050293 C-589.05419922 760.0650293 -589.05419922 760.7250293 -589.05419922 761.4050293 C-574.49089758 774.19624778 -555.26813914 777.61645458 -536.50390625 776.61206055 C-523.62913227 775.52397919 -511.74645761 770.53320155 -501.05419922 763.4050293 C-501.05419922 762.7450293 -501.05419922 762.0850293 -501.05419922 761.4050293 C-500.16667969 761.01057617 -500.16667969 761.01057617 -499.26123047 760.6081543 C-490.93847161 756.07114593 -486.45724018 745.81835219 -483.05419922 737.4050293 C-480.74027997 729.31119847 -480.77885289 721.39415556 -480.81369019 713.04832458 C-480.81281714 711.48963144 -480.81106433 709.93093858 -480.80851185 708.37224728 C-480.80405381 704.10555176 -480.81202072 699.83895723 -480.82206798 695.57227457 C-480.83072247 690.96502785 -480.8277809 686.35778662 -480.82626343 681.75053406 C-480.82521584 673.7736063 -480.83147925 665.79671131 -480.84273911 657.81979179 C-480.85900825 646.28657612 -480.86420356 634.75337626 -480.86671509 623.22015036 C-480.87108997 604.50727225 -480.88439346 585.7944116 -480.90332031 567.08154297 C-480.92168446 548.90608813 -480.93583835 530.73063803 -480.94433594 512.55517578 C-480.94486138 511.43442996 -480.94538683 510.31368413 -480.9459282 509.15897631 C-480.94853832 503.53640126 -480.95106572 497.91382617 -480.95355201 492.29125106 C-480.97427806 445.66249838 -481.00949796 399.03376474 -481.05419922 352.4050293 C-479.40419922 352.4050293 -477.75419922 352.4050293 -476.05419922 352.4050293 C-475.96138672 353.07018555 -475.86857422 353.7353418 -475.77294922 354.4206543 C-474.85238109 358.24301326 -473.2502648 361.63010289 -471.55419922 365.1550293 C-471.19890137 365.90308838 -470.84360352 366.65114746 -470.47753906 367.421875 C-468.01364335 372.55561843 -465.38783408 377.58464164 -462.67919922 382.5925293 C-458.66752595 390.01416838 -455.1628549 397.61704858 -451.71704102 405.31518555 C-448.9614637 411.45701243 -446.07294717 417.50223356 -443.02050781 423.5012207 C-440.44893087 428.56832294 -438.0226095 433.69498829 -435.61669922 438.8425293 C-432.79153922 444.87054448 -429.8404853 450.79650557 -426.67919922 456.6550293 C-423.11259742 463.27557804 -419.78860628 469.99113781 -416.55419922 476.7800293 C-416.09062012 477.75254639 -415.62704102 478.72506348 -415.14941406 479.72705078 C-412.93708795 484.3864377 -410.74958197 489.05571122 -408.60107422 493.74487305 C-404.7004875 502.21698337 -400.75576283 509.96627052 -395.05419922 517.4050293 C-394.27385715 518.6072438 -393.50158016 519.81477853 -392.74169922 521.0300293 C-392.18482422 521.8137793 -391.62794922 522.5975293 -391.05419922 523.4050293 C-390.39419922 523.4050293 -389.73419922 523.4050293 -389.05419922 523.4050293 C-388.68294922 524.4878418 -388.68294922 524.4878418 -388.30419922 525.5925293 C-386.9315033 528.68109511 -385.33066626 530.91514347 -383.05419922 533.4050293 C-382.39419922 533.4050293 -381.73419922 533.4050293 -381.05419922 533.4050293 C-381.05419922 534.0650293 -381.05419922 534.7250293 -381.05419922 535.4050293 C-380.39419922 535.4050293 -379.73419922 535.4050293 -379.05419922 535.4050293 C-379.05419922 536.0650293 -379.05419922 536.7250293 -379.05419922 537.4050293 C-378.39419922 537.4050293 -377.73419922 537.4050293 -377.05419922 537.4050293 C-377.05419922 538.0650293 -377.05419922 538.7250293 -377.05419922 539.4050293 C-376.39419922 539.4050293 -375.73419922 539.4050293 -375.05419922 539.4050293 C-375.05419922 540.0650293 -375.05419922 540.7250293 -375.05419922 541.4050293 C-373.19166752 542.95663099 -371.35641822 544.3450373 -369.36669922 545.7175293 C-368.78670166 546.11907227 -368.2067041 546.52061523 -367.60913086 546.93432617 C-353.18029115 556.5574392 -336.30493504 559.03995835 -319.40576172 556.19799805 C-310.64190742 554.12449872 -302.75657631 549.97588439 -295.05419922 545.4050293 C-295.05419922 544.7450293 -295.05419922 544.0850293 -295.05419922 543.4050293 C-294.06419922 543.4050293 -293.07419922 543.4050293 -292.05419922 543.4050293 C-292.05419922 542.7450293 -292.05419922 542.0850293 -292.05419922 541.4050293 C-291.25755859 541.0956543 -291.25755859 541.0956543 -290.44482422 540.7800293 C-287.04646486 538.82541738 -284.54363994 536.18379213 -281.80419922 533.4050293 C-281.24990234 532.8584668 -280.69560547 532.3119043 -280.12451172 531.7487793 C-277.06204147 529.07902162 -277.06204147 529.07902162 -276.05419922 525.4050293 C-275.39419922 525.4050293 -274.73419922 525.4050293 -274.05419922 525.4050293 C-273.72419922 524.0850293 -273.39419922 522.7650293 -273.05419922 521.4050293 C-272.39419922 521.4050293 -271.73419922 521.4050293 -271.05419922 521.4050293 C-269.465937 519.69005158 -269.465937 519.69005158 -267.92919922 517.5300293 C-267.12095703 516.45108398 -267.12095703 516.45108398 -266.29638672 515.3503418 C-264.8748029 513.50876924 -264.8748029 513.50876924 -265.05419922 511.4050293 C-264.39419922 511.4050293 -263.73419922 511.4050293 -263.05419922 511.4050293 C-261.47069199 509.53461543 -261.47069199 509.53461543 -259.86669922 507.0925293 C-259.24150391 506.17342773 -258.61630859 505.25432617 -257.97216797 504.30737305 C-255.5818301 500.69022226 -253.24047586 497.04580539 -250.92919922 493.37768555 C-248.86432066 490.10399266 -246.77445316 486.846812 -244.67919922 483.5925293 C-244.29965088 483.0022998 -243.92010254 482.41207031 -243.52905273 481.80395508 C-241.63271601 478.8553413 -239.73389489 475.90835958 -237.83154297 472.96362305 C-233.85786508 466.80661529 -229.92863894 460.62503541 -226.05419922 454.4050293 C-221.08877447 446.43356127 -216.01813007 438.53311655 -210.91748047 430.64770508 C-206.9163673 424.45997673 -202.94884124 418.26209189 -199.11669922 411.9675293 C-195.75808984 406.47040416 -192.21806952 401.11875977 -188.62255859 395.77587891 C-185.85939907 391.65508842 -183.25745572 387.47354037 -180.74560547 383.1940918 C-177.97214306 378.62076117 -175.02632445 374.15874168 -172.1015625 369.68115234 C-168.9691095 364.87032995 -165.98398896 360.00385315 -163.17529297 354.99487305 C-162.80533203 354.47022461 -162.43537109 353.94557617 -162.05419922 353.4050293 C-161.39419922 353.4050293 -160.73419922 353.4050293 -160.05419922 353.4050293 C-160.05322241 354.2916756 -160.0522456 355.1783219 -160.05123919 356.09183627 C-159.99296693 408.64193714 -159.91916994 461.19199666 -159.82521294 513.74204646 C-159.81394478 520.05182635 -159.80280632 526.36160646 -159.79174805 532.67138672 C-159.78844252 534.55563183 -159.78844252 534.55563183 -159.78507022 536.47794249 C-159.74969804 556.81743032 -159.72483344 577.15691812 -159.7038522 597.49642531 C-159.68208954 618.36670207 -159.64903465 639.23693892 -159.60549766 660.10718173 C-159.57898903 672.98517201 -159.56128783 685.86311255 -159.55485318 698.74112877 C-159.54959691 707.57211663 -159.53337182 716.40304192 -159.50853356 725.23399625 C-159.49452688 730.3289349 -159.48534469 735.42376153 -159.48919106 740.51872063 C-159.49260824 745.1867756 -159.48219629 749.85459158 -159.4609637 754.52259763 C-159.45570752 756.20783456 -159.45544856 757.89309638 -159.46080359 759.578333 C-159.51367816 778.11149082 -155.32391987 793.18583694 -141.95263672 806.6550293 C-127.5178209 820.35059579 -108.97552013 826.47059853 -90.05419922 831.4050293 C-89.03132812 831.67404053 -89.03132812 831.67404053 -87.98779297 831.94848633 C-70.36076158 836.43091578 -53.30734332 836.02688779 -37.33154297 826.80737305 C-35.54932669 825.70991911 -33.79569062 824.56602357 -32.05419922 823.4050293 C-32.05419922 822.7450293 -32.05419922 822.0850293 -32.05419922 821.4050293 C-31.39419922 821.4050293 -30.73419922 821.4050293 -30.05419922 821.4050293 C-13.87649547 801.28863624 -9.31556312 778.49186124 -6.59350586 753.33178711 C-6.40522642 751.60846601 -6.40522642 751.60846601 -6.21314335 749.85033035 C-4.6245791 734.88659114 -3.47721009 719.88586975 -2.31201696 704.88452864 C-1.96652346 700.44910616 -1.61590953 696.0140876 -1.26602173 691.57901001 C-0.57751313 682.84144383 0.10628559 674.10351514 0.78851819 665.36545694 C1.60324153 654.93315249 2.42308739 644.50125208 3.24287093 634.06934428 C5.39364064 606.6956709 7.53276127 579.32108974 9.66939735 551.94631004 C9.94520076 548.41271678 10.22103373 544.87912582 10.49687195 541.34553528 C14.0525861 495.7940192 17.60247748 450.24204966 21.14746094 404.68969727 C26.11209651 340.89714916 31.09311778 277.10590778 36.09620541 213.31636322 C36.70154896 205.59811235 37.30663056 197.87984099 37.91159058 190.16156006 C38.71922509 179.85779049 39.5274653 169.55406857 40.33615112 159.25038147 C40.62869174 155.52290833 40.92104001 151.79542019 41.2131958 148.06791687 C41.55064777 143.76258084 41.88872676 139.45729436 42.22704911 135.15202665 C42.41963658 132.69789485 42.61137156 130.24369747 42.80303764 127.78949356 C43.44374163 119.61033963 44.10881719 111.43392106 44.80838013 103.25958252 C45.01913263 100.76824134 45.22941712 98.27686107 45.43957055 95.78546929 C45.63478531 93.49761802 45.83724776 91.21049254 46.04009151 88.92330742 C48.43982765 72.00184147 48.43982765 72.00184147 45.00830078 56.2175293 C36.71226632 47.39147041 24.54522871 45.55329953 13.00048828 45.11987305 C-41.08655705 43.97910447 -96.71631938 65.5091569 -139.76904297 97.7175293 Z " fill="#000000" transform="translate(796.05419921875,75.594970703125)"/>
<path d="M0 0 C3.88607543 3.3609301 5.95987575 7.30525416 6.62890625 12.41796875 C6.73087338 16.58502556 6.69223455 18.43039818 4.3125 22 C2.18945312 22.37231445 2.18945312 22.37231445 -0.40625 22.36328125 C-1.33824219 22.36263672 -2.27023437 22.36199219 -3.23046875 22.36132812 C-4.20628906 22.34521484 -5.18210937 22.32910156 -6.1875 22.3125 C-7.16332031 22.31572266 -8.13914062 22.31894531 -9.14453125 22.32226562 C-16.42058471 22.26691529 -16.42058471 22.26691529 -18.6875 20 C-19.63692827 14.06055341 -18.88882555 8.83162114 -15.8828125 3.62890625 C-11.8771266 -1.82982258 -6.07963263 -2.26218889 0 0 Z " fill="#000000" transform="translate(574.6875,432)"/>
<path d="M0 0 C3.33371996 3.13369676 4.84080381 6.44477572 5.3046875 10.9765625 C5.3116498 13.67097293 5.22206486 16.31548258 5 19 C1.15661402 20.78696175 -1.89729715 21.27119149 -6.125 21.25 C-7.67574219 21.25773437 -7.67574219 21.25773437 -9.2578125 21.265625 C-12 21 -12 21 -15 19 C-16.2203624 13.08509037 -14.98472128 7.85930152 -12.265625 2.59375 C-8.90054039 -1.64376395 -4.89711139 -1.54645623 0 0 Z " fill="#000000" transform="translate(394,437)"/>
</svg>
