<svg xmlns="http://www.w3.org/2000/svg" width="1400" height="1400" viewBox="0 0 1400 1400" version="1.1"><path d="M 659 51.057 C 590.675 56.086, 538.920 70.983, 470.204 105.398 C 386.508 147.316, 330.265 200.116, 297.429 267.599 C 286.086 290.909, 265.859 348.449, 242.625 423.500 C 227.110 473.615, 226 478.630, 226 498.631 C 226 517.173, 229.351 532.075, 237.552 550 C 243.107 562.141, 245.048 569.597, 245.137 579.138 C 245.304 597.008, 244.526 598.464, 202.720 658.601 C 138.091 751.567, 135.686 755.131, 132.383 762.841 C 124.077 782.228, 126.281 798.393, 139.150 812.474 C 148.721 822.946, 168.700 833.918, 186.586 838.525 C 203.333 842.839, 209 847.980, 209 858.859 C 209 862.889, 208.105 866.230, 205.450 872.110 C 199.771 884.689, 198.630 889.449, 198.645 900.500 C 198.656 908.461, 199.117 911.673, 200.902 916.252 C 203.392 922.638, 208.700 929.838, 215.613 936.211 L 220.175 940.416 219.463 956.134 C 218.493 977.543, 219.053 981.160, 224.648 989.634 C 235.770 1006.478, 239.160 1017.183, 239.174 1035.500 C 239.180 1043.643, 238.530 1050.714, 237.152 1057.500 C 232.708 1079.378, 232.022 1091.472, 234.398 1106 C 237.596 1125.553, 245.223 1140.362, 258.633 1153.053 C 275.439 1168.958, 295.607 1176.996, 329.963 1181.481 C 342.917 1183.172, 369.846 1185.549, 392.500 1187.001 C 422.626 1188.933, 446.020 1191.046, 453.967 1192.553 C 471.833 1195.942, 485.325 1202.334, 495.018 1212 C 506.817 1223.767, 512.801 1240.285, 514.940 1267 C 516.573 1287.384, 518.705 1305.454, 522.077 1327.500 C 523.675 1337.950, 524.987 1346.838, 524.991 1347.250 C 524.996 1347.662, 663.648 1348, 833.107 1348 C 1079.215 1348, 1141.105 1347.748, 1140.671 1346.750 C 1127.411 1316.220, 1123.016 1304.723, 1116.114 1282.500 C 1105.524 1248.402, 1098.928 1213.944, 1095.536 1175 C 1093.520 1151.863, 1093.504 1101.248, 1095.505 1078.500 C 1101.606 1009.135, 1119.152 947.865, 1151.491 883 C 1165.860 854.179, 1171.757 843.923, 1194.069 808.947 C 1211.690 781.326, 1220.137 766.598, 1230.459 745.500 C 1261.876 681.283, 1276.983 617.104, 1276.996 547.804 C 1277.006 493.368, 1268.540 443.362, 1249.180 383.500 C 1238.689 351.062, 1220.497 308.891, 1206.385 284.293 C 1193.279 261.450, 1185.897 250.122, 1171.981 231.500 C 1110.156 148.765, 1020.656 93.035, 911 68.990 C 868.209 59.607, 830.065 55.643, 737.836 50.992 C 715.556 49.868, 674.696 49.902, 659 51.057 M 662.500 96.612 C 610.766 100.644, 581.240 107.074, 543.500 122.527 C 498.028 141.146, 456.472 163.131, 427.608 183.838 C 405.011 200.049, 377.455 227.222, 361.021 249.500 C 352.014 261.709, 339.920 283.819, 331.720 303.064 C 327.792 312.284, 318.164 337.851, 315.958 344.917 C 315.515 346.338, 311.937 356.950, 308.008 368.500 C 304.078 380.050, 299.319 394.338, 297.431 400.250 C 275.447 469.124, 273.123 477.234, 272.212 488.277 C 271.749 493.900, 271.699 502.555, 272.102 507.511 C 272.748 515.452, 273.501 518.021, 278.440 529.145 C 282.452 538.180, 285.033 545.995, 287.519 556.634 C 292.259 576.922, 292.207 583.631, 287.149 604 C 282.820 621.432, 280.145 627.357, 270.446 641 C 266.731 646.225, 252.150 667.150, 238.043 687.500 C 174.717 778.854, 173.277 781.021, 174.558 783.095 C 176.023 785.465, 197.882 795.007, 208.303 797.825 C 224.256 802.139, 235.162 810.192, 245.388 825.209 C 248.453 829.709, 249.877 833.415, 252.115 842.709 C 253.677 849.194, 254.965 856.311, 254.977 858.525 C 255.008 863.988, 249.486 886.245, 246.456 892.871 C 245.105 895.825, 244 898.707, 244 899.275 C 244 899.843, 245.763 901.817, 247.917 903.661 C 255.453 910.111, 260.499 918.562, 263.047 929 C 265.018 937.074, 265.332 940.706, 265.138 953.198 L 264.910 967.896 268.427 973.198 C 273.352 980.624, 276.478 988.833, 280.647 1005.286 C 285.841 1025.787, 286.315 1040.310, 282.422 1059.611 C 280.127 1070.991, 279.610 1076.210, 279.560 1088.500 C 279.500 1103.468, 279.507 1103.513, 282.683 1109.588 C 287.240 1118.305, 294.882 1124.907, 305.697 1129.469 C 319.103 1135.125, 334.532 1137.138, 398 1141.511 C 447.018 1144.889, 450.745 1145.384, 477.299 1152.035 C 493.369 1156.059, 502.171 1159.919, 513.190 1167.771 C 524.415 1175.770, 530.914 1182.227, 538.239 1192.657 C 547.797 1206.269, 550.348 1212.547, 555.852 1236 C 559.011 1249.459, 560.594 1260.257, 561.499 1274.500 C 561.813 1279.450, 562.560 1287.662, 563.159 1292.750 L 564.247 1302 819.519 1302 L 1074.790 1302 1072.844 1295.750 C 1063.924 1267.100, 1054.161 1218.631, 1050.335 1184 C 1048.060 1163.404, 1047.722 1095.337, 1049.791 1074.500 C 1055.287 1019.161, 1069.868 959.277, 1090.696 906.500 C 1106.282 867.005, 1126.436 829.023, 1155.695 784 C 1181.356 744.514, 1200.637 705.234, 1213.860 665.500 C 1226.306 628.100, 1231.016 595.364, 1230.979 546.500 C 1230.932 485.006, 1221.309 435.844, 1197.029 373.069 C 1178.521 325.214, 1155.409 283.511, 1129.100 250.500 C 1116.368 234.524, 1085.575 203.748, 1069.769 191.203 C 1031.348 160.706, 982.524 136.096, 927.560 119.521 C 892.875 109.061, 845.837 102.744, 770.500 98.429 C 745.027 96.970, 673.375 95.765, 662.500 96.612 M 589.108 564.884 C 587.946 565.644, 588.228 567.911, 590.822 578.647 L 593.927 591.500 593.791 632.500 C 593.666 670.334, 593.843 675.006, 596.078 693 C 597.410 703.725, 598.433 716.550, 598.351 721.500 C 597.189 791.850, 597.095 785.996, 599.397 786.459 C 601.397 786.862, 627.061 789.009, 629.801 789.003 C 635.536 788.990, 635.619 752.102, 629.952 722.199 C 627.386 708.657, 627.463 706.701, 631 695.659 C 632.650 690.508, 634 685.363, 634 684.226 C 634 681.393, 641.872 673.750, 647.527 671.092 C 654.042 668.030, 663.215 667.339, 670.242 669.382 C 681.683 672.708, 686.373 679.990, 689.488 699.266 C 689.823 701.337, 690.102 713.712, 690.109 726.766 C 690.122 749.954, 688.866 769.472, 686.844 777.500 C 683.752 789.779, 684.031 789.978, 703.391 789.253 C 715.918 788.784, 717.970 788.934, 720.347 790.492 C 722.921 792.178, 723.144 792.180, 724.982 790.517 C 728.031 787.757, 728.414 781.092, 726.489 764.269 C 725.150 752.560, 724.926 746.538, 725.574 739.636 C 726.866 725.867, 726.643 710.663, 724.824 688.485 C 723.020 666.487, 721.707 661.218, 715.470 650.951 C 707.193 637.326, 697.997 630.126, 684.356 626.592 C 675.402 624.272, 667.886 624.623, 654.439 627.987 C 647.873 629.630, 641.002 630.980, 639.171 630.987 C 635.937 631, 635.862 630.907, 636.550 627.772 C 638.022 621.071, 637.129 601.332, 634.577 584.157 C 633.160 574.619, 632 566.650, 632 566.449 C 632 566.248, 623.563 565.930, 613.250 565.741 C 602.938 565.553, 593.600 565.079, 592.500 564.687 C 591.400 564.295, 589.874 564.383, 589.108 564.884 M 599.656 576.750 C 600.511 578.813, 601.339 580.638, 601.496 580.807 C 601.861 581.201, 613 574.096, 613 573.469 C 613 573.211, 609.648 573, 605.551 573 L 598.102 573 599.656 576.750 M 620.815 575.035 C 616.959 577.072, 615.099 579, 616.991 579 C 618.981 579, 623.744 576.111, 624.347 574.537 C 624.672 573.692, 624.839 573.020, 624.719 573.044 C 624.598 573.069, 622.842 573.964, 620.815 575.035 M 620.825 585.750 C 618.927 587.263, 614.140 591.378, 610.187 594.896 C 603.136 601.170, 603 601.383, 603 606.146 C 603 608.816, 603.265 611, 603.589 611 C 604.831 611, 626 595.829, 626 594.938 C 626 594.422, 624.763 593.952, 623.250 593.894 L 620.500 593.787 623.250 592.701 C 625.656 591.750, 626 591.075, 626 587.307 C 626 584.938, 625.612 583, 625.138 583 C 624.663 583, 622.722 584.237, 620.825 585.750 M 609.742 586.085 C 608.775 586.648, 607.534 586.830, 606.983 586.490 C 606.433 586.149, 605.060 586.163, 603.934 586.521 C 602.350 587.024, 601.956 587.871, 602.193 590.258 C 602.362 591.957, 603 593.510, 603.612 593.710 C 604.224 593.911, 606.924 592.051, 609.612 589.577 C 614.067 585.478, 614.140 583.524, 609.742 586.085 M 623.194 602.840 C 621.712 604.401, 617.456 607.352, 613.736 609.396 C 605.022 614.185, 603 616.395, 603 621.130 C 603 623.193, 603.382 625.118, 603.849 625.407 C 604.850 626.025, 617.252 618.065, 621.328 614.189 L 624.155 611.500 619.328 611 L 614.500 610.500 621.500 607.868 C 625.350 606.421, 628.388 604.959, 628.250 604.618 C 628.112 604.278, 628 603.100, 628 602 C 628 599.217, 626.358 599.504, 623.194 602.840 M 619.860 619.887 C 615.787 622.612, 611.577 625.810, 610.506 626.993 L 608.559 629.145 613.530 627.175 C 627.088 621.802, 626.854 621.941, 627.534 618.844 C 627.895 617.201, 627.983 615.649, 627.729 615.395 C 627.475 615.141, 623.934 617.163, 619.860 619.887 M 613.581 631.482 C 609.225 633.383, 605.204 635.396, 604.645 635.955 C 603.128 637.472, 602.671 647.469, 603.480 661.487 L 604.200 673.973 612.952 667.978 C 624.172 660.294, 625.326 658.965, 625.558 653.467 C 625.661 651.010, 625.466 649.016, 625.123 649.036 C 624.780 649.056, 623.208 650.129, 621.628 651.421 L 618.757 653.769 621.607 653.224 C 624.415 652.688, 624.434 652.715, 622.878 655.090 C 621.298 657.502, 613.284 662.617, 612.427 661.760 C 612.177 661.510, 612.916 659.999, 614.070 658.403 C 615.831 655.967, 615.697 656.028, 613.238 658.778 C 611.219 661.037, 609.778 661.852, 608.601 661.400 C 605.742 660.303, 607.211 656.774, 611.874 653.537 C 620.397 647.620, 625 642.545, 625 639.063 L 625 635.864 622 638 C 618.524 640.475, 618.153 641.404, 621 640.500 C 623.805 639.610, 623.488 641.171, 620.250 644.191 C 615.569 648.556, 610.487 650.500, 611.646 647.481 C 612.133 646.212, 611.727 646.250, 609.179 647.712 C 607.502 648.675, 605.775 649.108, 605.341 648.675 C 604.073 647.406, 607.262 642.729, 611.026 640.338 C 612.937 639.124, 615.288 637.426, 616.250 636.565 C 617.212 635.704, 618.337 634.901, 618.750 634.780 C 619.684 634.505, 624 629.430, 624 628.606 C 624 627.368, 621.292 628.115, 613.581 631.482 M 475.520 635.104 C 460.483 638.229, 453.720 640.962, 450.693 645.134 C 448.851 647.673, 448.841 648.132, 450.391 657.924 C 451.276 663.510, 452 669.876, 452 672.071 C 452 674.747, 452.509 676.258, 453.543 676.655 C 454.392 676.981, 459.455 675.322, 464.793 672.968 C 477.492 667.370, 483.874 665.723, 493 665.687 C 505.858 665.636, 510 669.634, 510 682.096 L 510 688.257 501.750 687.767 C 479.733 686.458, 469.232 690.546, 451.313 707.406 C 443.693 714.574, 441.761 717.023, 439.991 721.752 C 436.091 732.177, 438.905 749.339, 447.245 766 C 452.455 776.409, 454.683 777.860, 470.206 780.952 C 486.275 784.154, 497.208 784.663, 504.481 782.549 C 510.668 780.750, 520.576 776.105, 525.224 772.824 C 528.482 770.524, 529.959 771.100, 537.374 777.562 C 544.425 783.707, 548.055 784.439, 566.252 783.383 L 581.481 782.500 582.134 777.500 C 584.182 761.807, 584.130 760.039, 581.536 757.445 C 579.559 755.468, 578.078 755, 573.795 754.998 C 567.552 754.997, 562.050 752.547, 560.323 749 C 557.849 743.921, 552 722.656, 552 718.743 C 552 716.519, 552.734 711.077, 553.631 706.650 C 555.144 699.185, 555.141 697.860, 553.599 688.392 C 550.583 669.883, 541.790 648.673, 535.557 644.871 C 530.960 642.067, 518.780 638.330, 506.935 636.090 C 501.124 634.990, 495.132 633.620, 493.619 633.045 C 492.107 632.470, 490.562 632.045, 490.185 632.099 C 489.808 632.154, 483.209 633.506, 475.520 635.104 M 654.831 635.023 C 646.953 636.353, 639.433 638.864, 637.746 640.729 C 636.862 641.705, 635.696 643.669, 635.154 645.094 L 634.169 647.685 641.335 645.944 C 645.276 644.987, 653.225 641.915, 659 639.116 L 669.500 634.029 664.500 634.132 C 661.750 634.189, 657.399 634.590, 654.831 635.023 M 681.500 637.904 C 676.257 640.341, 664.785 648.527, 658.500 654.316 L 653.500 658.921 659.916 658.960 C 665.838 658.997, 666.901 658.645, 673.725 654.392 C 677.791 651.858, 680.935 649.602, 680.713 649.379 C 680.490 649.156, 677.303 650.105, 673.631 651.487 C 659.695 656.732, 661.470 653.730, 676.715 646.271 C 681.783 643.791, 687.970 641.532, 690.465 641.251 C 692.959 640.970, 695 640.397, 695 639.979 C 695 639.250, 687.744 635.976, 686.230 636.022 C 685.828 636.034, 683.700 636.881, 681.500 637.904 M 665.500 640.737 C 661.650 642.738, 654.704 645.823, 650.064 647.593 C 643.129 650.237, 639.180 652.741, 627.878 661.655 C 620.315 667.620, 614.594 672.665, 615.164 672.867 C 617.593 673.726, 642.922 659.388, 657.522 648.889 C 676.095 635.533, 676.698 634.916, 665.500 640.737 M 809.807 639.036 C 799.945 641.462, 790.466 645.778, 782.465 651.488 C 774.920 656.872, 771.273 661.177, 763.019 674.445 C 750.237 694.991, 747.618 702.376, 747.573 718 C 747.544 727.699, 747.794 729.089, 750.852 736.220 C 756.782 750.051, 766.003 762.430, 773.056 766.029 C 775.087 767.065, 780.743 769.464, 785.624 771.359 C 790.506 773.255, 799 776.615, 804.500 778.825 C 816.718 783.734, 827.307 786, 838.034 786 C 845.296 786, 847.385 785.519, 857.826 781.444 C 884.193 771.155, 895.119 762.005, 900.076 746.062 C 909.517 715.695, 893.321 665.607, 869.018 650.012 C 866.309 648.273, 857.332 644.634, 849.069 641.925 C 835.777 637.568, 833.091 637.008, 825.772 637.072 C 821.223 637.112, 814.038 637.996, 809.807 639.036 M 979.500 638.960 C 955.292 645.359, 944.830 653.570, 930.504 677.409 C 920.647 693.811, 918.213 700.043, 916.798 712.498 C 915.944 720.010, 916.044 722.625, 917.385 727.857 C 920.407 739.652, 931.224 758.018, 938.353 763.455 C 941.682 765.994, 964.747 775.779, 979.578 780.944 C 998.268 787.452, 1012.678 787.625, 1027.500 781.520 C 1050.374 772.098, 1060.538 764.645, 1066.345 753.037 C 1070.916 743.901, 1072.424 734.573, 1071.686 720 C 1070.918 704.824, 1067.628 693.012, 1059.549 676.430 C 1049.106 654.992, 1042.096 649.333, 1015.702 641.027 C 1000.800 636.338, 991.441 635.804, 979.500 638.960 M 337.250 640.508 C 335.207 641.966, 335.003 642.911, 335.037 650.807 C 335.058 655.588, 335.502 665.350, 336.026 672.500 C 336.549 679.650, 337.433 701.916, 337.990 721.981 C 338.855 753.114, 338.778 760.290, 337.466 770.936 C 335.585 786.196, 336.162 788.449, 342.369 790.057 C 344.641 790.646, 348.075 791.547, 350 792.058 C 351.925 792.570, 360.572 792.991, 369.215 792.994 C 384.128 793, 384.987 792.893, 386.047 790.913 C 387.314 788.545, 387 775.424, 385.009 747.500 C 383.560 727.179, 384.919 699.741, 387.722 692.736 C 389.843 687.436, 396.816 681.646, 403.678 679.488 C 408.622 677.933, 410.090 677.854, 414.451 678.914 C 423.819 681.190, 425.330 680.952, 426.626 677 C 427.258 675.075, 428.587 666.605, 429.580 658.178 C 431.600 641.042, 431.601 641.044, 424.947 641.015 C 421.997 641.003, 390.367 649.252, 384.850 651.473 C 383.596 651.978, 382.919 651.284, 382.028 648.584 C 379.879 642.073, 378.019 641.393, 360.314 640.647 C 351.616 640.280, 343.375 639.738, 342 639.442 C 340.522 639.123, 338.580 639.559, 337.250 640.508 M 481 644.062 C 477.975 645.726, 474.825 647.791, 474 648.651 C 472.652 650.057, 472.753 650.140, 475 649.476 C 476.375 649.070, 480.875 647.019, 485 644.919 C 491.430 641.645, 492.072 641.095, 489.500 641.068 C 487.850 641.051, 484.025 642.398, 481 644.062 M 493.377 645.250 C 488.658 650.635, 488.728 651.086, 493.794 647.937 C 496.631 646.174, 498.711 644.342, 498.417 643.866 C 497.484 642.357, 495.414 642.925, 493.377 645.250 M 687.007 650.671 C 680.693 654.890, 675.971 658.480, 676.513 658.648 C 677.056 658.817, 683.664 656.814, 691.198 654.198 L 704.897 649.442 702.376 646.221 C 700.989 644.449, 699.547 643, 699.171 643 C 698.795 643, 693.321 646.452, 687.007 650.671 M 464.252 645.657 C 459.018 646.897, 457.903 647.540, 457.382 649.615 C 457.040 650.978, 456.995 652.329, 457.283 652.616 C 457.956 653.290, 464.510 649.896, 468.944 646.578 C 472.853 643.653, 472.775 643.637, 464.252 645.657 M 509.482 648.640 C 503.239 652.779, 503.326 652.972, 510.456 650.796 C 518.819 648.243, 520.057 649.168, 515.881 654.847 C 514.164 657.182, 512.969 659.302, 513.226 659.559 C 513.483 659.816, 517.134 658.458, 521.339 656.542 C 525.545 654.625, 529.664 653.317, 530.493 653.636 C 531.322 653.954, 532 653.946, 532 653.620 C 532 652.528, 518.083 646, 515.757 646 C 514.496 646, 511.672 647.188, 509.482 648.640 M 830.415 647.362 C 829.006 651.034, 830.199 651.642, 836.500 650.463 C 842 649.434, 842.292 649.254, 840 648.298 C 834.784 646.122, 831.031 645.756, 830.415 647.362 M 999.667 646.667 C 999.300 647.033, 999 648.392, 999 649.686 C 999 651.620, 999.399 651.941, 1001.250 651.492 C 1002.487 651.191, 1005.525 650.598, 1008 650.174 L 1012.500 649.403 1007.572 647.702 C 1002.203 645.848, 1000.684 645.649, 999.667 646.667 M 356.013 648.684 C 349.696 649.485, 344.353 650.314, 344.140 650.526 C 343.494 651.173, 346.379 660, 347.237 660 C 347.677 660, 352.942 658.414, 358.937 656.476 C 370.185 652.840, 374.855 650.192, 373.600 648.162 C 372.730 646.755, 370.773 646.813, 356.013 648.684 M 801 648.725 C 798.525 649.587, 795.612 650.901, 794.527 651.646 C 792.564 652.994, 792.564 653, 794.527 652.994 C 798 652.985, 803.768 651.010, 806.170 649.008 C 809.040 646.617, 807.324 646.523, 801 648.725 M 971.500 648.395 C 965.912 650.157, 960.975 652.908, 963.307 652.960 C 966.687 653.035, 973.492 650.894, 976 648.966 C 978.923 646.719, 977.420 646.529, 971.500 648.395 M 414.500 649.401 C 411.750 650.078, 407.752 651.470, 405.615 652.494 C 402.054 654.201, 401.908 654.422, 403.865 655.146 C 406.893 656.266, 406.514 658.433, 402.750 661.522 C 400.608 663.281, 403.054 662.312, 409.927 658.680 C 416.743 655.079, 420.824 652.276, 421.709 650.586 C 423.313 647.524, 422.599 647.407, 414.500 649.401 M 479.084 652.665 C 476.655 654.121, 473.682 655.420, 472.477 655.552 C 471.272 655.684, 467.747 656.361, 464.643 657.055 L 459 658.318 459 663.159 C 459 665.822, 459.388 668, 459.862 668 C 460.335 668, 464.723 666.116, 469.612 663.813 C 475.756 660.919, 480.247 659.495, 484.158 659.200 C 489.167 658.822, 490.257 658.321, 493.658 654.838 L 497.500 650.902 492 653.933 C 488.975 655.600, 485.473 656.972, 484.219 656.982 C 481.193 657.006, 480.321 654.408, 482.534 651.963 C 484.858 649.395, 484.378 649.493, 479.084 652.665 M 850.706 653.105 C 849.659 653.714, 849.129 654.846, 849.433 655.824 C 850.472 659.164, 848.380 660.413, 841.059 660.827 C 835.456 661.143, 834 660.934, 834 659.813 C 834 659.036, 834.563 657.809, 835.250 657.088 C 837.099 655.146, 833.835 656.234, 817.500 663.005 C 793.314 673.030, 794.050 672.636, 792.468 676.422 C 791.244 679.352, 790.452 679.938, 787.262 680.271 C 783.671 680.646, 783.708 680.671, 788.083 680.832 C 790.604 680.924, 792.955 681.288, 793.307 681.640 C 793.659 681.992, 793.193 683.557, 792.272 685.117 C 790.993 687.282, 788.221 688.906, 780.548 691.982 C 775.022 694.197, 771.850 695.807, 773.500 695.558 C 775.150 695.309, 778.798 694.824, 781.608 694.479 C 788.799 693.596, 792.210 691.175, 795.219 684.818 C 798.455 677.984, 806.541 670.485, 815.350 666.149 C 824.374 661.706, 827.582 661.326, 834.428 663.887 C 837.534 665.049, 840.693 666, 841.448 666 C 842.203 666, 845.074 664.219, 847.828 662.042 C 851.786 658.913, 852.717 657.635, 852.274 655.940 C 851.941 654.665, 852.278 653.438, 853.107 652.913 C 855.077 651.665, 852.878 651.841, 850.706 653.105 M 1019.733 653.405 C 1018.600 654.264, 1018.210 655.382, 1018.645 656.518 C 1019.741 659.374, 1016.353 661, 1009.309 661 C 1002.585 661, 1002.440 660.916, 1004.035 657.934 C 1004.605 656.870, 1004.814 656, 1004.501 656 C 1003.652 656, 982.800 664.375, 972.533 668.840 C 967.602 670.985, 963.143 673.586, 962.626 674.620 C 962.108 675.654, 961.372 677.175, 960.990 678 C 960.608 678.825, 958.542 679.774, 956.398 680.108 L 952.500 680.716 957.191 680.858 C 962.858 681.030, 963.755 682.138, 961.156 685.757 C 959.724 687.749, 956.566 689.442, 949.617 691.941 C 944.355 693.834, 940.165 695.498, 940.306 695.639 C 941.096 696.429, 955.969 693.591, 958.500 692.168 C 960.375 691.114, 962.527 688.366, 964.239 684.843 C 967.756 677.602, 974.931 671.160, 985.204 666.018 C 994.346 661.442, 996.433 661.215, 1003.761 664.001 C 1006.654 665.100, 1009.635 666, 1010.385 666 C 1011.135 666, 1014.288 664.119, 1017.391 661.819 C 1021.309 658.917, 1022.646 657.398, 1021.767 656.850 C 1020.748 656.215, 1020.746 655.664, 1021.758 654.031 C 1023.196 651.712, 1022.320 651.441, 1019.733 653.405 M 704.701 655.535 C 703.711 656.894, 699.686 660.143, 695.755 662.753 C 688.140 667.811, 686.414 670, 690.039 670 C 691.886 670, 692.043 670.244, 691 671.500 C 690.007 672.697, 690.007 673.303, 691 674.500 C 692.927 676.821, 694.514 676.318, 698.084 672.252 C 700.721 669.248, 701.050 668.441, 699.740 668.188 C 698.841 668.015, 697.143 668.388, 695.967 669.018 C 692.768 670.729, 692.449 669.460, 695.348 666.561 C 697.531 664.378, 698.801 664, 703.955 664 C 707.567 664, 710 664.429, 710 665.066 C 710 667.458, 707.719 670.080, 703.478 672.566 C 698.622 675.411, 694.193 680.231, 695.908 680.803 C 696.487 680.996, 699.858 679.994, 703.401 678.577 C 710.831 675.604, 712.563 675.418, 713.365 677.509 C 714.516 680.508, 712.050 683.955, 706.519 687.076 C 703.465 688.800, 700.286 691.175, 699.454 692.355 C 698.057 694.336, 698.098 694.525, 699.994 694.823 C 702.900 695.279, 711.278 692.321, 713.841 689.933 C 718.012 686.048, 716.050 668.436, 710.257 657.750 C 708.841 655.138, 707.416 653.014, 707.091 653.031 C 706.766 653.049, 705.690 654.175, 704.701 655.535 M 387.849 659.881 C 383.848 662.418, 381.238 665.215, 378.543 669.850 C 377.143 672.258, 381.060 669.442, 388 663.052 C 395.063 656.548, 395.005 655.342, 387.849 659.881 M 533.032 659.250 C 533.009 661.245, 532.493 662, 531.155 662 C 530.140 662, 528.453 662.960, 527.405 664.133 C 525.508 666.256, 525.511 666.262, 528 665.506 C 531.727 664.374, 536 662.055, 536 661.165 C 536 660.735, 535.339 659.509, 534.532 658.441 C 533.126 656.582, 533.062 656.616, 533.032 659.250 M 685.186 659.449 C 681.713 660.739, 678.637 662.030, 678.349 662.317 C 678.062 662.605, 678.993 663.605, 680.419 664.539 C 683.595 666.620, 686.524 665.644, 692.500 660.511 C 696.295 657.251, 696.372 657.076, 694 657.090 C 692.625 657.098, 688.659 658.160, 685.186 659.449 M 857.150 660.006 C 854.868 661.660, 853 663.228, 853 663.492 C 853 663.755, 855.362 663.032, 858.250 661.883 C 861.138 660.735, 864.513 659.403, 865.750 658.923 C 868.935 657.687, 868.542 657, 864.650 657 C 862.513 657, 859.797 658.089, 857.150 660.006 M 1026.696 659.978 C 1024.113 661.616, 1022 663.184, 1022 663.463 C 1022 663.742, 1024.362 663.032, 1027.250 661.883 C 1030.138 660.735, 1033.513 659.403, 1034.750 658.923 C 1037.795 657.741, 1037.581 657, 1034.196 657 C 1032.653 657, 1029.278 658.340, 1026.696 659.978 M 807 659 C 806.175 659.533, 804.680 659.976, 803.679 659.985 C 802.677 659.993, 801.182 660.675, 800.357 661.500 C 798.276 663.581, 797 663.373, 797 660.953 C 797 659.061, 796.716 659.133, 793.250 661.913 C 789.179 665.178, 782.225 668, 778.252 668 C 776.041 668, 775.912 667.810, 777.128 666.338 C 777.882 665.424, 780.918 663.605, 783.874 662.296 C 786.830 660.987, 788.977 659.644, 788.645 659.312 C 787.262 657.928, 778.307 663.872, 774.812 668.493 C 771.378 673.035, 769.335 677.669, 770.330 678.663 C 770.565 678.898, 772.949 678.551, 775.628 677.892 C 778.863 677.097, 781.365 675.681, 783.073 673.678 C 784.893 671.545, 788.820 669.438, 796.496 666.479 C 804.457 663.410, 807.558 661.724, 808.141 660.148 C 809.046 657.701, 809.032 657.687, 807 659 M 976 659 C 975.175 659.533, 973.461 659.976, 972.191 659.985 C 970.909 659.993, 970.157 660.445, 970.500 661 C 970.840 661.550, 970.678 662, 970.141 662 C 969.603 662, 968.452 662.273, 967.582 662.607 C 966.544 663.005, 966 662.662, 966 661.607 C 966 659.439, 965.439 659.563, 961.435 662.617 C 957.629 665.520, 951.742 667.889, 948.167 667.956 C 944.282 668.029, 946.216 665.776, 953.075 662.236 C 957.311 660.049, 958.478 659.125, 956.500 659.523 C 952.318 660.364, 946.628 664.481, 943.636 668.830 C 940.825 672.917, 938.678 678.011, 939.443 678.777 C 940.678 680.011, 949.689 676.454, 952 673.820 C 953.633 671.959, 958.290 669.459, 965.433 666.608 C 973.301 663.468, 976.585 661.650, 977.150 660.122 C 978.045 657.703, 978.030 657.688, 976 659 M 369.500 660.507 C 367.850 661.246, 362.054 663.080, 356.620 664.583 L 346.740 667.314 350.120 669.115 C 354.513 671.456, 356.344 671.428, 363.805 668.908 C 369.807 666.881, 374 663.368, 374 660.365 C 374 658.731, 373.422 658.749, 369.500 660.507 M 413.500 661.882 C 407.753 663.963, 399.291 668.160, 393.607 671.748 C 391.451 673.109, 389.073 674.313, 388.323 674.423 C 387.573 674.533, 385.056 676.455, 382.730 678.695 C 377.935 683.310, 375.069 685, 372.034 685 C 368.863 685, 368.421 682.251, 371.123 679.325 L 373.500 676.752 371 677.485 C 362.032 680.118, 347 690.001, 347 693.265 C 347 694.642, 369.439 693.566, 374 691.970 C 375.925 691.297, 380.425 687.928, 384 684.485 C 387.575 681.042, 391.543 677.692, 392.817 677.041 C 394.091 676.391, 399.491 675.415, 404.817 674.873 C 417.494 673.583, 419 672.585, 419 665.477 C 419 662.465, 418.887 660.016, 418.750 660.036 C 418.613 660.056, 416.250 660.887, 413.500 661.882 M 519.075 662.281 C 516.092 663.501, 513.467 665.063, 513.242 665.750 C 512.543 667.888, 515.277 667.095, 521 663.500 C 527.352 659.510, 526.761 659.136, 519.075 662.281 M 866.769 667.494 C 863.616 669.972, 860.380 672, 859.578 672 C 858.775 672, 857.873 672.396, 857.575 672.879 C 856.805 674.124, 853 674.994, 853 673.926 C 853 673.438, 855.238 671.368, 857.973 669.326 C 860.708 667.284, 862.816 665.483, 862.656 665.323 C 862.158 664.825, 849 670.300, 849 671.005 C 849 671.373, 850.835 674.238, 853.079 677.370 L 857.157 683.066 860.329 681.138 C 869.053 675.835, 870.595 675.007, 871.750 675.004 C 874.071 674.997, 873.021 677.938, 870.177 679.408 C 868.625 680.211, 866.716 681.638, 865.935 682.578 C 864.644 684.134, 864.741 684.220, 867.008 683.537 C 868.379 683.124, 871.470 681.934, 873.877 680.893 C 876.285 679.852, 879.097 679, 880.127 679 C 883.474 679, 882.105 677.105, 877.949 675.986 C 874.472 675.050, 873.993 674.598, 874.565 672.797 C 875.126 671.029, 874.937 670.826, 873.365 671.511 C 870.600 672.716, 863.652 673.371, 864.276 672.368 C 864.572 671.890, 867.106 670.613, 869.907 669.530 C 875.448 667.386, 875.599 667.196, 873.750 664.686 C 872.615 663.144, 871.974 663.402, 866.769 667.494 M 1036 667.523 C 1032.975 669.937, 1029.989 671.931, 1029.364 671.956 C 1028.740 671.980, 1026.960 672.658, 1025.410 673.462 C 1021.700 675.387, 1020.837 674.367, 1024 671.796 C 1025.375 670.678, 1027.850 668.674, 1029.500 667.341 L 1032.500 664.918 1027 667.041 C 1023.975 668.208, 1020.687 669.411, 1019.693 669.713 C 1017.497 670.382, 1017.839 671.379, 1022.481 677.840 L 1026.100 682.878 1033.300 678.953 C 1037.260 676.794, 1040.838 675.022, 1041.250 675.014 C 1041.662 675.006, 1042 675.900, 1042 677 C 1042 678.100, 1041.438 679.002, 1040.750 679.005 C 1040.063 679.008, 1038.150 680.169, 1036.500 681.585 C 1034.850 683.002, 1034.175 683.964, 1035 683.723 C 1042.493 681.540, 1050.982 678.352, 1050.990 677.719 C 1051.001 676.883, 1050.121 676.523, 1045.693 675.550 C 1043.384 675.043, 1043.005 674.558, 1043.559 672.815 C 1044.126 671.028, 1043.940 670.824, 1042.365 671.511 C 1041.339 671.958, 1038.700 672.463, 1036.500 672.633 L 1032.500 672.942 1038.250 670.246 C 1041.412 668.763, 1044 667.287, 1044 666.966 C 1044 666.645, 1043.438 665.652, 1042.750 664.759 C 1041.633 663.309, 1040.913 663.604, 1036 667.523 M 529.863 669.470 C 529.604 669.729, 526.942 670.576, 523.946 671.352 C 519.547 672.493, 518.564 673.123, 518.834 674.632 C 519.426 677.949, 520.706 678.229, 524.720 675.919 C 527.179 674.504, 529.340 673.917, 530.481 674.354 C 532.235 675.027, 532.232 675.115, 530.403 676.583 C 528.585 678.042, 528.598 678.063, 530.684 677.055 C 534.977 674.982, 538 676.212, 538 680.031 C 538 680.508, 535.075 682.986, 531.500 685.537 C 527.925 688.088, 525 690.326, 525 690.511 C 525 690.695, 528.311 690.595, 532.358 690.289 C 540.709 689.658, 542.158 690.564, 538.417 694.078 C 536.506 695.873, 535.703 696.138, 535.104 695.169 C 534.531 694.241, 532.874 694.080, 529.075 694.584 C 524.878 695.141, 522.820 696.147, 518.728 699.640 C 513.771 703.871, 511 705.070, 511 702.983 C 511 702.424, 508.705 703.129, 505.901 704.550 C 500.241 707.418, 499.852 708.477, 504.999 707 C 506.851 706.469, 509.989 706.294, 511.972 706.612 C 514.833 707.069, 517.461 706.341, 524.672 703.094 C 534.032 698.880, 535.537 698.557, 540.875 699.625 C 545.139 700.478, 545.205 704.175, 541 706.659 C 537.328 708.828, 537.233 709.620, 540.572 710.259 C 542.614 710.649, 543.336 710.247, 544.072 708.310 C 545.417 704.772, 545.205 695.813, 543.532 685.500 C 541.685 674.117, 540.135 669.465, 538.676 670.924 C 538.084 671.516, 536.067 672, 534.193 672 C 531.575 672, 530.919 671.652, 531.362 670.500 C 531.900 669.098, 530.913 668.420, 529.863 669.470 M 627 671.736 C 626.175 672.054, 623.707 673.441, 621.516 674.817 C 619.325 676.194, 615.080 677.811, 612.082 678.410 C 607.274 679.372, 606.530 679.853, 605.758 682.500 C 604.879 685.513, 605.459 700.539, 606.618 704.758 C 607.191 706.848, 607.443 706.693, 609.985 702.685 C 611.557 700.206, 614.088 697.792, 615.904 697.040 C 617.649 696.317, 619.525 694.887, 620.073 693.863 C 621.194 691.770, 620.412 691.527, 616.815 692.854 C 611.275 694.896, 609 695.080, 609 693.484 C 609 690.687, 612.127 687.065, 620.379 680.303 C 631.742 670.991, 631.751 670.983, 629.964 671.079 C 629.159 671.122, 627.825 671.418, 627 671.736 M 815.946 674.832 C 810.863 678.070, 804.923 684.349, 802.363 689.190 C 800.434 692.837, 799.292 699.263, 798.367 711.662 C 797.300 725.972, 802.379 736.649, 813.036 742.500 C 817.990 745.220, 819.340 745.496, 827.500 745.459 C 835.287 745.423, 837.290 745.036, 842.358 742.585 C 845.701 740.969, 847.736 739.455, 847.098 739.060 C 846.362 738.606, 846.829 737.570, 848.460 736.037 C 852.288 732.441, 853.486 727.587, 853.406 716 C 853.322 703.828, 851.304 694.246, 846.939 685.288 C 842.995 677.194, 839.865 674.678, 834.805 675.533 C 831.914 676.021, 830.216 675.679, 827.640 674.087 C 823.177 671.328, 821.254 671.451, 815.946 674.832 M 987.355 673.447 C 979.113 677.033, 969.869 689.071, 969.393 696.838 C 969.236 699.402, 968.633 703.072, 968.053 704.993 C 963.964 718.555, 970.409 735.806, 982.027 742.396 C 987.029 745.233, 988.275 745.500, 996.500 745.500 C 1004.239 745.500, 1006.327 745.113, 1011.402 742.736 C 1014.649 741.215, 1017.024 739.691, 1016.682 739.348 C 1016.339 739.006, 1017 737.405, 1018.149 735.790 C 1019.299 734.176, 1020.860 730.791, 1021.620 728.269 C 1025.858 714.185, 1019.532 684.833, 1010.647 677.357 C 1008.200 675.297, 1007.047 674.985, 1003.872 675.522 C 1000.887 676.026, 999.401 675.710, 997.118 674.084 C 993.735 671.675, 991.728 671.544, 987.355 673.447 M 358 677 C 357.175 677.533, 355.330 677.976, 353.899 677.985 C 350.871 678.003, 344.993 679.897, 345.015 680.848 C 345.024 681.207, 345.426 682.124, 345.908 682.886 C 346.614 684, 348.228 683.465, 354.143 680.160 C 358.189 677.898, 361.050 676.044, 360.500 676.039 C 359.950 676.035, 358.825 676.467, 358 677 M 525.003 683.596 C 521.429 684.970, 518.084 686.516, 517.570 687.030 C 514.134 690.466, 524.870 687.312, 529.500 683.525 C 533.197 680.502, 533.043 680.505, 525.003 683.596 M 701.013 682.801 C 699.095 683.739, 697.375 685.292, 697.190 686.253 C 696.700 688.794, 697.993 688.362, 702.500 684.477 C 706.877 680.705, 706.400 680.167, 701.013 682.801 M 772.799 682.586 C 770.214 683.381, 767.833 684.461, 767.509 684.986 C 767.184 685.511, 768.850 685.247, 771.210 684.399 C 773.569 683.552, 777.300 682.490, 779.500 682.039 C 782.940 681.334, 783.080 681.214, 780.500 681.179 C 778.850 681.157, 775.385 681.790, 772.799 682.586 M 944.466 681.932 C 942.797 682.332, 940.547 683.207, 939.466 683.877 C 937.675 684.987, 937.723 685.031, 940 684.374 C 941.375 683.977, 944.750 683.094, 947.500 682.411 C 950.250 681.729, 951.375 681.178, 950 681.187 C 948.625 681.197, 946.135 681.532, 944.466 681.932 M 875.500 687.068 C 871.100 689.258, 866.375 692.181, 865 693.564 C 862.646 695.933, 862.945 695.875, 870.111 692.574 C 874.297 690.646, 879.609 688.766, 881.915 688.398 C 885.006 687.903, 885.963 687.347, 885.555 686.282 C 885.250 685.487, 885 684.423, 885 683.918 C 885 682.496, 884.072 682.803, 875.500 687.068 M 1044.074 687.483 C 1039.440 689.916, 1034.715 692.860, 1033.574 694.025 C 1031.687 695.952, 1032.041 695.899, 1037.500 693.440 C 1046.252 689.495, 1050.215 688.093, 1052.750 688.044 C 1053.987 688.020, 1055 687.587, 1055 687.082 C 1055 685.555, 1053.829 682.998, 1053.143 683.029 C 1052.789 683.045, 1048.708 685.049, 1044.074 687.483 M 768.617 689.987 C 765.381 691.020, 762.254 692.346, 761.667 692.933 C 759.930 694.670, 762.118 694.217, 769.078 691.400 C 778.821 687.456, 778.606 686.796, 768.617 689.987 M 937.062 690.285 C 933.521 691.503, 930.449 693.051, 930.237 693.724 C 930.010 694.444, 932.843 693.714, 937.112 691.954 C 948.089 687.427, 948.061 686.502, 937.062 690.285 M 492.500 694.861 C 488.954 697.051, 485.244 701, 486.733 701 C 487.306 701, 490.687 699.637, 494.246 697.972 C 497.805 696.307, 502.693 694.556, 505.108 694.082 C 509.353 693.248, 509.266 693.216, 502.500 693.113 C 497.292 693.035, 494.732 693.482, 492.500 694.861 M 869.750 696.711 C 865.487 698.674, 862 700.892, 862 701.640 C 862 702.388, 862.247 703, 862.550 703 C 864.138 703, 873.196 697.411, 877.450 693.805 C 878.919 692.560, 878.071 692.880, 869.750 696.711 M 707.711 695.569 C 698.665 697.760, 698 698.330, 698 703.892 L 698 708.714 702.750 704.083 C 705.362 701.536, 709.075 698.247, 711 696.773 C 712.925 695.300, 714.275 694.110, 714 694.130 C 713.725 694.150, 710.895 694.798, 707.711 695.569 M 882.885 695.817 C 881.573 696.817, 877.800 699.346, 874.500 701.437 C 871.200 703.529, 869.175 705.027, 870 704.767 C 886.301 699.622, 888 698.834, 888 696.418 C 888 693.527, 886.172 693.312, 882.885 695.817 M 1038.371 696.974 C 1032.532 699.666, 1030.200 701.534, 1031.303 702.636 C 1031.959 703.293, 1038.565 699.855, 1042.944 696.578 C 1047.314 693.307, 1046.094 693.413, 1038.371 696.974 M 1046 699.735 C 1041.325 702.781, 1038.175 705.053, 1039 704.783 C 1056.916 698.932, 1057 698.893, 1057 696.418 C 1057 695.088, 1056.438 694.044, 1055.750 694.098 C 1055.063 694.152, 1050.675 696.688, 1046 699.735 M 361.500 697.512 C 356 698.814, 350.541 699.907, 349.370 699.940 C 347.368 699.996, 347.199 700.674, 346.567 711.250 C 346.164 717.999, 346.316 724.655, 346.947 727.886 C 347.526 730.849, 348 733.443, 348 733.650 C 348 734.410, 355.192 730.995, 357.631 729.076 L 360.144 727.099 354.322 727.299 C 345.424 727.606, 346.233 725.183, 357.927 716.500 L 367.354 709.500 358.177 709.212 C 352.854 709.046, 349 708.501, 349 707.915 C 349 707.359, 350.125 705.862, 351.500 704.588 C 352.875 703.313, 354 701.824, 354 701.278 C 354 700.732, 356.731 700, 360.068 699.651 C 363.405 699.302, 368.018 698.151, 370.318 697.092 C 375.862 694.542, 373.587 694.650, 361.500 697.512 M 768.450 698.991 C 765.673 699.399, 762.443 700.331, 761.272 701.062 C 759.261 702.318, 757 705.996, 757 708.011 C 757 708.516, 763.053 706.820, 770.452 704.244 C 786.604 698.618, 785.776 696.447, 768.450 698.991 M 938.239 699.017 C 932.056 699.919, 928.283 702.126, 926.955 705.617 C 926.430 706.999, 926 708.309, 926 708.528 C 926 708.746, 932.051 706.836, 939.447 704.282 C 946.843 701.728, 952.667 699.270, 952.388 698.819 C 951.792 697.854, 945.622 697.940, 938.239 699.017 M 709.881 703.413 C 704.903 707.320, 698.931 714, 700.415 714 C 700.719 714, 704.349 712.326, 708.483 710.281 C 715.858 706.632, 716 706.490, 716 702.781 C 716 700.701, 715.888 699, 715.750 699.001 C 715.612 699.001, 712.971 700.986, 709.881 703.413 M 368.503 701.757 C 364.704 703.329, 364.629 703.441, 367.003 704.014 C 370.716 704.912, 375.439 703.677, 375.817 701.710 C 376.235 699.539, 373.825 699.555, 368.503 701.757 M 491.770 704.648 C 488.068 706.623, 482.609 710.365, 479.639 712.964 C 476.669 715.563, 472.497 718.766, 470.369 720.081 C 467.331 721.959, 466.897 722.549, 468.349 722.829 C 469.366 723.024, 471.391 722.047, 472.849 720.656 C 476.473 717.199, 481.065 715.499, 482.152 717.211 C 483.385 719.155, 483.384 719.155, 476.463 724.270 C 471.113 728.224, 469.538 728.923, 467.255 728.354 C 464.849 727.755, 464.662 727.865, 465.777 729.219 C 466.860 730.534, 466.556 731.085, 463.777 732.844 L 460.501 734.918 464.174 734.683 C 466.194 734.554, 468.669 733.741, 469.674 732.876 C 472.383 730.544, 475 729.821, 475 731.404 C 475 733.173, 467.827 739.673, 461.250 743.863 C 458.363 745.703, 456 747.423, 456 747.686 C 456 747.948, 457.516 747.226, 459.368 746.082 C 463.369 743.609, 464 743.526, 464 745.473 C 464 746.282, 461.413 748.655, 458.250 750.745 C 454.583 753.168, 452.384 755.352, 452.180 756.772 C 451.820 759.285, 453.746 759.824, 454.652 757.464 C 454.976 756.620, 458.182 753.831, 461.776 751.266 C 465.369 748.702, 467.790 746.430, 467.155 746.218 C 465.294 745.598, 465.806 744.546, 468.840 742.754 C 470.659 741.679, 473.425 737.791, 476.535 731.934 C 480.176 725.077, 482.674 721.746, 486.529 718.606 C 490.874 715.066, 491.500 714.145, 490.584 712.636 C 489.672 711.135, 490.345 710.070, 494.820 705.926 C 497.746 703.217, 499.771 701.013, 499.320 701.029 C 498.869 701.045, 495.471 702.674, 491.770 704.648 M 472.900 704.412 C 464.284 707.993, 457.629 712.153, 459.080 713.049 C 460.936 714.197, 458.343 719.756, 455.178 721.415 L 452.632 722.749 454.889 723.465 C 456.664 724.028, 458.462 723.155, 463.323 719.367 C 466.720 716.719, 471.455 712.403, 473.844 709.775 C 476.233 707.148, 478.544 705.218, 478.980 705.488 C 479.416 705.757, 480.007 705.083, 480.293 703.989 C 480.954 701.458, 479.856 701.521, 472.900 704.412 M 612.750 706.744 C 608.112 711.455, 607.365 713.521, 608.890 717.411 C 609.575 719.158, 609.996 718.998, 613.819 715.544 C 618.697 711.138, 619.252 709.301, 615.050 711.474 C 611.309 713.409, 610 713.402, 610 711.449 C 610 710.596, 611.640 709.213, 613.645 708.375 C 616.641 707.123, 617.440 707.088, 618.130 708.176 C 619.155 709.793, 619.165 707.784, 618.150 704.210 C 617.529 702.021, 617.291 702.132, 612.750 706.744 M 880.750 710.054 C 876.487 713.381, 873 716.288, 873 716.516 C 873 716.743, 875.137 716.013, 877.749 714.893 C 883.347 712.494, 888.553 708.704, 890.022 705.959 C 891.937 702.381, 888.817 703.759, 880.750 710.054 M 1049.972 710.087 C 1040.711 717.632, 1040.994 717.333, 1044.278 716.084 C 1051.001 713.528, 1060 707.125, 1060 704.896 C 1060 702.811, 1056.993 704.367, 1049.972 710.087 M 527.402 708.394 C 524.597 709.699, 522.024 711.495, 521.683 712.384 C 520.861 714.525, 521.509 714.423, 524.968 711.865 C 526.556 710.691, 528.529 709.989, 529.352 710.305 C 530.265 710.655, 531.473 709.927, 532.448 708.440 C 534.429 705.416, 533.809 705.410, 527.402 708.394 M 869.379 709.762 L 862.258 712.387 860.553 720.317 C 859.068 727.231, 858.256 728.903, 854.214 733.373 L 849.578 738.500 854.932 733.500 C 857.877 730.750, 860.002 729.311, 859.655 730.302 C 858.919 732.401, 859.741 732.032, 865.134 727.840 C 867.132 726.287, 870.732 723.893, 873.134 722.520 C 878.426 719.495, 878.023 719.412, 870.539 721.987 C 864.335 724.121, 863 723.946, 863 720.996 C 863 719.338, 866.306 716.053, 875 709.073 C 878.127 706.563, 878.026 706.575, 869.379 709.762 M 1038.529 709.848 C 1031.908 712.434, 1031.515 712.769, 1030.685 716.535 C 1028.462 726.630, 1027.639 728.479, 1023.195 733.368 C 1018.778 738.227, 1021.631 736.337, 1026.769 731 C 1028.499 729.203, 1029.019 728.992, 1028.619 730.250 C 1028.313 731.212, 1028.246 732, 1028.471 732 C 1028.695 732, 1032.328 729.525, 1036.544 726.500 C 1040.761 723.475, 1044.688 721, 1045.272 721 C 1045.856 721, 1046.107 720.774, 1045.831 720.497 C 1045.554 720.221, 1042.727 720.890, 1039.547 721.984 C 1036.367 723.078, 1033.368 723.728, 1032.883 723.427 C 1029.970 721.627, 1033.616 716.825, 1042.947 710.171 C 1048.309 706.348, 1047.621 706.297, 1038.529 709.848 M 772.605 711.558 C 763.431 713.380, 756.598 716.805, 756.175 719.795 C 755.850 722.085, 755.858 722.086, 759.675 720.445 C 761.779 719.540, 766.445 717.778, 770.044 716.530 C 773.643 715.281, 778.368 713.321, 780.544 712.174 C 783.983 710.361, 784.173 710.095, 782 710.138 C 780.625 710.166, 776.397 710.804, 772.605 711.558 M 941.963 711.492 C 931.191 713.640, 925 716.993, 925 720.678 C 925 721.755, 925.523 721.994, 926.750 721.477 C 927.712 721.072, 933.225 718.930, 939 716.718 C 944.775 714.505, 950.388 712.089, 951.473 711.347 C 953.370 710.051, 953.351 710.004, 950.973 710.094 C 949.613 710.146, 945.558 710.775, 941.963 711.492 M 367.643 715.500 L 361.786 719.867 365.643 720.183 C 369.324 720.486, 369.500 720.660, 369.500 724 C 369.500 727.301, 369.057 727.766, 361.696 732.179 L 353.892 736.858 363.696 736.679 C 372.865 736.512, 373.519 736.632, 373.792 738.537 C 374.154 741.065, 370.994 744.087, 364.632 747.295 L 359.764 749.750 366.882 749.241 C 373.929 748.736, 374 748.756, 374 751.211 C 374 754.148, 372.231 755.854, 365.500 759.410 C 360.735 761.927, 360.664 762.022, 364 761.440 C 365.925 761.104, 369.134 760.362, 371.131 759.792 C 374.466 758.839, 374.812 758.387, 375.381 754.238 C 376.181 748.401, 376.164 719.627, 375.358 714.750 C 375.017 712.688, 374.460 711.030, 374.119 711.066 C 373.779 711.103, 370.864 713.098, 367.643 715.500 M 708 714.111 C 704.975 715.192, 701.762 715.889, 700.861 715.661 C 699.637 715.350, 699.070 716.164, 698.622 718.873 C 697.827 723.680, 697.836 737.930, 698.637 741.933 L 699.273 745.116 701.607 741.202 C 702.891 739.050, 706.441 735.360, 709.496 733.003 C 712.551 730.646, 714.885 728.551, 714.681 728.348 C 714.478 728.145, 712.372 728.663, 710 729.500 C 702.254 732.233, 703.505 728.993, 711.573 725.425 C 716.320 723.326, 719.994 719.661, 718.674 718.341 C 717.898 717.564, 711.931 720.933, 706.581 725.168 C 703.573 727.548, 701.303 728.703, 700.738 728.138 C 699.107 726.507, 701.658 723.502, 707.180 720.552 C 713.562 717.141, 716 715.150, 716 713.345 C 716 711.600, 714.674 711.727, 708 714.111 M 505.764 713.978 C 501.184 715.387, 496.311 718.860, 491.668 724.025 C 483.116 733.536, 480.526 744.012, 485.342 749.611 C 487.406 752.011, 488.382 752.330, 493.592 752.304 C 501.910 752.263, 507.826 750.374, 511.667 746.533 L 514.954 743.246 514.895 730.775 C 514.817 714.203, 513.414 711.623, 505.764 713.978 M 785.500 715.557 C 783.850 716.343, 778.462 718.418, 773.526 720.169 C 763.500 723.724, 763.618 724.751, 773.853 723.025 C 781.228 721.781, 786.227 719.312, 787.971 716.054 C 788.576 714.924, 788.942 714.029, 788.785 714.064 C 788.628 714.099, 787.150 714.771, 785.500 715.557 M 530.806 716.399 C 528.224 717.094, 525.411 718.244, 524.556 718.954 C 522.942 720.293, 522.355 727.483, 523.787 728.368 C 524.671 728.915, 537 717.266, 537 715.885 C 537 714.796, 536.654 714.824, 530.806 716.399 M 889.034 717.624 C 885.309 720.759, 885.595 721.354, 890.398 720.453 C 893.340 719.901, 894 719.340, 894 717.389 C 894 714.324, 892.895 714.376, 889.034 717.624 M 953.500 716.051 C 952.400 716.554, 947.462 718.403, 942.526 720.159 C 932.539 723.712, 932.638 724.791, 942.788 723.024 C 950.639 721.657, 955.667 719.490, 957.070 716.870 C 958.195 714.766, 956.937 714.478, 953.500 716.051 M 1058.049 718.194 L 1054.599 721.330 1057.924 720.665 C 1059.753 720.299, 1061.644 720, 1062.125 720 C 1062.606 720, 1063 718.875, 1063 717.500 C 1063 714.274, 1062.247 714.380, 1058.049 718.194 M 615.500 718.827 C 613.850 720.350, 611.865 722.382, 611.090 723.343 C 609.765 724.985, 609.855 725.003, 612.590 723.630 C 614.190 722.826, 616.737 721.690, 618.250 721.106 C 619.992 720.432, 621 719.302, 621 718.021 C 621 715.250, 619.069 715.533, 615.500 718.827 M 538.320 720.750 C 537.980 721.712, 536.792 723.511, 535.680 724.746 C 532.936 727.795, 534.275 728.716, 538.513 726.695 C 541.357 725.339, 542 724.477, 542 722.016 C 542 718.648, 539.380 717.746, 538.320 720.750 M 890.500 725.968 C 888.300 727.495, 881.212 731.542, 874.750 734.961 C 868.288 738.380, 863 741.342, 863 741.544 C 863 743.134, 893.007 729.855, 894.122 727.772 C 896.222 723.849, 894.668 723.075, 890.500 725.968 M 1059.765 726.039 C 1057.711 727.537, 1050.607 731.574, 1043.979 735.011 C 1037.350 738.448, 1032.107 741.440, 1032.328 741.661 C 1032.968 742.301, 1061.140 730.288, 1062.732 728.697 C 1063.524 727.904, 1064.021 726.369, 1063.836 725.286 C 1063.519 723.424, 1063.293 723.466, 1059.765 726.039 M 614.500 725.326 C 608.567 726.572, 608.035 727.184, 608.015 732.785 C 608.002 736.570, 608.206 736.960, 609.762 736.127 C 614.745 733.460, 623.407 723.558, 620.250 724.138 C 619.837 724.213, 617.250 724.748, 614.500 725.326 M 771.364 726.483 C 760.515 729.243, 757.320 730.720, 758.861 732.261 C 760.229 733.629, 765.137 732.212, 775.127 727.562 C 783.823 723.515, 783.449 723.408, 771.364 726.483 M 938.271 727.039 C 934.295 728.066, 930.120 729.400, 928.993 730.004 C 926.651 731.257, 927.219 733, 929.970 733 C 931.625 733, 947.791 726.542, 948.892 725.442 C 949.786 724.547, 945.308 725.221, 938.271 727.039 M 780 729.692 L 771.500 733.053 777.500 732.429 C 784.025 731.750, 790 729.686, 790 728.110 C 790 726.129, 788.347 726.390, 780 729.692 M 950.500 729.062 C 940.947 732.957, 940.806 733.076, 946.500 732.434 C 955.333 731.439, 959 730.127, 959 727.961 C 959 725.564, 959.116 725.549, 950.500 729.062 M 450.248 731.356 C 447.884 736.544, 448.875 738.329, 452.559 735.519 C 453.900 734.496, 454.150 733.800, 453.366 733.269 C 452.742 732.846, 452.066 731.626, 451.863 730.559 C 451.545 728.881, 451.326 728.989, 450.248 731.356 M 617.079 734.533 C 614.655 736.715, 611.396 740.255, 609.836 742.400 C 607.049 746.233, 607 746.537, 607 759.998 L 607 773.696 612.250 768.570 C 615.138 765.751, 619.075 762.254, 621 760.801 L 624.500 758.157 620.118 759.113 C 617.708 759.639, 615.465 759.798, 615.133 759.466 C 614.332 758.665, 618.909 755.153, 621.750 754.389 C 623.295 753.973, 624 753.027, 624 751.370 C 624 749.130, 623.512 749.359, 617.250 754.531 C 611.980 758.884, 610.424 759.739, 610.153 758.428 C 609.944 757.419, 612.236 754.298, 615.903 750.598 C 619.318 747.152, 621.985 743.578, 621.967 742.473 C 621.934 740.552, 621.888 740.555, 620.187 742.589 C 618.060 745.133, 610 746.600, 610 744.444 C 610 742.420, 613.863 739.189, 617.143 738.468 C 620.211 737.795, 622.331 734.958, 621.806 732.231 C 621.553 730.918, 620.554 731.405, 617.079 734.533 M 528.500 732.892 C 525.224 733.390, 524.437 733.944, 524.154 735.952 C 523.857 738.060, 524.024 738.225, 525.347 737.127 C 526.193 736.425, 529.049 735.005, 531.693 733.972 C 536.564 732.068, 535.743 731.791, 528.500 732.892 M 709.024 739.475 C 706.050 742.487, 703.915 745.248, 704.278 745.611 C 704.642 745.975, 707.315 745.421, 710.220 744.380 C 715.369 742.534, 715.508 742.382, 715.807 738.244 C 715.977 735.910, 715.736 734, 715.273 734 C 714.810 734, 711.998 736.464, 709.024 739.475 M 776.909 735.554 C 767.435 737.269, 763.711 738.656, 764.278 740.256 C 764.954 742.166, 768.666 741.484, 778.500 737.641 C 788.384 733.779, 788.182 733.513, 776.909 735.554 M 951 734.660 C 945.424 735.524, 933.896 738.359, 933.527 738.956 C 933.310 739.308, 933.512 740.210, 933.976 740.962 C 934.661 742.070, 936.825 741.614, 945.410 738.555 C 957.670 734.188, 958.706 733.466, 951 734.660 M 1028.255 737.030 C 1024.920 738.697, 1021.936 740.723, 1021.626 741.533 C 1021.076 742.967, 1027.285 739.859, 1033.076 735.802 C 1036.769 733.216, 1034.972 733.674, 1028.255 737.030 M 860.145 736.070 C 856.869 737.382, 852 740.952, 852 742.042 C 852 742.897, 861.410 737.855, 863.450 735.907 C 864.663 734.749, 863.272 734.817, 860.145 736.070 M 786.500 740.103 C 783.200 741.159, 779.762 741.848, 778.861 741.634 C 777.959 741.420, 776.609 741.633, 775.861 742.107 C 774.994 742.657, 776.339 742.975, 779.568 742.985 C 785.480 743.003, 795.327 740.338, 794.471 738.952 C 793.742 737.774, 793.806 737.764, 786.500 740.103 M 876 739.865 C 873.525 740.839, 867.874 743.732, 863.443 746.294 C 851.579 753.153, 842.774 755.821, 841.785 752.856 C 841.350 751.550, 835.136 753.196, 831.222 755.653 C 829.969 756.440, 828.619 756.887, 828.222 756.647 C 827.825 756.407, 825.025 755.498, 822 754.627 C 817.323 753.280, 816.791 753.264, 818.441 754.522 C 819.509 755.335, 821.309 756.007, 822.441 756.015 C 827.390 756.052, 827.375 757.770, 822.403 760.357 C 816.480 763.438, 818.023 763.615, 828 761 C 837.493 758.512, 838.001 758.525, 837.995 761.250 C 837.991 762.874, 836.948 763.979, 834.245 765.222 L 830.500 766.945 834 766.381 C 839.711 765.462, 847.466 761.509, 860.867 752.687 C 867.815 748.112, 875.750 742.941, 878.500 741.196 C 884.014 737.698, 882.948 737.130, 876 739.865 M 886.500 741.254 C 879.583 745.562, 863 757.062, 863 757.550 C 863 758.144, 867.194 756.442, 873.075 753.462 C 876.990 751.478, 878.464 751.133, 879.040 752.065 C 879.614 752.993, 880.918 752.652, 884.233 750.710 C 889.453 747.650, 890.451 746.558, 892.492 741.673 C 894.418 737.064, 893.347 736.989, 886.500 741.254 M 958 739.628 C 955.525 740.391, 951.250 741.409, 948.500 741.891 L 943.500 742.766 948.307 742.883 C 953.205 743.002, 961.823 741.336, 963.337 739.977 C 965.034 738.454, 962.373 738.280, 958 739.628 M 1045.500 739.937 C 1042.750 740.963, 1036.054 744.292, 1030.619 747.335 C 1020.231 753.153, 1013.366 755.210, 1011.955 752.927 C 1011.306 751.878, 1010.348 751.873, 1006.829 752.905 C 1004.448 753.602, 1001.475 754.828, 1000.222 755.628 C 998.969 756.428, 997.619 756.887, 997.222 756.647 C 996.825 756.407, 994.025 755.498, 991 754.627 C 986.323 753.280, 985.791 753.264, 987.441 754.522 C 988.509 755.335, 990.309 756.007, 991.441 756.015 C 996.167 756.050, 996.325 757.692, 991.861 760.368 C 986.591 763.526, 986.955 763.565, 997.217 760.944 C 1001.645 759.814, 1005.883 759.125, 1006.634 759.413 C 1009.310 760.440, 1007.947 763.107, 1003.750 765.053 L 999.500 767.025 1003.291 766.459 C 1005.375 766.149, 1008.975 765.077, 1011.291 764.079 C 1015.855 762.110, 1053.103 737.977, 1051.485 738.036 C 1050.943 738.056, 1048.250 738.911, 1045.500 739.937 M 1055.674 741.437 C 1048.973 745.472, 1031 757.911, 1031 758.513 C 1031 758.741, 1034.687 757.145, 1039.192 754.966 C 1044.574 752.364, 1047.615 751.378, 1048.057 752.092 C 1049.519 754.458, 1062 745.429, 1062 742.005 C 1062 741.542, 1062.273 740.452, 1062.607 739.582 C 1063.511 737.225, 1061.995 737.631, 1055.674 741.437 M 356.506 740.892 C 348.197 742.563, 346.301 744.248, 349.029 747.535 C 350.046 748.760, 351.206 748.434, 356.861 745.330 C 367.926 739.259, 367.873 738.604, 356.506 740.892 M 534.584 741.118 C 525.288 743.365, 524 744.232, 524 748.247 C 524 751.074, 524.182 751.214, 527.113 750.627 C 530.294 749.991, 538.034 744.830, 541.423 741.085 C 542.461 739.938, 543.128 739.046, 542.905 739.103 C 542.682 739.159, 538.938 740.066, 534.584 741.118 M 542.024 744.471 C 541.221 745.439, 541.581 745.612, 543.598 745.226 C 548.839 744.224, 549.777 750.753, 544.750 753.255 C 541.950 754.648, 541.809 754.881, 543.731 754.936 C 546.846 755.025, 547.967 759.543, 545.371 761.546 C 544.342 762.340, 546.764 761.574, 550.754 759.844 L 558.008 756.699 554.076 753.333 C 551.914 751.482, 549.664 748.513, 549.076 746.734 C 548.280 744.324, 547.379 743.464, 545.537 743.358 C 544.178 743.280, 542.597 743.780, 542.024 744.471 M 782.500 746.570 C 779.750 747.335, 776.150 747.977, 774.500 747.996 C 770.483 748.042, 768.774 749.248, 769.616 751.442 C 770.596 753.995, 775.837 753.067, 785.032 748.711 C 793.015 744.930, 791.871 743.963, 782.500 746.570 M 950 746.742 C 945.875 747.546, 941.478 748.394, 940.228 748.627 C 938.262 748.992, 938.107 749.331, 939.075 751.140 C 940.571 753.935, 944.949 753.215, 954.390 748.620 C 962.145 744.846, 961.386 744.521, 950 746.742 M 708.043 748.598 C 701.479 750.363, 699.334 752.137, 698.011 756.900 C 696.952 760.712, 696.629 769, 697.539 769 C 697.836 769, 700.418 767.425, 703.276 765.500 C 706.135 763.575, 708.972 762, 709.582 762 C 710.858 762, 714.537 758.204, 713.889 757.556 C 713.651 757.318, 710.317 758.187, 706.478 759.486 C 702.640 760.786, 699.210 761.545, 698.854 761.174 C 697.107 759.349, 700.414 755.817, 706.955 752.523 C 710.830 750.571, 714 748.531, 714 747.987 C 714 747.444, 713.888 747.030, 713.750 747.066 C 713.612 747.102, 711.044 747.792, 708.043 748.598 M 467.041 752.058 C 462.212 756.234, 462.270 758.529, 467.133 755.738 C 470.090 754.042, 470.132 754.049, 469.819 756.193 C 469.616 757.578, 467.679 759.437, 464.500 761.297 C 456.930 765.727, 455.774 769.028, 461.138 770.898 C 463.781 771.820, 464.799 771.669, 467.590 769.945 C 471.382 767.601, 477 760.422, 477 757.920 C 477 756.992, 476.082 755.993, 474.960 755.700 C 473.378 755.286, 473.056 754.627, 473.524 752.759 C 473.887 751.314, 473.603 749.922, 472.814 749.277 C 471.822 748.465, 470.408 749.146, 467.041 752.058 M 512.314 753.674 C 508.943 755.414, 504.236 759.746, 502.765 762.463 C 501.717 764.397, 501.744 764.398, 504.601 762.560 C 506.195 761.534, 509.180 759.382, 511.232 757.777 C 514.988 754.842, 517 754.802, 517 757.665 C 517 759.392, 515.191 760.974, 503.871 769.152 C 499.358 772.411, 496.593 775.013, 497.337 775.299 C 499.558 776.151, 509.172 773.946, 514.080 771.459 C 516.664 770.150, 520.908 766.586, 523.510 763.539 C 526.113 760.493, 528.863 758, 529.621 758 C 530.380 758, 531 757.581, 531 757.070 C 531 756.496, 529.757 756.496, 527.757 757.070 C 525.973 757.581, 523.273 758, 521.757 758 C 519.519 758, 519 757.551, 519 755.617 C 519 752.580, 516.077 751.731, 512.314 753.674 M 1052.620 755.989 C 1049.936 757.515, 1043.411 760.234, 1038.120 762.031 C 1032.829 763.828, 1027.825 765.860, 1027 766.546 C 1026.175 767.232, 1021.030 769.873, 1015.567 772.414 C 1003.903 777.840, 1003.612 779.923, 1014.933 776.951 C 1019.021 775.878, 1023.010 775, 1023.799 775 C 1024.588 775, 1030.069 772.959, 1035.978 770.465 C 1047.095 765.772, 1053.960 760.913, 1056.552 755.900 C 1057.377 754.305, 1057.927 753.048, 1057.776 753.107 C 1057.624 753.166, 1055.304 754.463, 1052.620 755.989 M 792 755.152 C 789.525 755.668, 785.113 756.556, 782.196 757.127 C 777.835 757.980, 777.097 758.412, 778.046 759.556 C 778.681 760.321, 780.699 761.228, 782.529 761.571 C 785.277 762.087, 787.047 761.482, 792.679 758.103 C 799.720 753.879, 799.646 753.559, 792 755.152 M 881 757.089 C 877.975 758.624, 871.978 761.049, 867.672 762.477 C 863.367 763.906, 858.192 766.127, 856.172 767.413 C 854.153 768.699, 849.994 770.756, 846.932 771.984 C 841.142 774.306, 836.170 777.503, 837.023 778.356 C 838.005 779.338, 855.743 774.637, 865.850 770.715 C 875.986 766.783, 884.819 761.074, 886.961 757.074 C 889.014 753.237, 888.589 753.238, 881 757.089 M 957 755.949 C 945.039 758.361, 944.965 758.400, 948.700 760.339 C 953.171 762.660, 954.342 762.480, 961.332 758.398 C 970.286 753.168, 970.417 753.243, 957 755.949 M 354.025 756.379 C 348.682 757.506, 348.533 757.630, 347.881 761.517 C 347.513 763.708, 347.052 768.875, 346.856 773 L 346.500 780.500 350 782.209 C 354.013 784.169, 368.020 785.594, 373.380 784.588 L 377 783.909 377 776.423 C 377 770.801, 376.638 768.798, 375.548 768.380 C 373.112 767.445, 371.898 768.864, 373.263 771.050 C 376.002 775.436, 371.329 777.434, 353.148 779.649 C 348.254 780.245, 347.826 780.138, 348.148 778.400 C 348.377 777.164, 351.422 775.046, 356.860 772.340 C 368.890 766.354, 369.061 765.830, 358.723 766.625 C 352.184 767.127, 350 766.991, 350 766.082 C 350 763.567, 352.098 761.132, 356.477 758.566 C 360.675 756.106, 362.056 754.842, 360.250 755.112 C 359.837 755.174, 357.036 755.744, 354.025 756.379 M 480.925 760.223 C 480.059 760.925, 478.544 762.737, 477.560 764.250 L 475.770 767 480.072 767 L 484.374 767 481.687 769.805 C 480.209 771.347, 479 772.940, 479 773.345 C 479 773.749, 481.019 773.950, 483.486 773.790 C 485.953 773.631, 487.868 773.048, 487.741 772.496 C 487.615 771.943, 489.646 769.524, 492.256 767.118 C 497.663 762.134, 498.089 761.069, 494.394 761.776 C 492.920 762.057, 491.462 761.747, 491.038 761.061 C 489.944 759.291, 482.805 758.699, 480.925 760.223 M 810.500 760.462 C 808.300 761.157, 802.524 762.289, 797.665 762.978 C 788.438 764.286, 787.309 765.695, 794.692 766.686 C 797.686 767.087, 800.464 766.448, 806.312 764.014 C 810.538 762.255, 814.249 760.407, 814.557 759.907 C 814.866 759.408, 814.979 759.044, 814.809 759.099 C 814.639 759.153, 812.700 759.766, 810.500 760.462 M 979.500 760.500 C 977.300 761.209, 971.540 762.354, 966.699 763.044 C 956.919 764.438, 956.087 766.373, 965.247 766.423 C 969.286 766.444, 972.233 765.610, 978 762.813 C 985.822 759.018, 986.278 758.314, 979.500 760.500 M 555.771 764.612 C 552.661 766.242, 551 768.859, 551 772.130 C 551 774.259, 551.211 774.190, 554.582 770.946 C 560.716 765.045, 561.345 761.691, 555.771 764.612 M 566.581 769 L 559.960 775 566.421 775 C 569.975 775, 573.082 774.663, 573.327 774.250 C 574.399 772.441, 575.128 763, 574.195 763 C 573.649 763, 570.222 765.700, 566.581 769 M 708.656 765.116 C 706.541 766.232, 705.069 767.402, 705.383 767.717 C 706.185 768.519, 715 765.036, 715 763.917 C 715 762.495, 712.858 762.900, 708.656 765.116 M 620.278 767.518 C 619.086 768.353, 617.162 770.368, 616.003 771.996 L 613.895 774.957 619.197 772.508 C 622.690 770.896, 624.609 769.367, 624.820 768.030 C 625.202 765.601, 623.318 765.388, 620.278 767.518 M 710.267 769.054 C 700.769 770.929, 695.542 775.441, 697.593 779.996 C 698.454 781.905, 698.884 781.761, 706 777.164 C 713.901 772.061, 718.439 767.912, 715.905 768.110 C 715.132 768.170, 712.595 768.595, 710.267 769.054 M 835.500 768.679 C 830.541 769.789, 817.965 774.248, 817.451 775.079 C 817.131 775.597, 819.257 776, 822.317 776 C 827.594 776, 836.299 773.005, 841.393 769.437 C 843.369 768.053, 843.334 768.004, 840.473 768.116 C 838.838 768.180, 836.600 768.433, 835.500 768.679 M 1005.500 768.465 C 991.886 772.639, 987 774.397, 987 775.118 C 987 775.603, 989.362 775.987, 992.250 775.970 C 996.269 775.947, 999.375 775.030, 1005.500 772.055 C 1012.887 768.468, 1013.232 768.170, 1010 768.164 C 1008.075 768.161, 1006.050 768.296, 1005.500 768.465 M 619.913 777.188 C 616.827 779.525, 609 780.877, 609 779.073 C 609 778.418, 608.550 778.160, 608 778.500 C 605.445 780.079, 607.572 780.999, 613.750 780.986 C 621.699 780.970, 625 780.242, 625 778.506 C 625 775.812, 622.564 775.181, 619.913 777.188 M 712.509 777.688 L 708.542 780.384 712.021 781.270 C 713.934 781.758, 715.928 782.571, 716.450 783.078 C 716.972 783.585, 717.786 784, 718.257 784 C 719.459 784, 718.726 775.729, 717.488 775.324 C 716.931 775.141, 714.691 776.205, 712.509 777.688" stroke="none" fill="#000000" fill-rule="evenodd"/></svg>