<svg xmlns="http://www.w3.org/2000/svg" width="1400" height="1400" viewBox="0 0 1400 1400" version="1.1"><path d="M 684.191 95.747 C 691.171 95.918, 702.871 95.919, 710.191 95.748 C 717.511 95.577, 711.800 95.436, 697.500 95.436 C 683.200 95.435, 677.211 95.575, 684.191 95.747 M 731.750 96.732 C 734.087 96.943, 737.913 96.943, 740.250 96.732 C 742.587 96.522, 740.675 96.349, 736 96.349 C 731.325 96.349, 729.413 96.522, 731.750 96.732 M 754.280 97.736 C 756.909 97.943, 760.959 97.940, 763.280 97.731 C 765.601 97.521, 763.450 97.352, 758.500 97.355 C 753.550 97.358, 751.651 97.530, 754.280 97.736 M 502 140 C 497.875 142.146, 494.950 143.901, 495.500 143.901 C 496.050 143.901, 499.875 142.146, 504 140 C 508.125 137.854, 511.050 136.099, 510.500 136.099 C 509.950 136.099, 506.125 137.854, 502 140 M 1100.500 219 C 1108.185 226.700, 1114.698 233, 1114.973 233 C 1115.248 233, 1109.185 226.700, 1101.500 219 C 1093.815 211.300, 1087.302 205, 1087.027 205 C 1086.752 205, 1092.815 211.300, 1100.500 219 M 338.948 285.103 C 336.707 289.560, 335.035 293.368, 335.233 293.566 C 335.430 293.763, 337.480 290.117, 339.788 285.462 C 342.097 280.808, 343.769 277, 343.504 277 C 343.239 277, 341.189 280.647, 338.948 285.103 M 1231.438 547.500 C 1231.437 562.350, 1231.576 568.564, 1231.747 561.310 C 1231.918 554.055, 1231.918 541.905, 1231.748 534.310 C 1231.578 526.714, 1231.438 532.650, 1231.438 547.500 M 1186.784 730.314 C 1180.703 742.323, 1168.438 764.349, 1164.401 770.511 C 1163.504 771.880, 1163.030 773, 1163.348 773 C 1164.958 773, 1194.882 718.549, 1193.844 717.510 C 1193.633 717.300, 1190.456 723.061, 1186.784 730.314 M 208 729.500 C 205.216 733.625, 203.164 737, 203.439 737 C 203.714 737, 206.216 733.625, 209 729.500 C 211.784 725.375, 213.836 722, 213.561 722 C 213.286 722, 210.784 725.375, 208 729.500 M 178.638 772.250 C 173.044 781.049, 172.696 781.928, 174.125 783.650 C 175.493 785.299, 190.966 793.367, 191.581 792.752 C 191.787 792.547, 188.332 790.612, 183.904 788.453 C 179.476 786.294, 175.373 783.949, 174.786 783.242 C 173.993 782.286, 174.892 780.036, 178.288 774.478 C 183.463 766.009, 183.744 764.217, 178.638 772.250 M 1156.813 782.250 C 1150.487 791.821, 1149.766 793, 1150.243 793 C 1150.660 793, 1153.398 789.057, 1159.444 779.750 C 1160.426 778.237, 1161.017 777, 1160.757 777 C 1160.496 777, 1158.722 779.362, 1156.813 782.250 M 1145.268 800.250 C 1139.989 808.684, 1139.812 809, 1140.355 809 C 1140.615 809, 1142.281 806.638, 1144.057 803.750 C 1145.833 800.862, 1147.948 797.487, 1148.758 796.250 C 1149.567 795.013, 1149.994 794, 1149.705 794 C 1149.416 794, 1147.419 796.813, 1145.268 800.250 M 1121.694 840.250 C 1115.624 851.456, 1110.581 861.718, 1111.741 860.500 C 1112.989 859.191, 1127.161 832, 1126.596 832 C 1126.357 832, 1124.151 835.712, 1121.694 840.250 M 1106.702 869.552 C 1104.666 873.666, 1103.022 877.363, 1103.050 877.767 C 1103.077 878.170, 1104.906 874.966, 1107.114 870.647 C 1109.321 866.328, 1110.965 862.631, 1110.766 862.432 C 1110.567 862.233, 1108.738 865.437, 1106.702 869.552 M 264.189 962.346 C 264.041 966.930, 264.464 968.843, 266.151 971.212 C 267.334 972.874, 269.576 976.543, 271.133 979.367 C 272.690 982.190, 273.972 984.140, 273.982 983.700 C 274.009 982.491, 271.061 977, 267.914 972.399 C 265.810 969.323, 265.017 966.822, 264.743 962.399 L 264.378 956.500 264.189 962.346 M 278.360 1090 C 278.360 1095.225, 278.529 1097.362, 278.735 1094.750 C 278.941 1092.138, 278.941 1087.862, 278.735 1085.250 C 278.529 1082.638, 278.360 1084.775, 278.360 1090 M 1048.374 1105.500 C 1048.376 1111.550, 1048.541 1113.896, 1048.740 1110.713 C 1048.939 1107.531, 1048.937 1102.581, 1048.736 1099.713 C 1048.535 1096.846, 1048.372 1099.450, 1048.374 1105.500 M 280.047 1105.283 C 279.909 1107.595, 285.456 1116.081, 289.666 1119.999 L 294.500 1124.499 289.852 1119.499 C 287.296 1116.750, 284.055 1112.250, 282.649 1109.500 C 281.243 1106.750, 280.072 1104.852, 280.047 1105.283 M 1048.370 1149 C 1048.370 1154.775, 1048.535 1157.138, 1048.737 1154.250 C 1048.939 1151.362, 1048.939 1146.638, 1048.737 1143.750 C 1048.535 1140.862, 1048.370 1143.225, 1048.370 1149 M 501.796 1161.439 C 505.259 1163.305, 508.655 1165.207, 509.343 1165.666 C 510.031 1166.125, 509.677 1165.665, 508.557 1164.645 C 506.445 1162.723, 497.660 1157.983, 496.283 1158.023 C 495.852 1158.035, 498.333 1159.572, 501.796 1161.439 M 563.250 1299.250 L 563.500 1302.500 819.250 1302.503 L 1075 1302.506 819.563 1302.251 L 564.126 1301.996 563.563 1298.998 C 563.009 1296.046, 563.004 1296.049, 563.250 1299.250" fill="#000000" fill-rule="evenodd"/><path d="M 659 51.057 C 590.675 56.086, 538.920 70.983, 470.204 105.398 C 386.508 147.316, 330.265 200.116, 297.429 267.599 C 286.086 290.909, 265.859 348.449, 242.625 423.500 C 227.110 473.615, 226 478.630, 226 498.631 C 226 517.173, 229.351 532.075, 237.552 550 C 243.107 562.141, 245.048 569.597, 245.137 579.138 C 245.304 597.008, 244.526 598.464, 202.720 658.601 C 138.091 751.567, 135.686 755.131, 132.383 762.841 C 124.077 782.228, 126.281 798.393, 139.150 812.474 C 148.721 822.946, 168.700 833.918, 186.586 838.525 C 203.333 842.839, 209 847.980, 209 858.859 C 209 862.889, 208.105 866.230, 205.450 872.110 C 199.771 884.689, 198.630 889.449, 198.645 900.500 C 198.656 908.461, 199.117 911.673, 200.902 916.252 C 203.392 922.638, 208.700 929.838, 215.613 936.211 L 220.175 940.416 219.463 956.134 C 218.493 977.543, 219.053 981.160, 224.648 989.634 C 235.770 1006.478, 239.160 1017.183, 239.174 1035.500 C 239.180 1043.643, 238.530 1050.714, 237.152 1057.500 C 232.708 1079.378, 232.022 1091.472, 234.398 1106 C 237.596 1125.553, 245.223 1140.362, 258.633 1153.053 C 275.439 1168.958, 295.607 1176.996, 329.963 1181.481 C 342.917 1183.172, 369.846 1185.549, 392.500 1187.001 C 422.626 1188.933, 446.020 1191.046, 453.967 1192.553 C 471.833 1195.942, 485.325 1202.334, 495.018 1212 C 506.817 1223.767, 512.801 1240.285, 514.940 1267 C 516.573 1287.384, 518.705 1305.454, 522.077 1327.500 C 523.675 1337.950, 524.987 1346.838, 524.991 1347.250 C 524.996 1347.662, 663.648 1348, 833.107 1348 C 1079.215 1348, 1141.105 1347.748, 1140.671 1346.750 C 1127.411 1316.220, 1123.016 1304.723, 1116.114 1282.500 C 1105.524 1248.402, 1098.928 1213.944, 1095.536 1175 C 1093.520 1151.863, 1093.504 1101.248, 1095.505 1078.500 C 1101.606 1009.135, 1119.152 947.865, 1151.491 883 C 1165.860 854.179, 1171.757 843.923, 1194.069 808.947 C 1211.690 781.326, 1220.137 766.598, 1230.459 745.500 C 1261.876 681.283, 1276.983 617.104, 1276.996 547.804 C 1277.006 493.368, 1268.540 443.362, 1249.180 383.500 C 1238.689 351.062, 1220.497 308.891, 1206.385 284.293 C 1193.279 261.450, 1185.897 250.122, 1171.981 231.500 C 1110.156 148.765, 1020.656 93.035, 911 68.990 C 868.209 59.607, 830.065 55.643, 737.836 50.992 C 715.556 49.868, 674.696 49.902, 659 51.057 M 660.500 96.103 C 598.839 100.311, 560.210 111.452, 494.500 143.977 C 446.890 167.543, 419.630 186.178, 390.159 215.304 C 358.204 246.883, 340.235 275.975, 322.406 325 C 306.952 367.494, 273.929 470.543, 272.045 482.154 C 270.681 490.558, 270.721 507.582, 272.120 514.201 C 272.736 517.115, 275.465 524.388, 278.184 530.363 C 283.300 541.602, 288.030 558.493, 289.920 572.273 C 291.138 581.153, 290.436 587.751, 286.500 604.403 C 282.213 622.543, 280.821 625.156, 258.441 657.043 C 250.159 668.845, 234.821 690.875, 224.357 706 C 168.916 786.137, 172.103 781.206, 174.144 783.691 C 176.512 786.576, 195.127 794.816, 205.500 797.571 C 217.091 800.649, 221.412 802.667, 229 808.542 C 241.848 818.490, 247.965 827.718, 251.542 842.549 C 252.995 848.572, 254.184 855.750, 254.184 858.500 C 254.184 865.147, 249.637 883.714, 245.954 892.106 C 244.329 895.807, 243 899.141, 243 899.515 C 243 899.889, 245.138 902.118, 247.750 904.469 C 255.942 911.841, 259.916 918.689, 262.702 930.237 C 264.950 939.558, 265.119 941.763, 264.544 954.255 L 263.911 968.011 267.018 972.526 C 272.472 980.453, 276.096 989.613, 280.168 1005.762 C 283.743 1019.941, 284.143 1022.787, 284.203 1034.500 C 284.256 1044.889, 283.701 1050.412, 281.439 1062 C 279.257 1073.178, 278.596 1079.478, 278.554 1089.500 C 278.503 1101.766, 278.662 1102.851, 281.374 1108.722 C 286.305 1119.397, 296.885 1127.571, 312.640 1132.879 C 322.497 1136.199, 346.242 1138.847, 394.500 1142.008 C 436.593 1144.765, 450.899 1146.409, 468.507 1150.515 C 487.405 1154.922, 491.713 1156.328, 501 1161.114 C 523.090 1172.499, 541.476 1192.943, 549.413 1214.949 C 553.900 1227.386, 558.001 1246.970, 559.580 1263.500 C 560.421 1272.300, 561.647 1284.675, 562.305 1291 L 563.500 1302.500 819.250 1302.752 C 1023.534 1302.953, 1074.997 1302.752, 1074.985 1301.752 C 1074.977 1301.063, 1073.874 1296.971, 1072.534 1292.659 C 1069.127 1281.688, 1060.548 1245.141, 1057.587 1228.980 C 1051.345 1194.915, 1048.689 1164.247, 1048.711 1126.500 C 1048.741 1075.163, 1053.011 1040.121, 1065.585 988.036 C 1076.780 941.664, 1090.498 904.002, 1111.507 861.957 C 1125.269 834.416, 1135.242 817.200, 1157.371 782.789 C 1178.722 749.587, 1192.423 723.343, 1205.291 691 C 1224.297 643.228, 1232.001 601.815, 1231.986 547.500 C 1231.973 504.654, 1227.138 468.056, 1216.329 429 C 1197.159 359.736, 1166.147 295.815, 1129.426 249.876 C 1117.518 234.978, 1087.531 204.679, 1072.925 192.786 C 1034.647 161.618, 984.956 136.276, 929 119.385 C 895.332 109.222, 852.078 102.771, 792.500 99.028 C 732.993 95.290, 687.270 94.277, 660.500 96.103" fill="#000000" fill-rule="evenodd"/></svg>