<svg xmlns="http://www.w3.org/2000/svg" width="1400" height="1400" viewBox="0 0 1400 1400" version="1.1"><path d="M 659 51.057 C 590.675 56.086, 538.920 70.983, 470.204 105.398 C 386.508 147.316, 330.265 200.116, 297.429 267.599 C 286.086 290.909, 265.859 348.449, 242.625 423.500 C 227.110 473.615, 226 478.630, 226 498.631 C 226 517.173, 229.351 532.075, 237.552 550 C 243.107 562.141, 245.048 569.597, 245.137 579.138 C 245.304 597.008, 244.526 598.464, 202.720 658.601 C 138.091 751.567, 135.686 755.131, 132.383 762.841 C 124.077 782.228, 126.281 798.393, 139.150 812.474 C 148.721 822.946, 168.700 833.918, 186.586 838.525 C 203.333 842.839, 209 847.980, 209 858.859 C 209 862.889, 208.105 866.230, 205.450 872.110 C 199.771 884.689, 198.630 889.449, 198.645 900.500 C 198.656 908.461, 199.117 911.673, 200.902 916.252 C 203.392 922.638, 208.700 929.838, 215.613 936.211 L 220.175 940.416 219.463 956.134 C 218.493 977.543, 219.053 981.160, 224.648 989.634 C 235.770 1006.478, 239.160 1017.183, 239.174 1035.500 C 239.180 1043.643, 238.530 1050.714, 237.152 1057.500 C 232.708 1079.378, 232.022 1091.472, 234.398 1106 C 237.596 1125.553, 245.223 1140.362, 258.633 1153.053 C 275.439 1168.958, 295.607 1176.996, 329.963 1181.481 C 342.917 1183.172, 369.846 1185.549, 392.500 1187.001 C 422.626 1188.933, 446.020 1191.046, 453.967 1192.553 C 471.833 1195.942, 485.325 1202.334, 495.018 1212 C 506.817 1223.767, 512.801 1240.285, 514.940 1267 C 516.573 1287.384, 518.705 1305.454, 522.077 1327.500 C 523.675 1337.950, 524.987 1346.838, 524.991 1347.250 C 524.996 1347.662, 663.648 1348, 833.107 1348 C 1079.215 1348, 1141.105 1347.748, 1140.671 1346.750 C 1127.411 1316.220, 1123.016 1304.723, 1116.114 1282.500 C 1105.524 1248.402, 1098.928 1213.944, 1095.536 1175 C 1093.520 1151.863, 1093.504 1101.248, 1095.505 1078.500 C 1101.606 1009.135, 1119.152 947.865, 1151.491 883 C 1165.860 854.179, 1171.757 843.923, 1194.069 808.947 C 1211.690 781.326, 1220.137 766.598, 1230.459 745.500 C 1261.876 681.283, 1276.983 617.104, 1276.996 547.804 C 1277.006 493.368, 1268.540 443.362, 1249.180 383.500 C 1238.689 351.062, 1220.497 308.891, 1206.385 284.293 C 1193.279 261.450, 1185.897 250.122, 1171.981 231.500 C 1110.156 148.765, 1020.656 93.035, 911 68.990 C 868.209 59.607, 830.065 55.643, 737.836 50.992 C 715.556 49.868, 674.696 49.902, 659 51.057 M 573.461 547.240 C 573.148 548.056, 573.998 552.724, 575.350 557.612 C 579.756 573.549, 579.852 574.928, 579.464 617 C 579.063 660.553, 579.617 672.241, 583.587 704 L 586.149 724.500 584.431 738.636 C 583.050 749.995, 582.918 754.387, 583.762 760.998 C 584.499 766.768, 584.495 773.374, 583.748 783.120 C 583.162 790.763, 582.867 797.188, 583.091 797.398 C 583.818 798.077, 619.442 800.845, 620.338 800.291 C 620.814 799.997, 621.833 798.250, 622.602 796.410 C 625.592 789.254, 623.605 745.522, 619.448 727 C 618.523 722.875, 617.706 715.675, 617.633 711 C 617.519 703.749, 617.978 701.154, 620.750 693.340 C 622.538 688.302, 624 683.075, 624 681.725 C 624 678.230, 633.134 669.296, 639.950 666.124 C 644.108 664.189, 647.545 663.449, 653.655 663.172 C 673.473 662.274, 683.006 670.361, 687.675 692.029 C 689.238 699.285, 689.489 705.090, 689.425 732.500 C 689.347 766.371, 687.687 786.837, 684.524 792.954 C 682.808 796.271, 683.567 799.099, 686.632 800.814 C 687.516 801.309, 695.534 801.492, 704.449 801.222 C 718.410 800.798, 721.010 800.960, 723.188 802.388 C 726.572 804.605, 728.748 803.567, 729.975 799.151 C 731.381 794.087, 731.257 788.655, 729.387 773.540 C 727.759 760.383, 727.945 743.202, 729.879 728 C 730.437 723.607, 730.249 718.096, 729.299 711 C 728.525 705.225, 727.493 692.850, 727.006 683.500 C 726.460 673.027, 725.483 664.388, 724.463 661 C 720.584 648.117, 709.125 631.141, 699.981 624.731 C 686.292 615.135, 669.117 613.222, 647.025 618.832 C 640.164 620.574, 632.914 622, 630.914 622 L 627.278 622 627.265 603.250 C 627.255 587.447, 626.793 581.593, 624.327 566 L 621.401 547.500 600.951 547.452 C 589.703 547.425, 579.044 547.033, 577.265 546.580 C 574.780 545.947, 573.899 546.100, 573.461 547.240 M 583 554.867 C 583 555.343, 583.944 558.005, 585.098 560.782 L 587.196 565.830 593.348 561.867 C 596.732 559.688, 600.388 557.026, 601.472 555.953 C 603.430 554.015, 603.368 554, 593.222 554 C 587.600 554, 583 554.390, 583 554.867 M 611 555.746 C 606.890 557.425, 602.836 560.926, 603.590 562.145 C 604.659 563.876, 607.766 562.914, 611.484 559.701 C 616.165 555.654, 615.930 553.733, 611 555.746 M 608.378 569.556 C 605.145 572.141, 599.462 577.224, 595.750 580.852 L 589 587.446 589 593.838 L 589 600.230 591.750 598.477 C 602.140 591.856, 616 581.504, 616 580.366 C 616 579.558, 614.877 578.974, 613.250 578.937 L 610.500 578.873 612.972 577.887 C 614.331 577.344, 615.799 576.360, 616.232 575.700 C 617.113 574.360, 616.221 566.956, 615.025 565.678 C 614.602 565.225, 611.610 566.971, 608.378 569.556 M 599 568.191 C 597.625 568.777, 595.115 569.189, 593.423 569.108 C 589.002 568.896, 586.680 571.777, 587.547 576.400 C 587.919 578.380, 588.813 580, 589.534 580 C 591.411 580, 598.851 574.073, 601.773 570.250 C 604.407 566.802, 603.626 566.222, 599 568.191 M 611.289 588.819 C 609.205 590.919, 604.225 594.357, 600.223 596.457 C 589.171 602.257, 586.170 607.056, 588.977 614.440 L 589.954 617.010 595.227 613.814 C 601.610 609.946, 610.798 603.025, 613.405 600.122 L 615.310 598 609.905 597.935 L 604.500 597.871 611.750 595.255 C 617.811 593.068, 619 592.272, 619 590.401 C 619 584.008, 616.559 583.507, 611.289 588.819 M 608.500 607.441 C 600.526 612.815, 594.193 618.527, 595.149 619.483 C 595.865 620.199, 614.145 613.027, 616.250 611.205 C 617.985 609.703, 618.827 601.973, 617.250 602.025 C 616.837 602.038, 612.900 604.476, 608.500 607.441 M 608.500 617.884 C 601.841 620.297, 591.639 625.509, 590.328 627.168 C 589.749 627.901, 589.008 629.625, 588.682 631 C 588.008 633.835, 589.499 669.833, 590.325 670.658 C 591.024 671.357, 610.831 657.873, 613.896 654.611 C 615.610 652.786, 616.109 651.353, 615.727 649.352 C 615.438 647.839, 615.623 645.493, 616.138 644.138 C 616.666 642.748, 616.697 641.297, 616.208 640.808 C 615.253 639.853, 600.118 651.077, 598.500 653.938 C 597.288 656.081, 595 655.515, 595 653.072 C 595 650.922, 596.888 649.163, 605.096 643.663 C 612.632 638.614, 615.245 634.705, 614.810 629.126 L 614.500 625.142 606.618 631.614 C 602.283 635.173, 597.445 638.753, 595.868 639.568 C 593.230 640.932, 593.001 640.909, 593.015 639.276 C 593.024 638.299, 593.361 637.011, 593.765 636.414 C 594.598 635.184, 606.458 627.490, 606.578 628.102 C 606.682 628.633, 616 617.173, 616 616.514 C 616 615.597, 613.603 616.035, 608.500 617.884 M 442.500 627.048 C 426.341 630.457, 421.573 632.136, 417.750 635.764 C 414.445 638.901, 414.247 642.340, 416.547 656.636 C 417.398 661.924, 417.961 667.657, 417.797 669.375 C 417.368 673.889, 420.265 673.899, 429.160 669.416 C 442.282 662.802, 449.340 660.817, 461.500 660.322 C 470.774 659.945, 473.038 660.159, 475.929 661.687 C 481.886 664.836, 483.210 667.678, 483.777 678.532 C 484.275 688.051, 484.246 688.213, 482.168 687.553 C 481.003 687.184, 474.527 686.861, 467.775 686.835 C 447.718 686.760, 437.847 690.389, 422.763 703.382 C 406.819 717.117, 403.958 721.315, 401.851 734.072 C 400.838 740.209, 400.903 741.978, 402.306 746.370 C 403.207 749.191, 404.859 755.001, 405.978 759.281 C 407.096 763.560, 410.013 771.047, 412.459 775.919 C 416.446 783.857, 417.383 785.007, 421.477 786.989 C 429.264 790.758, 448.841 794.243, 463 794.379 C 475.053 794.496, 475.773 794.382, 483.133 791.206 C 487.331 789.394, 493.348 786.356, 496.504 784.456 C 499.660 782.555, 503.200 781.001, 504.371 781.001 C 505.542 781.002, 509.791 783.692, 513.813 786.980 C 518.151 790.526, 522.829 793.416, 525.313 794.087 C 529.656 795.259, 563.644 794.437, 564.381 793.142 C 565.301 791.525, 565.951 767.362, 565.109 766.083 C 564.522 765.192, 560.582 764.206, 554.488 763.425 C 546.185 762.361, 544.389 761.789, 541.913 759.417 C 540.309 757.880, 538.728 755.060, 538.358 753.075 C 537.991 751.109, 536.172 745, 534.315 739.500 C 529.872 726.338, 529.288 720.295, 531.499 710.379 C 535.416 692.815, 529.466 664.550, 517.725 644.942 C 512.708 636.564, 505.276 633.217, 479.785 627.856 C 460.063 623.709, 458.492 623.675, 442.500 627.048 M 644 625.943 C 631.434 628.608, 628.828 629.963, 625.993 635.307 C 624.655 637.829, 623.839 640.172, 624.179 640.512 C 624.520 640.853, 626.531 640.681, 628.649 640.131 C 630.767 639.580, 633.890 638.926, 635.590 638.677 C 638.101 638.310, 666.445 625.786, 667.917 624.394 C 669.137 623.240, 651.302 624.395, 644 625.943 M 661 631.130 C 654.675 634.346, 645.780 638.326, 641.234 639.975 C 634 642.599, 630.846 644.661, 615.984 656.484 C 606.643 663.915, 599 670.209, 599 670.472 C 599 671.968, 606.919 669.015, 616.674 663.881 C 622.819 660.646, 628.357 658, 628.980 658 C 630.380 658, 669.938 629.831, 672.475 627.028 C 675.082 624.147, 673.914 624.565, 661 631.130 M 678.500 628.364 C 672.011 631.440, 658.751 641.028, 651.343 648 L 645.500 653.500 653.886 653.793 L 662.271 654.085 671.828 647.793 C 683.005 640.433, 682.084 639.211, 668.940 643.960 C 663.499 645.925, 661.211 646.431, 662.500 645.384 C 666.424 642.197, 683.277 634.770, 689.095 633.665 C 695.372 632.472, 695.848 631.671, 691.937 628.888 C 687.756 625.913, 683.982 625.765, 678.500 628.364 M 828.500 630.524 C 810.926 634.400, 794.475 643.217, 784.829 653.929 C 778.079 661.425, 762.063 688.144, 758.412 698 C 755.881 704.830, 755.627 706.751, 755.567 719.500 C 755.502 733.113, 755.588 733.703, 758.694 740.847 C 763.733 752.440, 769.853 761.998, 776.429 768.544 C 781.897 773.988, 783.693 775.051, 794.500 779.237 C 801.100 781.793, 811.548 785.940, 817.717 788.453 C 833.339 794.816, 844.136 797.255, 857 797.327 L 867.500 797.386 881.250 791.779 C 899.037 784.526, 906.630 780.213, 914.383 772.960 C 926.331 761.783, 930.453 750.308, 930.351 728.500 C 930.283 714.066, 929.007 705.827, 924.853 693 C 922.140 684.622, 913.113 665.477, 909.180 659.761 C 901.708 648.901, 890.945 641.159, 877.500 636.971 C 873.650 635.772, 866.622 633.488, 861.881 631.895 C 854.653 629.467, 851.750 629.016, 843.881 629.100 C 838.722 629.156, 831.800 629.796, 828.500 630.524 M 1018 631.549 C 1001.390 635.832, 984.751 645.346, 976.770 655.121 C 971.875 661.117, 958.417 682.956, 954.335 691.529 C 948.228 704.354, 946.203 722.586, 949.611 734.061 C 951.506 740.442, 957.982 753.635, 962.324 759.961 C 969.952 771.073, 974.211 774.127, 991 780.527 C 995.675 782.309, 1003.941 785.611, 1009.369 787.865 C 1022.114 793.156, 1031.246 795.660, 1042.896 797.057 C 1054.911 798.497, 1058.810 797.858, 1073.480 792.046 C 1089.104 785.855, 1096.162 782.242, 1103.507 776.673 C 1116.725 766.650, 1122.428 754.713, 1123.656 734.500 C 1124.707 717.198, 1121.534 700.629, 1113.489 681.411 C 1107.419 666.909, 1102.005 658.005, 1094.998 650.998 C 1087.786 643.786, 1079.207 639.474, 1060.178 633.498 C 1047.437 629.497, 1044.841 629.005, 1036.678 629.049 C 1030.325 629.083, 1024.576 629.853, 1018 631.549 M 451.069 634.524 C 447.532 636.381, 443.265 639.273, 441.588 640.950 C 438.820 643.718, 438.730 644, 440.608 644 C 443.186 644, 463 634.397, 463 633.148 C 463 632.361, 459.480 630.911, 458 631.087 C 457.725 631.120, 454.606 632.666, 451.069 634.524 M 285.421 633.722 C 283.917 635.226, 283.806 637.125, 284.412 650.956 C 284.787 659.505, 285.500 672.575, 285.996 680 C 286.492 687.425, 287.166 711.725, 287.494 734 C 287.965 765.999, 287.794 776.599, 286.682 784.500 C 284.864 797.415, 285.784 800.346, 292.174 802.005 C 294.553 802.623, 298.075 803.547, 300 804.058 C 301.925 804.570, 311.724 804.991, 321.775 804.994 L 340.050 805 341.123 802.250 C 342.272 799.303, 341.778 781.159, 340.066 763.500 C 338.653 748.916, 338.833 718.376, 340.416 704.208 C 341.926 690.696, 343.704 686.616, 350.266 681.611 C 359.147 674.837, 369.079 672.811, 378.500 675.853 C 381.800 676.918, 384.865 677.568, 385.312 677.298 C 386.976 676.289, 388.003 671.580, 390.010 655.752 C 391.144 646.813, 392.298 638.751, 392.576 637.835 C 393.192 635.805, 389.508 633, 386.226 633 C 384.241 633, 344.422 643.750, 339.713 645.557 C 338.527 646.012, 337.678 645.165, 336.502 642.351 C 334.317 637.122, 331.270 634.119, 327.590 633.568 C 325.891 633.314, 316.087 632.865, 305.805 632.569 C 289.139 632.091, 286.927 632.216, 285.421 633.722 M 603.711 637.059 L 599.500 641.119 603.500 639.166 C 605.700 638.092, 608.357 636.265, 609.405 635.106 C 611.120 633.210, 611.141 633, 609.616 633 C 608.685 633, 606.027 634.827, 603.711 637.059 M 463.817 636.750 C 460.840 639.950, 457.556 644.920, 458.115 645.379 C 458.327 645.554, 461.845 643.535, 465.934 640.894 C 473.358 636.097, 473.365 636.089, 470.619 635.045 C 466.841 633.609, 466.707 633.642, 463.817 636.750 M 683.995 643.750 C 672.203 651.682, 669.966 653.550, 672 653.766 C 674.790 654.063, 705.248 643.757, 705.714 642.358 C 706.040 641.379, 700.265 634, 699.172 634 C 698.796 634, 691.967 638.388, 683.995 643.750 M 430.049 637.386 L 421.599 639.581 421.549 643.041 C 421.511 645.761, 421.927 646.559, 423.500 646.777 C 425.682 647.078, 439.596 638.494, 440.425 636.335 C 441.075 634.642, 440.320 634.719, 430.049 637.386 M 476.655 637.829 C 474.594 640.106, 474.524 642, 476.500 642 C 478.187 642, 482 638.534, 482 637 C 482 635.327, 478.416 635.883, 476.655 637.829 M 480.739 641.521 C 474.507 645.702, 471.601 649.187, 475.750 647.504 C 481.636 645.117, 488.639 643, 490.648 643 C 492.845 643, 492.710 643.358, 488.379 649.054 C 485.847 652.384, 484.044 655.377, 484.373 655.707 C 484.702 656.036, 489.232 654.380, 494.439 652.028 C 499.646 649.675, 504.531 647.990, 505.294 648.283 C 506.057 648.575, 507.316 648.398, 508.091 647.888 C 509.257 647.122, 509.155 646.688, 507.500 645.374 C 504.323 642.851, 491.759 637, 489.518 637 C 488.396 637, 484.446 639.034, 480.739 641.521 M 818.550 639.663 C 815.277 640.423, 810.552 642.272, 808.050 643.772 L 803.500 646.500 807.184 646.806 C 812.516 647.250, 818.603 645.327, 822.288 642.034 C 824.054 640.456, 825.274 638.966, 824.999 638.723 C 824.725 638.480, 821.822 638.903, 818.550 639.663 M 848.250 639.116 C 846.882 640.521, 846.554 644.610, 847.750 645.339 C 848.641 645.882, 862.787 643.547, 863.613 642.720 C 864.575 641.758, 858.291 639.001, 853.767 638.399 C 850.943 638.023, 849.077 638.266, 848.250 639.116 M 1015.500 638.748 C 1010.440 639.708, 1001.262 643.241, 999 645.099 L 996.500 647.152 1002.572 646.687 C 1008.944 646.199, 1016.686 642.981, 1017.672 640.412 C 1018.388 638.547, 1018.025 638.269, 1015.500 638.748 M 1040.832 640.470 C 1039.993 642.310, 1039.998 643.293, 1040.851 644.321 C 1041.803 645.468, 1043.184 645.498, 1049.019 644.497 C 1052.881 643.834, 1056.324 643.009, 1056.669 642.664 C 1057.683 641.650, 1048.800 638.046, 1045.229 638.022 C 1042.708 638.005, 1041.699 638.567, 1040.832 640.470 M 305 640.771 C 298.125 641.592, 292.348 642.394, 292.163 642.553 C 291.977 642.712, 292.806 645.745, 294.005 649.294 L 296.184 655.747 305.342 652.982 C 322.354 647.846, 329 644.460, 329 640.932 C 329 639.231, 328.314 639.017, 323.250 639.139 C 320.087 639.215, 311.875 639.950, 305 640.771 M 376.500 640.680 C 370.948 641.922, 362.216 645.267, 360 647 L 357.500 648.956 360.191 648.978 C 366.418 649.029, 364.244 652.912, 354.500 659.144 C 344.215 665.721, 351.314 663.370, 366.652 655.119 C 380.380 647.734, 383.860 644.946, 383.965 641.250 C 383.999 640.018, 380.611 639.760, 376.500 640.680 M 448.552 644.591 C 445.281 646.564, 441.006 648.304, 439.052 648.458 C 437.099 648.613, 432.913 649.505, 429.750 650.441 L 424 652.142 424 658.571 C 424 662.107, 424.292 665, 424.650 665 C 425.007 665, 430.258 662.724, 436.319 659.942 C 447.369 654.870, 455.051 652.683, 458.600 653.599 C 459.953 653.948, 462.211 652.356, 466.443 648.071 C 469.711 644.761, 472.186 641.859, 471.943 641.622 C 471.699 641.386, 468.125 643.167, 464 645.580 C 456.071 650.217, 451 651.280, 451 648.305 C 451 647.372, 452.209 645.347, 453.687 643.805 C 457.300 640.033, 455.707 640.278, 448.552 644.591 M 706.120 647.065 C 705.204 649.152, 702.348 651.733, 697.620 654.747 C 690.227 659.460, 685 663.784, 685 665.187 C 685 665.634, 686.211 666, 687.691 666 C 690.162 666, 690.235 666.108, 688.581 667.317 C 686.873 668.566, 686.908 668.781, 689.261 671.517 C 691.652 674.297, 691.830 674.341, 694.234 672.766 C 695.605 671.868, 698.149 669.337, 699.888 667.142 C 702.796 663.470, 702.898 663.102, 701.157 662.550 C 700.116 662.219, 698.013 662.425, 696.483 663.006 C 694.049 663.932, 693.859 663.875, 694.959 662.549 C 697.269 659.767, 709.096 657.728, 710.427 659.882 C 711.313 661.315, 707.190 665.804, 702.423 668.598 C 697.742 671.341, 694 675.356, 694 677.635 C 694 679.711, 697.906 679.257, 703.849 676.490 C 710.309 673.483, 715 673.183, 715 675.777 C 715 678.730, 712.122 681.904, 707.173 684.412 C 698.023 689.049, 693.523 696.091, 700.250 695.245 L 703.500 694.836 700.250 696.903 C 697.109 698.901, 697 699.196, 697 705.718 L 697 712.466 701.427 707.405 C 703.862 704.621, 708.362 700.617, 711.427 698.506 C 714.492 696.395, 717 694.235, 717 693.706 C 717 693.145, 715.227 692.999, 712.750 693.356 L 708.500 693.968 712.160 692.006 C 714.173 690.927, 716.779 688.825, 717.952 687.334 C 719.837 684.937, 720.012 683.807, 719.460 677.562 C 718.337 664.858, 714.223 652.040, 709.396 646.210 L 707.500 643.921 706.120 647.065 M 871.634 646.073 C 869.676 647.614, 869.147 648.738, 869.576 650.448 C 870.057 652.364, 869.612 652.940, 866.928 653.875 C 865.153 654.494, 861.263 655, 858.283 655 L 852.864 655 855 652 C 857.723 648.175, 856.572 648.115, 846.966 651.580 C 837.847 654.870, 810.188 666.712, 807.319 668.555 C 806.119 669.326, 804.994 671.192, 804.819 672.702 C 804.473 675.680, 805.480 675.336, 789.479 677.952 C 782.657 679.067, 775.016 682.400, 774.304 684.571 C 774.111 685.160, 777.660 684.398, 782.192 682.877 C 790.656 680.038, 801.739 678.302, 804.542 679.378 C 805.965 679.924, 805.950 680.277, 804.388 682.921 C 802.959 685.339, 800.567 686.619, 790.829 690.178 C 775.096 695.929, 775.049 697.086, 790.636 694.918 C 794.916 694.323, 799.659 693.193, 801.177 692.409 C 805.303 690.275, 808.920 685.955, 810.041 681.821 C 812.244 673.696, 834.906 657.905, 844.562 657.767 C 846.728 657.735, 851.301 658.784, 854.725 660.096 C 860.866 662.450, 860.996 662.457, 864.363 660.644 C 869.549 657.851, 877.877 650.099, 875.750 650.045 C 873.578 649.989, 873.439 647.429, 875.563 646.614 C 876.423 646.284, 876.847 645.561, 876.504 645.007 C 875.594 643.533, 874.581 643.755, 871.634 646.073 M 1064.901 645.879 C 1063.496 647.017, 1062.565 648.870, 1062.540 650.579 C 1062.492 653.929, 1060.429 654.750, 1051.682 654.900 L 1045.864 655 1048 652 C 1049.707 649.603, 1049.833 649, 1048.628 649 C 1046.239 649, 1034.886 653.334, 1016.500 661.265 C 1000.332 668.239, 999.445 668.767, 998.375 672.049 L 997.251 675.500 986.957 677.201 C 977.090 678.832, 968.084 682.249, 967.277 684.668 C 967.069 685.294, 970.645 684.505, 975.312 682.897 C 983.184 680.183, 999 677.851, 999 679.403 C 999 679.786, 998.355 681.348, 997.566 682.873 C 996.393 685.141, 994.021 686.429, 984.554 689.937 C 978.187 692.297, 972.695 694.685, 972.349 695.245 C 971.929 695.924, 974.017 696.026, 978.610 695.552 C 994.896 693.871, 998.447 691.980, 1002.861 682.638 C 1007.493 672.836, 1019.330 663.431, 1032.845 658.816 L 1038.902 656.748 1045.461 659.374 C 1049.069 660.818, 1052.986 662, 1054.166 662 C 1056.369 662, 1060.653 659.159, 1067.253 653.320 C 1070.349 650.581, 1070.655 650, 1069.003 650 C 1066.424 650, 1066.443 648.503, 1069.045 646.681 C 1070.836 645.426, 1070.888 645.171, 1069.463 644.624 C 1067.314 643.800, 1067.549 643.735, 1064.901 645.879 M 605.728 650.073 C 601.135 653.859, 600.883 655.617, 605.250 653.405 C 609.041 651.485, 612 649.047, 612 647.845 C 612 646.140, 609.362 647.078, 605.728 650.073 M 828.500 649.569 C 825.200 650.956, 820.700 652.441, 818.500 652.867 C 816.267 653.301, 814.610 654.164, 814.750 654.822 C 814.888 655.470, 814.325 656, 813.500 656 C 812.675 656, 812 655.325, 812 654.500 C 812 652.364, 810.348 652.639, 806.683 655.386 C 802.008 658.890, 796.043 661.640, 791.500 662.387 C 787.702 663.012, 787.601 662.964, 789.500 661.435 C 790.600 660.549, 793.805 658.789, 796.622 657.524 C 802.857 654.723, 804.241 653, 800.255 653 C 796.723 653, 789.435 657.509, 785.576 662.082 C 782.195 666.087, 779.053 672.594, 779.022 675.653 L 779 677.806 785.750 675.781 C 790.532 674.346, 793.374 672.800, 795.500 670.476 C 797.702 668.068, 801.788 665.914, 810.858 662.380 C 820.204 658.738, 823.421 657.023, 824.060 655.343 C 825.128 652.532, 827.080 651.516, 834.233 650.045 C 837.385 649.396, 840.225 648.446, 840.542 647.933 C 841.673 646.102, 834.397 647.091, 828.500 649.569 M 1021.500 649.673 C 1018.200 651.096, 1013.700 652.560, 1011.500 652.924 C 1009.170 653.311, 1007.604 654.091, 1007.750 654.794 C 1007.888 655.457, 1007.325 656, 1006.500 656 C 1005.675 656, 1005 655.325, 1005 654.500 C 1005 652.586, 1002.611 652.558, 1001.038 654.455 C 998.019 658.092, 983.011 664.344, 981.331 662.664 C 981.109 662.442, 984.656 660.297, 989.214 657.897 C 995.793 654.433, 997.015 653.462, 995.148 653.184 C 991.480 652.638, 988.725 653.666, 983.824 657.408 C 978.523 661.456, 973.139 669.369, 972.341 674.285 L 971.780 677.743 979.140 675.761 C 985.096 674.157, 986.882 673.203, 988.500 670.758 C 990.096 668.348, 993.107 666.700, 1003.389 662.609 C 1013.026 658.774, 1016.481 656.931, 1017.083 655.305 C 1018.104 652.545, 1020.096 651.513, 1027.233 650.045 C 1030.385 649.396, 1033.225 648.446, 1033.542 647.933 C 1034.685 646.083, 1027.372 647.140, 1021.500 649.673 M 346.500 651.389 C 340.310 654.093, 331 664.532, 331 668.769 C 331 669.526, 335.725 666.009, 341.500 660.953 C 347.275 655.897, 352 651.364, 352 650.880 C 352 649.661, 350.042 649.842, 346.500 651.389 M 476.199 651.073 C 472.331 651.888, 471.559 652.478, 472.459 653.933 C 473.366 655.401, 476.248 655.271, 478.446 653.663 C 481.184 651.661, 479.983 650.277, 476.199 651.073 M 509.452 650.816 C 508.929 651.192, 508.500 652.380, 508.500 653.455 C 508.500 654.597, 507.631 655.636, 506.411 655.955 C 505.262 656.255, 502.562 657.995, 500.411 659.823 L 496.500 663.146 499.595 662.629 C 501.297 662.345, 505.222 660.992, 508.316 659.624 C 513.915 657.148, 513.938 657.120, 512.873 654.066 C 511.668 650.609, 510.838 649.821, 509.452 650.816 M 683.985 652.515 C 679.852 653.846, 675.691 655.513, 674.739 656.218 C 673.158 657.388, 673.310 657.706, 676.482 659.864 C 678.845 661.472, 680.727 662.034, 682.367 661.623 C 685.175 660.918, 697 652.265, 697 650.915 C 697 649.353, 691.824 649.989, 683.985 652.515 M 879.464 653.373 C 873.970 657.073, 871.058 660, 872.871 660 C 875.688 660, 892 652.662, 892 651.395 C 892 648.623, 884.841 649.752, 879.464 653.373 M 1071.013 654.569 C 1067.599 657.083, 1065.060 659.393, 1065.370 659.704 C 1065.681 660.014, 1068.762 659.234, 1072.217 657.970 C 1085.891 652.968, 1089.181 650, 1081.051 650 C 1078.074 650, 1075.836 651.019, 1071.013 654.569 M 326.500 652.567 C 325.400 653.304, 318.268 655.698, 310.650 657.887 C 303.033 660.076, 296.585 662.082, 296.322 662.345 C 295.549 663.117, 304.487 668, 306.673 668 C 309.744 668, 321.163 664.020, 324.108 661.923 C 326.921 659.920, 329.394 655.095, 328.839 652.692 C 328.551 651.448, 328.196 651.429, 326.500 652.567 M 499.500 653.707 C 494.081 654.995, 486 659.378, 486 661.030 C 486 664.321, 488.642 663.807, 496.381 659.011 C 500.634 656.376, 504.388 653.945, 504.723 653.610 C 505.405 652.928, 502.557 652.981, 499.500 653.707 M 373 655.433 C 368.561 657.071, 353.750 664.505, 349.065 667.447 C 347.104 668.678, 344.998 669.514, 344.384 669.304 C 343.770 669.094, 341.070 671.229, 338.384 674.048 C 333.178 679.510, 329.335 682, 326.109 682 C 323.077 682, 322.553 680.104, 324.895 677.612 C 327.922 674.389, 327.647 672.622, 324.250 673.470 C 314.245 675.969, 296 688.235, 296 692.463 C 296 695.651, 322.516 694.078, 331.103 690.380 C 333.084 689.527, 337.102 686.107, 340.030 682.780 C 346.829 675.057, 351.313 673.055, 364.352 671.922 C 377.887 670.747, 379.395 669.645, 379.796 660.647 C 380.127 653.208, 379.770 652.934, 373 655.433 M 891 661.293 C 885.844 665.316, 876.997 670.330, 876.294 669.627 C 876.120 669.454, 878.757 667.129, 882.153 664.461 C 885.550 661.792, 887.862 659.454, 887.292 659.264 C 886.119 658.873, 870.996 664.667, 869.572 666.053 C 869.007 666.603, 870.563 669.801, 873.550 674.228 C 876.249 678.228, 878.511 681.619, 878.577 681.765 C 878.643 681.911, 882.077 679.998, 886.209 677.515 C 890.340 675.032, 894.233 673, 894.860 673 C 896.676 673, 896.179 674.808, 894.189 675.440 C 892.032 676.125, 885.156 683, 886.629 683 C 887.967 683, 901.632 678.347, 903.248 677.341 C 903.937 676.912, 905.513 676.693, 906.750 676.852 C 908.182 677.037, 909 676.616, 909 675.694 C 909 673.608, 907.034 672.279, 902.772 671.482 C 899.460 670.863, 899.160 670.569, 900.087 668.837 C 901.854 665.535, 900.685 665.003, 896.141 667.043 C 893.743 668.119, 891.043 668.967, 890.141 668.926 C 889.238 668.885, 891.331 667.548, 894.790 665.954 L 901.081 663.056 899.515 660.028 C 898.653 658.363, 897.623 657, 897.224 657.001 C 896.826 657.001, 894.025 658.932, 891 661.293 M 1083.282 662.034 C 1079.862 664.765, 1076.474 667, 1075.754 667 C 1075.034 667, 1073.416 667.721, 1072.158 668.602 C 1070.900 669.483, 1069.653 669.987, 1069.388 669.721 C 1069.123 669.456, 1071.614 667.272, 1074.924 664.869 C 1084.365 658.015, 1082.998 657.246, 1070.500 662.381 C 1065.458 664.452, 1062.538 666.206, 1062.604 667.123 C 1062.661 667.923, 1064.834 671.534, 1067.433 675.147 L 1072.158 681.715 1079.805 677.358 C 1087.817 672.792, 1089 672.360, 1089 674 C 1089 674.550, 1088.631 675, 1088.180 675 C 1086.969 675, 1078.822 682.156, 1079.389 682.722 C 1080.061 683.395, 1095.847 678.056, 1096.551 676.918 C 1096.865 676.409, 1098.220 676.268, 1099.561 676.605 C 1101.327 677.048, 1102 676.807, 1102 675.731 C 1102 673.713, 1100.144 672.369, 1096.191 671.523 C 1093.140 670.870, 1092.932 670.584, 1093.532 667.856 L 1094.181 664.897 1090.341 666.573 C 1083.481 669.565, 1081.314 669.113, 1087.790 666.041 L 1094.081 663.056 1092.515 660.028 C 1091.653 658.363, 1090.623 657.015, 1090.224 657.034 C 1089.826 657.052, 1086.702 659.302, 1083.282 662.034 M 505.952 664.066 C 504.586 664.945, 501.097 665.989, 494.750 667.419 C 491.629 668.122, 491.320 669.785, 493.521 674.041 L 495.042 676.982 499.171 673.991 C 501.442 672.346, 504.219 671, 505.341 671 C 507.298 671, 507.307 671.055, 505.538 672.348 C 502.483 674.582, 504.594 676.261, 508.147 674.424 C 511.719 672.577, 514 673.156, 514 675.910 C 514 677.234, 511.199 679.917, 505.471 684.079 C 500.780 687.487, 497.096 690.429, 497.285 690.618 C 497.473 690.806, 501.543 690.436, 506.329 689.796 C 513.215 688.875, 515.289 688.893, 516.266 689.883 C 518.350 691.997, 514.688 693.832, 509.542 693.252 C 502.221 692.427, 498.470 693.691, 492.353 699.044 C 486.525 704.144, 484.634 705.117, 485.638 702.500 C 485.955 701.675, 485.894 701, 485.503 701 C 483.792 701, 471.022 708.347, 469.010 710.490 L 466.790 712.852 473.083 710.311 C 478.160 708.260, 480.374 707.886, 484.544 708.376 C 489.197 708.923, 490.699 708.537, 499.606 704.508 C 509.144 700.193, 515.221 698.997, 519.418 700.607 C 522.045 701.615, 521.213 704.321, 517.250 707.657 C 515.188 709.393, 513.725 711.016, 514 711.263 C 514.275 711.510, 515.988 711.996, 517.807 712.343 C 520.897 712.931, 521.216 712.728, 522.684 709.236 C 523.908 706.325, 524.126 703.403, 523.670 696 C 522.952 684.363, 520.370 670.291, 518.388 667.222 C 517.025 665.112, 516.757 665.057, 514.736 666.472 C 513.537 667.312, 511.500 668, 510.210 668 C 508.355 668, 507.992 667.600, 508.473 666.084 C 509.204 663.780, 507.953 662.779, 505.952 664.066 M 614.500 668.029 C 612.300 669.120, 609.021 670.962, 607.213 672.121 C 605.405 673.279, 601.593 674.514, 598.742 674.864 C 594.555 675.378, 593.315 675.981, 592.294 678 C 589.885 682.764, 591.237 706.792, 594.010 708.506 C 594.477 708.795, 596.046 706.848, 597.498 704.181 C 599.434 700.623, 601.295 698.769, 604.484 697.220 C 608.460 695.288, 611.061 691.728, 609.579 690.246 C 609.247 689.914, 606.467 690.433, 603.400 691.400 C 600.333 692.367, 597.563 692.896, 597.244 692.577 C 595.911 691.245, 600.021 686.258, 607.941 679.598 C 612.583 675.694, 617.983 671.050, 619.941 669.277 C 623.427 666.120, 623.449 666.054, 621 666.049 C 619.625 666.046, 616.700 666.937, 614.500 668.029 M 834.086 669.186 C 828.694 671.855, 820.080 680.301, 816.474 686.455 C 814.818 689.281, 813.704 692.808, 813.538 695.754 C 813.391 698.364, 812.705 702.643, 812.013 705.262 C 811.261 708.113, 810.927 713.530, 811.182 718.762 C 811.884 733.194, 818.121 743.775, 829.500 749.836 C 834.045 752.258, 835.503 752.500, 845.521 752.500 C 855.968 752.500, 856.891 752.328, 863.245 749.200 C 866.932 747.385, 872.522 743.560, 875.668 740.700 C 878.814 737.840, 881.050 736.063, 880.635 736.750 C 879.196 739.138, 881.582 737.971, 888.521 732.894 C 892.360 730.085, 897.750 726.489, 900.500 724.903 C 906.606 721.381, 903.992 720.931, 895.260 724 C 888.249 726.464, 887 726.493, 887 724.189 C 887 721.760, 889.819 718.882, 898.089 712.866 C 901.890 710.102, 905 707.437, 905 706.945 C 905 706.188, 898.645 708.253, 886.875 712.834 C 884.902 713.602, 884.080 714.805, 883.569 717.678 C 881.662 728.382, 879.837 732.505, 874.351 738.500 C 869.675 743.611, 869.233 743.907, 871.372 740.500 C 875.334 734.190, 876.328 728.314, 875.737 714.694 C 875.344 705.625, 874.535 700.233, 872.581 693.656 C 869.489 683.246, 868.057 680.273, 863.793 675.417 C 859.820 670.892, 857.039 669.782, 853.255 671.210 C 850.729 672.163, 849.833 671.959, 846.441 669.654 C 841.700 666.432, 839.796 666.360, 834.086 669.186 M 1027.394 669.034 C 1022.214 671.598, 1013.341 680.503, 1009.758 686.732 C 1008.079 689.651, 1007.013 692.991, 1007.008 695.346 C 1007.004 697.461, 1006.267 701.713, 1005.371 704.794 C 1004.198 708.830, 1003.889 712.648, 1004.267 718.448 C 1005.224 733.140, 1011.149 743.444, 1022.145 749.534 C 1027.171 752.318, 1028.176 752.500, 1038.500 752.500 C 1048.720 752.500, 1049.961 752.281, 1056 749.414 C 1059.575 747.716, 1065.047 743.995, 1068.160 741.145 C 1071.274 738.295, 1073.985 736.454, 1074.185 737.055 C 1074.385 737.655, 1077.913 735.698, 1082.024 732.706 C 1086.136 729.713, 1091.525 726.207, 1094 724.914 C 1100.044 721.758, 1096.704 721.171, 1088.593 723.965 C 1081.338 726.464, 1080 726.500, 1080 724.196 C 1080 722.122, 1084.029 718.118, 1092.250 712.023 C 1095.412 709.678, 1098 707.384, 1098 706.925 C 1098 706.465, 1094.963 707.245, 1091.250 708.657 C 1087.537 710.069, 1082.952 711.773, 1081.060 712.442 C 1077.754 713.612, 1077.551 713.982, 1075.826 722.004 C 1073.935 730.794, 1071.526 735.193, 1065.395 741.054 L 1061.791 744.500 1064.394 740.613 C 1068.272 734.822, 1069.354 729.686, 1069.264 717.500 C 1069.137 700.126, 1064.043 683.036, 1056.642 675.153 C 1052.628 670.877, 1049.709 669.720, 1046.559 671.155 C 1044.519 672.085, 1043.401 671.839, 1039.635 669.632 C 1034.235 666.467, 1032.728 666.394, 1027.394 669.034 M 311 672.005 C 307.975 673.035, 302.913 674.388, 299.750 675.011 C 293.750 676.193, 293.300 676.786, 294.632 681.756 L 295.236 684.012 300.868 680.804 C 320.919 669.383, 322.349 668.141, 311 672.005 M 500.137 680.455 C 495.537 682.309, 491.324 684.276, 490.774 684.826 C 489.443 686.157, 490.676 688, 492.899 688 C 495.615 688, 506.317 682.356, 508.984 679.517 C 512.168 676.128, 510.411 676.314, 500.137 680.455 M 704.994 677.934 C 699.334 679.656, 696 682.038, 696 684.359 C 696 685.628, 696.269 686.936, 696.598 687.265 C 697.209 687.876, 708.229 679.399, 708.833 677.853 C 709.220 676.864, 708.459 676.880, 704.994 677.934 M 899.341 684.929 C 893.928 687.640, 888.178 691.240, 886.563 692.929 C 882.502 697.175, 884.772 696.914, 895.455 691.908 C 901.327 689.156, 905.629 687.795, 908.593 687.750 C 912.239 687.695, 913 687.354, 913 685.776 C 913 683.440, 911.246 680, 910.055 680 C 909.574 680, 904.753 682.218, 899.341 684.929 M 1093.500 684.386 C 1083.877 689.033, 1074.216 696.543, 1079 695.659 C 1080.375 695.405, 1085.206 693.550, 1089.735 691.536 C 1094.561 689.391, 1099.633 687.852, 1101.985 687.820 C 1105.492 687.771, 1106 687.473, 1106 685.464 C 1106 682.291, 1105.006 679.996, 1103.643 680.020 C 1103.014 680.032, 1098.450 681.996, 1093.500 684.386 M 607 684.595 C 604.525 686.561, 602.313 688.357, 602.083 688.585 C 601.854 688.813, 602.626 689, 603.799 689 C 605.950 689, 613 683.557, 613 681.896 C 613 680.311, 611.598 680.941, 607 684.595 M 782.143 686.570 C 770.895 689.544, 769 690.474, 769 693.021 C 769 694.945, 769.070 694.944, 774.250 692.946 C 785.737 688.516, 792 685.659, 792 684.850 C 792 684.382, 791.888 684.021, 791.750 684.048 C 791.612 684.074, 787.289 685.209, 782.143 686.570 M 977.500 685.983 C 965.364 689.229, 962.528 690.499, 962.180 692.845 C 962.005 694.030, 962.067 695, 962.319 695 C 963.530 695, 984.425 685.975, 985.346 685.054 C 986.746 683.654, 985.775 683.769, 977.500 685.983 M 455.500 690.676 C 449.566 691.994, 435.172 699.505, 436.341 700.674 C 436.998 701.331, 455.183 693.245, 456.892 691.536 C 457.737 690.691, 458.220 690.052, 457.964 690.116 C 457.709 690.180, 456.600 690.432, 455.500 690.676 M 463.421 692.896 C 459.244 694.793, 455 699.198, 455 701.635 C 455 703.463, 454.742 703.536, 463.941 699.088 C 468.719 696.778, 474.994 694.672, 479.266 693.947 C 488.120 692.444, 486.208 691.164, 475 691.092 C 469.749 691.058, 466.277 691.599, 463.421 692.896 M 892.777 695.699 C 888.030 697.885, 884.815 700.006, 884.436 701.203 C 882.944 705.902, 887.183 704.713, 897.487 697.540 C 903.674 693.234, 904.896 692.016, 902.973 692.071 C 901.613 692.111, 897.025 693.743, 892.777 695.699 M 908.628 694.478 C 906.620 695.840, 901.078 699.302, 896.314 702.169 C 891.549 705.037, 888.088 707.529, 888.623 707.708 C 889.158 707.886, 895.199 706.112, 902.048 703.766 L 914.500 699.500 914.810 695.750 C 915.187 691.204, 913.856 690.930, 908.628 694.478 M 1086.011 695.660 C 1078.583 699.127, 1077.045 700.340, 1077.015 702.750 C 1076.978 705.786, 1083.853 702.906, 1092.931 696.082 C 1097.497 692.650, 1097.974 692.013, 1095.931 692.082 C 1094.594 692.127, 1090.130 693.738, 1086.011 695.660 M 1100.487 695.332 C 1097.744 697.164, 1092.171 700.629, 1088.103 703.033 C 1084.035 705.436, 1081.117 707.539, 1081.618 707.706 C 1082.119 707.873, 1088.373 706.058, 1095.515 703.673 L 1108.500 699.336 1108.810 695.668 C 1109.214 690.896, 1107.245 690.817, 1100.487 695.332 M 325.500 693.724 C 323.850 693.957, 317.848 695.240, 312.161 696.574 C 306.475 697.908, 300.758 699, 299.457 699 C 296.724 699, 296.449 700.086, 295.469 714.740 C 295.097 720.313, 295.332 726.961, 296.063 731.490 C 297.144 738.193, 297.511 739, 299.473 739 C 300.683 739, 304.784 736.961, 308.586 734.469 L 315.500 729.937 307.150 730.606 C 299.319 731.234, 298.823 731.158, 299.163 729.388 C 299.362 728.350, 304.469 723.750, 310.513 719.168 C 320.970 711.237, 324.107 708.254, 320.558 709.616 C 319.672 709.956, 314.607 709.908, 309.301 709.511 L 299.653 708.787 303.647 705.100 C 306.914 702.083, 308.903 701.183, 314.570 700.153 C 321.734 698.851, 330 695.507, 330 693.911 C 330 693.410, 329.663 693.067, 329.250 693.150 C 328.837 693.232, 327.150 693.491, 325.500 693.724 M 778.287 698.011 C 771.164 699.052, 766.862 701.766, 765.132 706.313 C 764.351 708.366, 763.936 710.269, 764.209 710.543 C 764.640 710.973, 779.137 706.264, 795.500 700.377 C 800.464 698.591, 800.478 698.573, 797.500 697.907 C 793.528 697.019, 784.751 697.067, 778.287 698.011 M 971.287 698.011 C 963.942 699.084, 959.773 701.777, 958.228 706.446 C 957.529 708.560, 957.147 710.480, 957.379 710.713 C 957.831 711.165, 969.835 707.253, 984.500 701.873 C 992.741 698.850, 993.247 698.516, 990.500 697.904 C 986.523 697.019, 977.744 697.068, 971.287 698.011 M 714.500 700.193 C 712.850 701.364, 708.708 705.030, 705.295 708.338 C 700.155 713.321, 698.911 715.189, 698.045 719.226 C 696.727 725.372, 696.679 746.026, 697.975 749.435 C 698.994 752.115, 701 752.950, 701 750.694 C 701 748.459, 705.223 743.548, 712.306 737.546 C 716.050 734.374, 718.891 731.558, 718.621 731.288 C 718.351 731.017, 715.821 731.563, 713 732.500 C 705.789 734.895, 705.525 733.540, 712.596 730.426 C 715.843 728.995, 719.288 727.120, 720.250 726.258 C 722.047 724.648, 722.634 720.510, 721.192 719.619 C 720.204 719.008, 708.540 726.219, 704.760 729.776 C 703.254 731.194, 701.728 732.062, 701.371 731.704 C 699.964 730.297, 703.842 726.677, 710.506 723.175 C 717.186 719.665, 720.997 715.422, 719.559 713.096 C 719.255 712.603, 714.842 713.484, 709.753 715.053 C 699.500 718.214, 700.215 716.945, 711.564 711.843 L 718.998 708.500 718.999 703.250 C 719 700.362, 718.663 698.014, 718.250 698.032 C 717.837 698.049, 716.150 699.022, 714.500 700.193 M 320.250 701.655 C 316.813 703.061, 314 704.614, 314 705.106 C 314 705.598, 316.825 706, 320.277 706 C 327.025 706, 330.378 704.486, 331.282 701.031 C 332.027 698.180, 328.215 698.396, 320.250 701.655 M 464.330 703.350 C 456.062 707.692, 450.422 711.506, 446.160 715.638 C 444.874 716.886, 441.651 719.299, 438.999 721 C 433.258 724.685, 432.187 726.611, 435.525 727.250 C 437.240 727.577, 438.692 726.871, 440.704 724.729 C 444.353 720.846, 449.975 718.341, 451.069 720.112 C 452.156 721.870, 436.981 733.091, 435.298 731.775 C 433.964 730.732, 430 731.644, 430 732.994 C 430 733.467, 430.788 734.005, 431.750 734.190 C 433.063 734.443, 432.563 735.107, 429.750 736.845 C 425.939 739.201, 424.298 742.968, 427.750 741.438 C 428.712 741.012, 430.744 740.586, 432.264 740.492 C 433.785 740.398, 436.064 739.349, 437.329 738.161 C 439.696 735.937, 442 735.313, 442 736.896 C 442 738.281, 436.144 743.107, 426.200 749.917 C 417.408 755.939, 413.839 759.004, 415.628 758.996 C 416.437 758.993, 418.190 758.018, 426.750 752.813 C 429.460 751.165, 429.897 751.104, 429.383 752.445 C 429.043 753.329, 426.879 755.159, 424.572 756.511 C 418.232 760.226, 415.630 763.388, 416.397 766.445 C 417.202 769.652, 418.324 769.680, 420.380 766.543 C 421.265 765.192, 425.403 761.562, 429.576 758.476 C 434.204 755.053, 436.964 752.348, 436.653 751.539 C 436.374 750.810, 437.274 749.153, 438.654 747.856 C 440.034 746.560, 443.202 741.553, 445.694 736.728 C 449.200 729.941, 451.710 726.616, 456.784 722.037 C 462.658 716.735, 463.196 715.941, 461.935 714.422 C 460.675 712.904, 461.232 712.073, 467.264 706.469 C 476.981 697.443, 476.516 696.949, 464.330 703.350 M 442.974 703.361 C 435.736 705.900, 422 713.551, 422 715.044 C 422 715.570, 422.705 716, 423.567 716 C 424.729 716, 424.957 716.582, 424.449 718.250 C 423.471 721.458, 420.994 724, 418.845 724 C 417.830 724, 417 724.627, 417 725.393 C 417 726.848, 419.077 728, 421.699 728 C 424.072 728, 437.228 717.680, 442.372 711.783 C 446.041 707.578, 447.173 706.795, 447.922 707.948 C 448.668 709.096, 448.999 708.853, 449.520 706.777 C 450.906 701.256, 450.130 700.851, 442.974 703.361 M 600.069 706.515 C 593.984 712.320, 593.837 712.581, 594.461 716.488 C 595.348 722.040, 596.282 722.607, 600.376 720.076 C 606.680 716.180, 609.521 708.753, 607.089 702.528 C 606.395 700.753, 605.690 701.154, 600.069 706.515 M 795.186 704.449 C 787.285 707.384, 786.659 708, 791.583 707.998 C 795.779 707.997, 802.129 705.303, 802.774 703.250 C 803.296 701.587, 802.592 701.699, 795.186 704.449 M 988.213 704.468 C 979.838 707.496, 979.335 708.341, 986.235 707.793 C 991.595 707.368, 996 705.136, 996 702.845 C 996 701.722, 995.542 701.817, 988.213 704.468 M 909.355 708.110 C 899.858 715.298, 895.039 719.377, 895.018 720.246 C 894.993 721.286, 904.091 717.723, 909.389 714.618 C 916.417 710.499, 921.687 703, 917.553 703 C 916.757 703, 913.068 705.299, 909.355 708.110 M 1107.265 704.750 C 1103.415 706.853, 1088.116 719.190, 1088.048 720.246 C 1087.981 721.293, 1097.118 717.707, 1102.389 714.618 C 1107.170 711.816, 1112 706.693, 1112 704.423 C 1112 702.570, 1111.149 702.628, 1107.265 704.750 M 505.558 707.492 C 501.157 709.060, 497.185 711.760, 495.613 714.252 C 493.726 717.244, 495.894 717.346, 500.057 714.461 C 503.430 712.123, 504.305 711.876, 505.033 713.054 C 505.592 713.959, 506.210 714.119, 506.716 713.492 C 507.156 712.946, 508.834 711.038, 510.445 709.250 C 513.021 706.392, 513.141 706.005, 511.437 706.044 C 510.372 706.068, 507.726 706.720, 505.558 707.492 M 601.250 710.491 C 597.538 712.104, 596.727 714.515, 600.250 713.463 C 602.651 712.746, 607.104 708.973, 605.472 709.039 C 604.938 709.061, 603.038 709.714, 601.250 710.491 M 319.991 717.305 L 311.500 723.500 317 724 C 321.749 724.432, 322.543 724.805, 322.818 726.735 C 323.235 729.676, 319.746 732.835, 311.009 737.426 C 307.195 739.430, 303.806 741.505, 303.477 742.037 C 303.101 742.645, 307.260 742.911, 314.660 742.752 C 325.153 742.528, 326.479 742.689, 326.790 744.233 C 327.316 746.837, 322.750 750.470, 313.258 755.002 C 304.840 759.021, 302.653 761.260, 309.283 759.072 C 314.262 757.429, 323.844 756.003, 325.539 756.653 C 329.785 758.283, 325.310 763.686, 316.205 767.921 C 311.535 770.093, 309.512 772, 311.877 772 C 314.841 772, 327.327 768.530, 328.467 767.390 C 329.222 766.635, 330.143 763.179, 330.515 759.709 C 331.478 750.716, 330.694 714.827, 329.491 712.805 C 328.602 711.311, 327.473 711.846, 319.991 717.305 M 782 712.427 C 769.444 715.218, 763 719.004, 763 723.589 C 763 726.570, 763.456 726.573, 770.129 723.636 C 773.083 722.336, 778.875 720.081, 783 718.625 C 787.125 717.169, 792.300 714.872, 794.500 713.520 L 798.500 711.062 793 711.134 C 789.975 711.173, 785.025 711.755, 782 712.427 M 974.963 712.492 C 962.931 714.891, 956 719.021, 956 723.791 C 956 726.600, 955.229 726.734, 969 721.532 C 980.032 717.366, 989.946 712.897, 990.637 711.779 C 991.361 710.607, 982.363 711.016, 974.963 712.492 M 477.882 715.381 C 471.992 717.486, 467.484 720.710, 461.704 726.953 C 445.252 744.723, 448.309 762.506, 467.500 760.663 C 475.493 759.896, 482.318 757.439, 485.992 754.008 L 489 751.198 489 734.599 C 489 719.333, 488.839 717.839, 487 716 C 484.697 713.697, 482.929 713.577, 477.882 715.381 M 799.826 716.070 C 798.905 716.589, 793.545 718.618, 787.915 720.578 C 776.540 724.537, 769 727.860, 769 728.913 C 769 730.067, 791.251 726.024, 794.935 724.200 C 796.825 723.265, 799.241 721.309, 800.303 719.854 C 802.579 716.737, 802.317 714.663, 799.826 716.070 M 992.854 716.053 C 991.949 716.564, 987.224 718.376, 982.354 720.079 C 971.017 724.043, 962 728.042, 962 729.105 C 962 729.563, 962.563 729.733, 963.250 729.484 C 963.938 729.234, 969.183 728.337, 974.908 727.490 C 985.972 725.853, 991.940 723.349, 994.015 719.471 C 995.598 716.514, 995.025 714.828, 992.854 716.053 M 511.500 716.680 C 499.327 719.408, 496.422 722.164, 497.496 729.973 C 497.877 732.738, 498.494 735, 498.869 735 C 500.247 735, 513.816 720.427, 514.465 718.250 C 515.146 715.961, 515.017 715.892, 511.500 716.680 M 915.845 719.633 C 913.455 721.631, 910.038 723.965, 908.250 724.818 C 906.462 725.672, 905 726.737, 905 727.185 C 905 728.316, 905.684 728.213, 908.800 726.614 C 910.285 725.852, 914.121 724.688, 917.324 724.028 C 921.807 723.104, 923.016 722.483, 922.574 721.332 C 922.258 720.509, 922 718.973, 922 717.918 C 922 715.173, 920.767 715.517, 915.845 719.633 M 1108.713 719.816 C 1106.288 721.914, 1102.886 724.219, 1101.152 724.937 C 1099.418 725.655, 1098 726.686, 1098 727.228 C 1098 727.783, 1098.765 727.890, 1099.750 727.472 C 1105.075 725.214, 1108.776 724.081, 1111 724.029 C 1115.010 723.934, 1116.097 722.733, 1115.387 719.184 C 1115.037 717.433, 1114.384 716, 1113.936 716 C 1113.488 716, 1111.138 717.717, 1108.713 719.816 M 602.497 721.211 C 599.866 723.528, 596.887 727.240, 595.878 729.461 C 593.992 733.614, 593.290 744, 594.896 744 C 596.555 744, 611.005 729.517, 611.002 727.856 C 611 726.443, 610.403 726.343, 606.750 727.143 C 604.413 727.655, 601.656 728.331, 600.625 728.644 C 599.405 729.015, 598.989 728.827, 599.434 728.107 C 599.811 727.497, 602.103 726.499, 604.529 725.888 C 609.833 724.553, 611.435 722.868, 610.593 719.513 C 609.711 716.001, 608.011 716.358, 602.497 721.211 M 516.250 721.060 C 515.013 721.541, 514 722.673, 514 723.574 C 514 724.475, 512.650 726.917, 511 729 C 509.350 731.083, 508 733.039, 508 733.346 C 508 734.397, 517.186 731.141, 519.095 729.414 C 522.824 726.039, 520.558 719.383, 516.250 721.060 M 1112.500 727.535 C 1110.850 728.806, 1103.200 733.212, 1095.500 737.326 C 1076.180 747.647, 1072.247 749.974, 1074.093 749.988 C 1077.723 750.015, 1112.314 736.100, 1114.819 733.604 C 1115.566 732.861, 1116 730.757, 1115.819 728.757 L 1115.500 725.223 1112.500 727.535 M 917 729.062 C 914.525 730.741, 908.225 734.294, 903 736.958 C 889.120 744.034, 879.254 750, 881.432 750 C 883.387 750, 909.975 739.595, 918 735.690 C 922.009 733.739, 922.534 733.091, 922.810 729.750 C 922.981 727.688, 922.756 726.002, 922.310 726.004 C 921.865 726.007, 919.475 727.382, 917 729.062 M 782.500 729.072 C 770.568 731.947, 766 733.858, 766 735.976 C 766 740.077, 770.160 739.384, 785.232 732.770 C 799.033 726.714, 798.014 725.335, 782.500 729.072 M 974.416 729.405 C 962.550 732.298, 959 733.820, 959 736.014 C 959 740.069, 964.409 739.107, 979.278 732.407 C 992.337 726.522, 990.612 725.457, 974.416 729.405 M 790.012 733.085 C 777.012 738.032, 775.504 739.280, 783.513 738.461 C 793.593 737.431, 799.831 735.957, 802.186 734.050 C 804.112 732.491, 804.243 731.997, 803.095 730.615 C 802.358 729.727, 801.473 729.021, 801.128 729.047 C 800.782 729.072, 795.780 730.889, 790.012 733.085 M 983.021 733.100 C 970.279 737.912, 968.295 739.458, 976 738.570 C 986.013 737.416, 993.879 735.809, 995.574 734.570 C 997.433 733.210, 996.742 728.947, 994.683 729.071 C 994.032 729.111, 988.785 730.923, 983.021 733.100 M 416.148 732.852 C 413.854 735.146, 412 739.040, 412 741.565 C 412 743.769, 415.575 743.270, 418.635 740.637 L 421.382 738.275 419.126 737.068 C 417.342 736.113, 417.113 735.569, 418.030 734.464 C 420.177 731.877, 418.531 730.469, 416.148 732.852 M 608.500 735.850 C 604.630 738.239, 596.673 746.797, 594.607 750.793 C 593.289 753.343, 593 757.483, 593 773.856 L 593 793.811 603.250 793.283 C 608.888 792.992, 613.895 792.393, 614.377 791.950 C 615.341 791.066, 614.600 787.351, 612.991 785 C 612.094 783.690, 611.833 783.722, 610.932 785.250 C 609.454 787.758, 604.640 790.004, 600.800 789.978 L 597.500 789.956 600 788.003 C 601.375 786.928, 605.313 784.813, 608.750 783.302 C 614.587 780.737, 615 780.338, 615 777.277 C 615 771.714, 611.306 773.340, 602.277 782.879 C 597.711 787.702, 595.757 789.157, 594.942 788.342 C 592.617 786.017, 597.346 780.151, 608.500 771.525 C 616.068 765.673, 616.064 765.687, 610 766.384 C 604.833 766.979, 604.621 766.920, 606.500 765.410 C 607.600 764.526, 609.737 763.353, 611.250 762.804 C 613.515 761.980, 614 761.205, 614 758.402 C 614 756.531, 613.771 755, 613.492 755 C 613.212 755, 609.734 757.728, 605.763 761.063 C 601.703 764.471, 598.371 766.614, 598.152 765.956 C 597.938 765.313, 600.966 761.561, 604.881 757.620 C 609.429 753.041, 612 749.649, 612 748.226 C 612 745.338, 610.737 745.413, 607.405 748.500 C 605.604 750.170, 603.554 751, 601.232 751 C 597.877 751, 597.807 750.924, 599.214 748.805 C 600.015 747.597, 602.563 745.979, 604.876 745.208 C 609.652 743.616, 612.296 740.326, 611.823 736.564 L 611.500 733.998 608.500 735.850 M 503.250 736.732 C 499.019 737.113, 499 737.133, 499 741.130 L 499 745.145 501.557 743.134 C 502.963 742.028, 506.338 740.384, 509.057 739.481 C 511.775 738.578, 514 737.425, 514 736.920 C 514 736.015, 511.665 735.974, 503.250 736.732 M 519.370 737.440 C 514.744 739.454, 514.253 741, 518.241 741 C 521.728 741, 524 739.541, 524 737.300 C 524 735.695, 523.335 735.715, 519.370 737.440 M 713.268 740.976 C 707.156 745.842, 702.562 751.611, 704.061 752.538 C 705.493 753.423, 711.407 752.251, 715.601 750.251 C 718.891 748.682, 719 748.443, 719 742.815 C 719 739.617, 718.834 737, 718.631 737 C 718.427 737, 716.014 738.789, 713.268 740.976 M 789 739.559 C 779.173 741.367, 772.734 743.297, 772.313 744.562 C 772.126 745.123, 772.568 746.394, 773.294 747.388 C 774.553 749.109, 775.066 749.040, 784.058 745.947 C 789.251 744.160, 795.750 741.678, 798.500 740.431 L 803.500 738.164 800 738.172 C 798.075 738.176, 793.125 738.800, 789 739.559 M 884.063 739.911 C 878.860 742.021, 872 747.496, 872 749.539 C 872 750.506, 874.500 749.497, 879.750 746.413 C 892.188 739.105, 894.446 735.700, 884.063 739.911 M 982 739.559 C 971.954 741.407, 965.732 743.304, 965.281 744.656 C 965.078 745.267, 965.614 746.471, 966.473 747.331 C 967.821 748.678, 968.619 748.718, 972.268 747.618 C 979.017 745.584, 994.410 739.754, 995.450 738.837 C 996.820 737.630, 990.704 737.958, 982 739.559 M 1080 738.935 C 1072.969 741.082, 1064.276 747.460, 1065.143 749.836 C 1065.557 750.972, 1079.160 743.284, 1082.313 740.132 C 1084.549 737.896, 1084.124 737.676, 1080 738.935 M 901.112 754.035 C 891.191 760.654, 882.806 766.504, 882.478 767.035 C 881.274 768.984, 884.980 767.893, 894.375 763.533 C 901.545 760.205, 904 759.444, 904 760.550 C 904 762.688, 912.564 758.159, 916.689 753.839 C 921.367 748.940, 923.645 742, 920.574 742 C 919.790 742, 911.032 747.416, 901.112 754.035 M 1108.318 744.893 C 1101.496 748.655, 1076.009 766.288, 1076.004 767.250 C 1075.997 768.615, 1077.767 768.043, 1087.429 763.558 C 1094.453 760.298, 1097 759.504, 1097 760.575 C 1097 762.430, 1105.125 758.487, 1109.301 754.605 C 1113.196 750.984, 1116.745 741.958, 1114.250 742.018 C 1113.838 742.028, 1111.168 743.322, 1108.318 744.893 M 800 744.586 C 797.525 745.385, 793.062 746.368, 790.083 746.769 C 782.406 747.805, 782.120 750.007, 789.667 749.976 C 799.611 749.934, 810.286 746.910, 809.326 744.407 C 808.654 742.655, 805.813 742.710, 800 744.586 M 899.695 745.060 C 897.052 746.132, 891.251 749.109, 886.803 751.674 C 872.759 759.775, 863 762.983, 863 759.500 C 863 758.675, 862.620 758, 862.157 758 C 860.637 758, 849.746 761.966, 848.558 762.952 C 847.796 763.584, 845.241 763.243, 841.110 761.957 C 833.573 759.611, 831.875 759.510, 832.620 761.452 C 833.187 762.929, 837.480 764.641, 842 765.194 C 844.046 765.445, 843.094 766.226, 836.754 769.500 C 832.494 771.700, 829.007 773.823, 829.004 774.219 C 829.002 774.614, 829.563 774.744, 830.250 774.508 C 831.786 773.980, 855.971 768, 856.569 768 C 856.806 768, 857 768.841, 857 769.869 C 857 771.198, 855.265 772.491, 851 774.341 C 847.700 775.772, 845 777.186, 845 777.483 C 845 777.780, 846.913 777.754, 849.250 777.424 C 858.200 776.161, 866.109 772.755, 876.738 765.589 C 882.657 761.599, 892.331 755.302, 898.235 751.596 C 904.139 747.890, 909.228 744.440, 909.544 743.929 C 910.522 742.347, 904.743 743.010, 899.695 745.060 M 993 744.664 C 990.525 745.493, 986.061 746.471, 983.081 746.836 C 974.822 747.848, 975.234 750.019, 983.667 749.920 C 992.096 749.821, 1002.500 747.100, 1002.500 744.995 C 1002.500 742.958, 998.502 742.819, 993 744.664 M 1080.699 751.412 C 1063.413 760.365, 1057 762.550, 1057 759.486 C 1057 757.282, 1052.958 757.957, 1045.377 761.428 L 1040.129 763.830 1033.975 761.915 C 1030.591 760.862, 1027.087 760, 1026.189 760 C 1022.802 760, 1028.504 764.019, 1033.045 764.833 L 1037.500 765.631 1030.324 769.291 C 1026.378 771.303, 1022.907 773.341, 1022.612 773.818 C 1022.171 774.532, 1035.147 771.739, 1047.250 768.516 C 1049.582 767.895, 1050 768.089, 1050 769.796 C 1050 771.293, 1048.590 772.393, 1044.500 774.088 C 1041.475 775.342, 1039 776.735, 1039 777.184 C 1039 778.190, 1038.496 778.210, 1045.464 776.922 C 1053.897 775.363, 1059.809 772.446, 1075 762.348 C 1082.425 757.413, 1092.100 751.044, 1096.500 748.195 L 1104.500 743.015 1100.720 743.007 C 1097.924 743.002, 1092.711 745.190, 1080.699 751.412 M 308.414 745.467 C 297.509 747.448, 295.420 749.178, 298.035 754.066 C 299.560 756.914, 302.264 756.460, 310.297 752.006 C 320.844 746.159, 320.798 746.196, 319 745.015 C 317.216 743.844, 317.392 743.837, 308.414 745.467 M 510.176 746.440 C 505.048 747.709, 500.400 749.200, 499.847 749.753 C 499.295 750.305, 498.584 752.681, 498.269 755.031 L 497.696 759.304 501.763 758.759 C 505.986 758.192, 511.297 754.882, 519 748.016 C 524.374 743.226, 523.669 743.100, 510.176 746.440 M 417.265 748.855 C 413.974 750.517, 412.024 752.150, 412.015 753.250 C 411.994 755.682, 413.739 755.437, 417.642 752.459 C 420.238 750.479, 424.199 745.585, 422.785 746.105 C 422.628 746.162, 420.144 747.400, 417.265 748.855 M 518.711 751.098 C 514.594 755.106, 514.795 755.232, 521.212 752.672 C 524.320 751.432, 524.487 751.535, 525.373 755.229 C 525.982 757.767, 525.608 758.169, 520.014 760.993 C 516.706 762.663, 514 764.263, 514 764.549 C 514 764.835, 516.185 764.779, 518.855 764.425 C 523.228 763.845, 523.764 763.990, 524.261 765.889 C 524.667 767.443, 524.032 768.553, 521.848 770.108 C 520.218 771.269, 519.121 772.455, 519.410 772.744 C 519.971 773.304, 522.724 772.293, 532.842 767.811 L 539.183 765.001 533.592 759.714 C 528.981 755.354, 528 753.842, 528 751.096 C 528 748.258, 527.705 747.844, 525.999 748.290 C 524.898 748.578, 524.249 748.405, 524.558 747.907 C 526.050 745.492, 522.456 747.454, 518.711 751.098 M 797.174 751.557 C 794.795 752.305, 789.688 753.355, 785.826 753.890 C 781.963 754.425, 778.549 755.117, 778.239 755.427 C 777.405 756.262, 779.770 760.975, 781.322 761.570 C 782.932 762.188, 798.155 756.806, 802.799 753.978 C 806.122 751.955, 806.328 749.915, 803.191 750.099 C 802.261 750.153, 799.553 750.810, 797.174 751.557 M 987 752.101 C 982.325 753.129, 976.813 754.222, 974.750 754.531 C 970.578 755.154, 970.054 756.610, 972.787 759.985 C 974.448 762.037, 974.888 762.108, 979.037 760.994 C 985.860 759.164, 999.110 752.831, 998.699 751.596 C 998.156 749.966, 996.356 750.044, 987 752.101 M 709 754.588 C 702.049 756.429, 698.818 758.779, 697.306 763.094 C 695.991 766.847, 695.557 780.013, 696.750 779.979 C 697.163 779.967, 700.611 777.942, 704.414 775.479 C 708.216 773.015, 711.725 771, 712.212 771 C 713.204 771, 717.919 765.901, 717.968 764.775 C 718.017 763.659, 712.145 764.989, 705.548 767.586 C 702.275 768.876, 699.390 769.723, 699.136 769.469 C 698.883 769.216, 699.167 767.929, 699.768 766.609 C 700.462 765.086, 703.350 763.049, 707.681 761.029 C 714.024 758.069, 717 755.764, 717 753.809 C 717 752.721, 715.500 752.867, 709 754.588 M 433.297 759.422 C 429.220 763.235, 427.810 765.162, 428.546 765.918 C 429.289 766.681, 430.665 766.445, 433.296 765.104 C 435.333 764.065, 437 763.547, 437 763.953 C 437 765.061, 433.908 767.552, 430.197 769.433 C 425.470 771.828, 423 774.614, 423 777.551 C 423 780.838, 429.044 783.757, 432.545 782.161 C 437.935 779.706, 444.734 771.927, 446.453 766.251 C 447.005 764.428, 446.628 763.809, 444.465 762.987 C 442.696 762.314, 441.990 761.467, 442.372 760.474 C 443.003 758.828, 441.150 754, 439.886 754 C 439.450 754, 436.485 756.440, 433.297 759.422 M 809.537 755.354 C 805.408 757.115, 807.868 758.397, 813.699 757.522 C 820.103 756.562, 821.525 755.948, 819.834 754.876 C 817.913 753.659, 812.974 753.888, 809.537 755.354 M 1003.186 755.055 C 999.302 756.612, 1001.703 758.272, 1006.746 757.515 C 1012.495 756.653, 1014.127 756.014, 1013.435 754.895 C 1012.725 753.746, 1006.195 753.848, 1003.186 755.055 M 485.500 760.134 C 480.765 762.793, 469.593 775, 471.893 775 C 472.459 775, 476.606 772.492, 481.107 769.427 C 487.352 765.175, 489.491 764.167, 490.134 765.177 C 491.130 766.742, 488.292 769.307, 476 777.953 C 461.915 787.860, 462.253 787.176, 471.695 786.652 C 484.303 785.952, 492.317 781.839, 499.989 772.133 C 502.221 769.310, 504.695 767, 505.488 767 C 506.281 767, 507.411 766.100, 508 765 C 509.258 762.649, 509.252 762.648, 501.500 764.520 C 493.725 766.397, 494.175 766.501, 493.813 762.750 C 493.543 759.942, 493.092 759.467, 490.500 759.255 C 488.850 759.121, 486.600 759.516, 485.500 760.134 M 822 761.765 L 816.500 764.415 820.320 764.772 C 824.234 765.138, 826.363 764.059, 828.090 760.832 C 829.360 758.460, 828.628 758.572, 822 761.765 M 1015.250 761.562 C 1012.362 762.882, 1010 764.195, 1010 764.481 C 1010 764.766, 1011.800 765, 1014 765 C 1017.883 765, 1022 762.427, 1022 760 C 1022 758.635, 1021.304 758.796, 1015.250 761.562 M 908 763.498 C 904.425 765.368, 897.225 768.341, 892 770.104 C 886.775 771.867, 881.430 774.027, 880.123 774.905 C 878.815 775.782, 872.749 778.975, 866.644 782 C 849.906 790.292, 850.950 792.385, 869.603 787.935 C 883.928 784.517, 899.706 778.171, 906.264 773.188 C 911.031 769.565, 916 763.446, 916 761.196 C 916 759.486, 915.261 759.699, 908 763.498 M 1100 764.066 C 1095.875 766.173, 1088.675 769.123, 1084 770.620 C 1079.325 772.118, 1074.888 773.828, 1074.140 774.422 C 1073.391 775.015, 1067.337 778.200, 1060.685 781.500 C 1042.934 790.306, 1043.568 792.480, 1062.562 787.938 C 1084.360 782.726, 1102.061 773.867, 1107.060 765.670 C 1109.043 762.417, 1109.580 759.910, 1108.250 760.117 C 1107.838 760.181, 1104.125 761.958, 1100 764.066 M 798.330 763.347 C 792.187 764.531, 786.849 765.813, 786.468 766.196 C 785.601 767.067, 791.523 770.736, 795.043 771.509 C 797.036 771.947, 799.750 770.859, 806.333 766.985 C 811.100 764.179, 815 761.685, 815 761.442 C 815 760.578, 809.347 761.224, 798.330 763.347 M 991.581 763.361 C 985.575 764.538, 980.492 766.012, 980.285 766.638 C 979.928 767.717, 987.438 772, 989.685 772 C 991.037 772, 1006.843 763.062, 1007.570 761.887 C 1008.393 760.555, 1003.701 760.987, 991.581 763.361 M 307 763.082 C 298.630 764.688, 298.178 764.911, 297.567 767.749 C 296.493 772.732, 295.122 790.155, 295.688 791.629 C 297.207 795.588, 311.922 798.338, 325.678 797.234 L 332.067 796.721 331.783 786.622 C 331.556 778.536, 331.197 776.466, 329.981 776.233 C 327.910 775.837, 324.061 778.943, 325.750 779.646 C 327.143 780.226, 327.397 783.826, 326.180 785.742 C 325.747 786.426, 323.166 787.242, 320.446 787.556 C 317.726 787.871, 312.463 788.823, 308.751 789.671 C 295.164 792.779, 296.598 788.550, 311.500 781.567 C 316.450 779.247, 321.175 776.521, 322 775.509 C 323.431 773.754, 323.269 773.702, 318.500 774.373 C 305.062 776.264, 301 776.347, 301 774.733 C 301 772.909, 305.357 769.051, 311.002 765.879 C 317.524 762.213, 316.234 761.311, 307 763.082 M 830 766.987 C 825.732 768.678, 809.022 771.982, 804.574 772.015 C 802.018 772.034, 799.311 773.644, 800.252 774.585 C 800.633 774.967, 803.256 775.878, 806.080 776.611 C 810.982 777.882, 811.561 777.808, 818.900 774.978 C 826.046 772.222, 836 766.718, 836 765.522 C 836 764.760, 835.014 765.001, 830 766.987 M 1022.674 767.113 C 1020.020 768.162, 1013.495 769.701, 1008.174 770.532 C 990.295 773.325, 989.575 773.775, 998.823 776.370 C 1004.589 777.988, 1004.708 777.979, 1011.071 775.393 C 1020.075 771.734, 1026.399 768.429, 1027.935 766.578 C 1029.559 764.622, 1028.771 764.702, 1022.674 767.113 M 452 766.707 C 448.879 767.847, 443 774.785, 443 777.328 C 443 777.562, 445.137 777.527, 447.750 777.249 L 452.500 776.744 449.598 779.836 C 447.169 782.423, 446.903 783.178, 447.970 784.464 C 449.491 786.297, 453.124 786.476, 454.800 784.800 C 455.733 783.867, 456 783.894, 456 784.922 C 456 786.002, 456.284 786.009, 457.546 784.962 C 458.396 784.257, 458.887 783.149, 458.639 782.500 C 458.390 781.852, 459.461 780.568, 461.019 779.648 C 463.687 778.072, 470 770.981, 470 769.561 C 470 769.203, 468.440 769.202, 466.534 769.560 C 464.019 770.031, 462.626 769.769, 461.462 768.605 C 460.579 767.722, 459.026 767, 458.010 767 C 456.995 767, 455.564 766.811, 454.832 766.579 C 454.099 766.348, 452.825 766.405, 452 766.707 M 544.691 771.271 C 544.381 773.576, 544.215 775.548, 544.321 775.654 C 544.426 775.760, 546.057 774.586, 547.944 773.046 L 551.375 770.245 548.314 768.662 L 545.253 767.079 544.691 771.271 M 512.178 770.566 C 509.638 771.635, 508.932 772.479, 509.178 774.154 C 509.355 775.358, 509.950 776.485, 510.500 776.658 C 511.451 776.958, 516.496 770.161, 515.822 769.489 C 515.645 769.313, 514.005 769.798, 512.178 770.566 M 554.973 771.693 C 550.834 774.527, 539 785.235, 539 786.146 C 539 786.616, 542.584 787, 546.965 787 C 553.698 787, 555.083 786.713, 555.922 785.146 C 556.928 783.267, 558.626 770, 557.861 770 C 557.632 770, 556.332 770.762, 554.973 771.693 M 714.340 771.488 C 709.163 773.041, 703.719 776.825, 704.338 778.439 C 704.594 779.106, 703.326 780.447, 701.521 781.419 C 697.190 783.751, 695.575 786.919, 696.419 791.420 C 696.788 793.389, 697.281 795, 697.514 795 C 697.747 795, 701.214 792.912, 705.219 790.361 C 712.689 785.602, 720 779.320, 720 777.661 C 720 777.131, 717.951 776.987, 715.250 777.328 L 710.500 777.927 714.128 776.002 C 717.186 774.380, 719.753 771.326, 718.774 770.477 C 718.623 770.346, 716.628 770.801, 714.340 771.488 M 534.946 773.257 C 530.962 775.942, 529.028 779.293, 529.034 783.500 C 529.038 786.478, 529.082 786.455, 535.106 780.260 C 540.746 774.459, 541.858 772.119, 539.369 771.290 C 538.816 771.105, 536.826 771.991, 534.946 773.257 M 826.771 777.705 C 818.786 780.041, 816.191 782, 821.081 782 C 823.212 782, 836 776.482, 836 775.563 C 836 775.253, 835.888 775.034, 835.750 775.075 C 835.612 775.117, 831.572 776.300, 826.771 777.705 M 1019.763 777.726 C 1011.647 780.055, 1009.163 782.001, 1014.309 781.999 C 1016.547 781.998, 1029 776.525, 1029 775.542 C 1029 775.244, 1028.888 775.049, 1028.750 775.109 C 1028.612 775.169, 1024.568 776.347, 1019.763 777.726 M 859 776.693 C 853.016 777.698, 841.730 781.152, 836.343 783.626 C 830.533 786.294, 830.517 786.314, 833.500 787.036 C 840.995 788.853, 845.234 788.099, 855.617 783.106 C 861.181 780.430, 866.045 777.737, 866.426 777.120 C 867.128 775.984, 864.212 775.817, 859 776.693 M 1053.500 776.626 C 1052.400 776.842, 1049.025 777.513, 1046 778.117 C 1039.442 779.425, 1025 784.810, 1025 785.948 C 1025 786.944, 1030.056 787.998, 1034.875 788.006 C 1038.566 788.012, 1060 778.470, 1060 776.821 C 1060 775.990, 1057.161 775.905, 1053.500 776.626 M 521.037 779.110 C 517.690 780.446, 517.522 780.720, 518.980 782.476 C 520.812 784.683, 521.754 784.376, 523.500 781 C 525.160 777.791, 524.880 777.576, 521.037 779.110 M 713.248 788.227 C 707.421 791.811, 706.749 793, 710.548 793 C 711.950 793, 714.960 793.901, 717.239 795.001 C 722.001 797.302, 723.404 796.406, 722.527 791.625 C 722.237 790.044, 722 787.906, 722 786.875 C 722 784.118, 719.235 784.546, 713.248 788.227" stroke="none" fill="#000000" fill-rule="evenodd"/></svg>