<?xml version="1.0" encoding="UTF-8"?>
<svg version="1.1" xmlns="http://www.w3.org/2000/svg" width="1033" height="1033">
<path d="M0 0 C0.70147156 0.00966797 1.40294312 0.01933594 2.12567139 0.02929688 C6.3142504 0.08974358 10.5004246 0.18584129 14.6875 0.3125 C15.6249707 0.33481689 16.56244141 0.35713379 17.52832031 0.38012695 C29.90949084 0.89349821 39.48718937 5.18567036 48.109375 14.20703125 C55.66043151 23.41996558 58.88167488 33.07243609 58 45 C56.30060459 59.54620109 51.57593735 71.67143751 42 83 C41.48308594 83.63679688 40.96617187 84.27359375 40.43359375 84.9296875 C37.88363449 88.01008941 35.45604956 90.90168419 32 93 C31.34 93 30.68 93 30 93 C30 93.66 30 94.32 30 95 C15.05177033 105.69269762 -1.83326095 110.20512031 -20 109 C-23.07927809 108.47780295 -26.12369719 107.86323443 -29.17871094 107.21704102 C-55.11970147 102.03313981 -82.25332777 102.46666455 -107.07421875 111.9140625 C-109.38759089 112.77269728 -111.59535025 113.47343436 -114 114 C-114 114.66 -114 115.32 -114 116 C-119.625 119 -119.625 119 -123 119 C-123 119.66 -123 120.32 -123 121 C-124.3882428 121.94806826 -125.7828048 122.88814838 -127.20703125 123.78125 C-129.83679331 125.56880068 -132.13563969 127.69098747 -134.484375 129.828125 C-136 131 -136 131 -138 131 C-138 131.66 -138 132.32 -138 133 C-139.11981892 134.11981892 -140.24385563 135.23558934 -141.3828125 136.3359375 C-162.88721583 158.46365687 -168.53168492 184.70736745 -168.21875 214.52734375 C-168.0496656 222.99741554 -167.07837212 230.7846321 -165 239 C-164.56494141 240.76537109 -164.56494141 240.76537109 -164.12109375 242.56640625 C-155.39318536 275.25041464 -138.60568218 307.80897039 -113.80078125 331.109375 C-112 333 -112 333 -112 335 C-111.43539063 335.24363281 -110.87078125 335.48726562 -110.2890625 335.73828125 C-107.57310932 337.23529981 -105.62720762 339.05633937 -103.375 341.1875 C-92.17258631 351.42362362 -79.01434353 359.23409866 -65 365 C-64.15953125 365.37125 -63.3190625 365.7425 -62.453125 366.125 C-47.67307881 371.93449792 -30.55538766 371.44524384 -15 370 C-9.35843896 369.77625537 -3.82000465 370.00773051 1.8059082 370.46289062 C17.55757903 371.66081863 32.42384803 370.3588463 47 364 C48.546875 363.34064453 48.546875 363.34064453 50.125 362.66796875 C53.76458694 361.06596971 57.25124335 359.47090209 60.62109375 357.3515625 C63 356 63 356 66 356 C66 355.34 66 354.68 66 354 C67.36125 353.2884375 67.36125 353.2884375 68.75 352.5625 C75.34681182 348.79867485 81.91671926 344.14247112 87.23828125 338.71875 C89 337 89 337 91 337 C91 336.34 91 335.68 91 335 C92.36328125 333.6953125 92.36328125 333.6953125 94.3125 332.125 C113.97488307 315.29621168 128.65258378 292.40373097 139.11376953 268.95605469 C139.92893872 267.1568438 140.78863591 265.37798289 141.65234375 263.6015625 C149.87493395 246.65423918 155.40486327 226.88912223 156 208 C156.03996094 206.95585938 156.07992187 205.91171875 156.12109375 204.8359375 C156.65740746 178.39882646 147.16795675 153.2850803 129 134 C125.48357073 130.7826219 121.81551158 127.85357274 118 125 C117.10539063 124.32582031 116.21078125 123.65164063 115.2890625 122.95703125 C111.01434921 119.84406436 107.22938565 117.23853871 102 116 C102 115.34 102 114.68 102 114 C101.360625 113.896875 100.72125 113.79375 100.0625 113.6875 C96.76848745 112.94802779 93.66248722 111.92279102 90.4765625 110.81640625 C76.5022308 106.20972593 53.90850377 102.04574812 40 109 C38.00039988 109.039992 35.99952758 109.04346799 34 109 C34 109.66 34 110.32 34 111 C33.01 110.67 32.02 110.34 31 110 C32.45440276 106.34028002 34.18817622 104.98642896 37.5 102.9375 C52.090997 93.118667 61.6602329 77.8071905 66 61 C66.34417969 59.80632812 66.68835938 58.61265625 67.04296875 57.3828125 C68.30780269 52.29843054 68.4522841 47.21745933 68.625 42 C68.66367187 41.03449219 68.70234375 40.06898438 68.7421875 39.07421875 C68.83556941 36.7163256 68.92134329 34.35842244 69 32 C73.29370315 30.90060842 77.32128973 31.00472879 81.703125 31.26953125 C82.45039856 31.30991516 83.19767212 31.35029907 83.96759033 31.39190674 C86.39549539 31.52532328 88.82270482 31.66844271 91.25 31.8125 C92.92121449 31.90763714 94.59243852 32.00260691 96.26367188 32.09741211 C106.01603469 32.65995296 115.76145281 33.29487508 125.5 34.0625 C126.50579102 34.14153564 127.51158203 34.22057129 128.54785156 34.30200195 C135.37565284 34.87138287 135.37565284 34.87138287 138.44848633 35.50439453 C141.14558739 36.02827886 143.73793717 36.23954211 146.48046875 36.39453125 C158.5580394 37.14301323 170.5262756 38.15550968 182.5 39.9375 C183.60883545 40.09516846 184.7176709 40.25283691 185.86010742 40.4152832 C186.88595947 40.57601318 187.91181152 40.73674316 188.96875 40.90234375 C189.87044922 41.04148193 190.77214844 41.18062012 191.70117188 41.32397461 C195.90639806 42.56062194 197.40943871 45.61405939 199.72265625 49.140625 C208.86856181 62.4604796 208.86856181 62.4604796 222 71 C222 71.66 222 72.32 222 73 C222.825 73.2475 223.65 73.495 224.5 73.75 C227.12954955 74.68912484 229.21336784 75.6206883 231.625 76.9375 C240.67535398 81.53030105 250.36119247 82.53478944 260.375 82.4375 C262.01299561 82.42722778 262.01299561 82.42722778 263.68408203 82.41674805 C272.07068996 82.25031247 279.18413654 81.20117812 287 78 C288.485 77.40445313 288.485 77.40445313 290 76.796875 C295.11594794 74.60035387 299.82921998 72.03431082 304.44140625 68.91796875 C306 68 306 68 308 68 C308 67.34 308 66.68 308 66 C311.59360621 63.60426253 312.75071047 63.60654727 317 64 C318.38250395 64.43385812 319.75447588 64.90202026 321.1171875 65.39453125 C325.85184214 67.01650871 330.59183409 68.05519808 335.5 69 C341.1064515 70.07921905 346.43076473 71.40166984 351.82568359 73.27734375 C355.83039685 74.60835108 359.94126669 75.50775707 364.04882812 76.4609375 C367.38748037 77.26195141 370.57949556 78.17277369 373.78125 79.41796875 C378.89647868 81.4038005 384.16089805 82.82309586 389.4375 84.3125 C402.97627317 88.20088015 416.10480402 92.87217434 429.25708008 97.89086914 C433.35850427 99.43902814 437.47479809 100.77614182 441.6875 102 C447.36350502 103.6838581 452.54495591 105.99255696 457.8671875 108.5703125 C460.79874969 109.90815759 463.68040002 110.90880279 466.75 111.875 C474.4236441 114.60440111 479.95076886 119.62238785 484.0625 126.625 C487.25426807 133.78162875 487.39864933 142.59828201 485 150.0625 C477.324564 166.94118391 466.05335354 179.09073093 448.69140625 185.90625 C428.92818107 192.40374869 409.63384445 185.31872886 390.84375 178.90234375 C385.73810603 177.18657405 380.64853855 175.88808402 375.375 174.8125 C367.22261236 173.11130618 367.22261236 173.11130618 365 172 C343.73828453 169.36425015 326.8278612 173.39179034 309.88671875 186.55859375 C296.86588366 197.57080204 289.92762095 211.70752949 283.22265625 227.00390625 C280.37525143 233.47393205 277.19524148 239.76083328 273.98388672 246.05566406 C272.97558375 248.04825087 271.98722281 250.04966233 271.00390625 252.0546875 C265.17976436 263.90874628 258.83037875 275.31333717 251.65234375 286.4140625 C250.02804051 288.95611628 248.47478893 291.52957713 246.9375 294.125 C244.92493733 297.49186087 242.87695904 300.828986 240.75 304.125 C240.27046875 304.87007812 239.7909375 305.61515625 239.296875 306.3828125 C238.86890625 306.91648437 238.4409375 307.45015625 238 308 C237.34 308 236.68 308 236 308 C235.773125 308.68449219 235.54625 309.36898438 235.3125 310.07421875 C233.66571281 313.74518186 231.46488786 316.65392227 229 319.8125 C228.54882812 320.40998047 228.09765625 321.00746094 227.6328125 321.62304688 C226.47362397 323.12347581 225.24186081 324.56724504 224 326 C223.34 326 222.68 326 222 326 C221.7525 326.55171875 221.505 327.1034375 221.25 327.671875 C219.75765526 330.45136707 217.96327477 332.7814707 216 335.25 C215.29875 336.14203125 214.5975 337.0340625 213.875 337.953125 C213.25625 338.62859375 212.6375 339.3040625 212 340 C211.34 340 210.68 340 210 340 C210 340.66 210 341.32 210 342 C209.34 342 208.68 342 208 342 C207.79375 342.53625 207.5875 343.0725 207.375 343.625 C205.46749574 346.91978009 202.95180616 349.59363628 200 352 C199.34 352 198.68 352 198 352 C198 352.66 198 353.32 198 354 C196.35546875 355.62109375 196.35546875 355.62109375 194.1875 357.4375 C191.17536735 359.97339332 191.17536735 359.97339332 188.36328125 362.72265625 C187 364 187 364 185 364 C185 364.66 185 365.32 185 366 C183.4621582 367.38525391 183.4621582 367.38525391 181.30078125 368.9765625 C180.50978027 369.56123291 179.7187793 370.14590332 178.90380859 370.74829102 C177.62111084 371.67726196 177.62111084 371.67726196 176.3125 372.625 C175.44705566 373.25656006 174.58161133 373.88812012 173.68994141 374.53881836 C166.98563006 379.38635021 160.17424146 383.87152255 153 388 C152.24074219 388.4434375 151.48148438 388.886875 150.69921875 389.34375 C133.15133827 399.35277872 114.74337053 407.20728449 95 411.625 C94.06671875 411.8415625 93.1334375 412.058125 92.171875 412.28125 C91.24890625 412.49007813 90.3259375 412.69890625 89.375 412.9140625 C88.55773437 413.0992041 87.74046875 413.2843457 86.8984375 413.47509766 C79.07578155 414.891768 71.35937913 415.15937905 63.421875 415.16796875 C62.33344299 415.17129715 61.24501099 415.17462555 60.12359619 415.17805481 C57.83093688 415.18309382 55.53827031 415.18546408 53.24560547 415.18530273 C49.77428847 415.18748473 46.303292 415.20566091 42.83203125 415.22460938 C21.10126623 415.28121569 21.10126623 415.28121569 11 413 C10.22140625 412.82734619 9.4428125 412.65469238 8.640625 412.47680664 C5.96787558 411.84450119 3.32036544 411.12417994 0.66796875 410.41210938 C-6.73192353 408.46907931 -12.28519489 407.64829781 -19.6875 409.8125 C-32.34805143 413.39469892 -44.47393619 414.37435121 -57.5625 414.3125 C-58.36058075 414.31067719 -59.1586615 414.30885437 -59.98092651 414.30697632 C-71.89321182 414.26113974 -83.36877415 413.77176481 -95 411 C-95.78036621 410.82307617 -96.56073242 410.64615234 -97.36474609 410.46386719 C-108.3751732 407.93258377 -118.60411602 404.39280847 -129 400 C-130.37153953 399.51101634 -131.74593355 399.02983437 -133.125 398.5625 C-139.04844777 396.38153557 -144.49851208 393.05861311 -150 390 C-151.40378906 389.22462891 -151.40378906 389.22462891 -152.8359375 388.43359375 C-154.89366492 387.29437873 -156.94847642 386.15033751 -159 385 C-159 384.34 -159 383.68 -159 383 C-159.52078125 382.93167969 -160.0415625 382.86335938 -160.578125 382.79296875 C-164.0880912 381.64373788 -166.810408 379.48356608 -169.75 377.3125 C-170.36891113 376.86132812 -170.98782227 376.41015625 -171.62548828 375.9453125 C-172.8561729 375.04652321 -174.08490303 374.14505069 -175.31152344 373.24072266 C-176.7641214 372.1733278 -178.22861886 371.12216073 -179.6953125 370.07421875 C-180.41460937 369.55472656 -181.13390625 369.03523438 -181.875 368.5 C-182.49117188 368.0565625 -183.10734375 367.613125 -183.7421875 367.15625 C-184.15726562 366.7746875 -184.57234375 366.393125 -185 366 C-185 365.34 -185 364.68 -185 364 C-185.58265625 363.731875 -186.1653125 363.46375 -186.765625 363.1875 C-189.02786601 361.98519009 -190.80576318 360.66174087 -192.75 359 C-193.36359375 358.484375 -193.9771875 357.96875 -194.609375 357.4375 C-196 356 -196 356 -196 354 C-196.58136719 353.74476563 -197.16273438 353.48953125 -197.76171875 353.2265625 C-203.95855423 349.83073992 -208.70401847 343.33269967 -213.2578125 338.0234375 C-214.485738 336.59728187 -215.73241335 335.18716479 -216.9921875 333.7890625 C-217.63414062 333.07492187 -218.27609375 332.36078125 -218.9375 331.625 C-219.52402344 330.97789062 -220.11054688 330.33078125 -220.71484375 329.6640625 C-222 328 -222 328 -222 326 C-222.66 326 -223.32 326 -224 326 C-225.7265625 324.1015625 -225.7265625 324.1015625 -227.625 321.625 C-228.25664062 320.81289063 -228.88828125 320.00078125 -229.5390625 319.1640625 C-231 317 -231 317 -231 315 C-231.66 315 -232.32 315 -233 315 C-233.53882813 314.01644531 -234.07765625 313.03289062 -234.6328125 312.01953125 C-237.10067113 307.70132127 -239.96482665 303.71518356 -242.875 299.6875 C-255 282.70328647 -255 282.70328647 -255 279 C-255.66 279 -256.32 279 -257 279 C-257.45826172 278.04867187 -257.45826172 278.04867187 -257.92578125 277.078125 C-261.21479716 270.3703855 -264.7358131 263.83520588 -268.375 257.3125 C-272.99909758 248.99272227 -277.20114452 240.55681802 -281.13427734 231.89160156 C-281.9427169 230.12516342 -282.77705037 228.37064014 -283.61328125 226.6171875 C-286.67872296 220.16946255 -289.29986581 213.66016435 -291.74389648 206.9609375 C-293.78521877 201.42278796 -296.1643142 196.08962724 -298.69921875 190.7578125 C-299.69853349 188.63914522 -300.61734437 186.48236175 -301.5 184.3125 C-307.21821508 171.68477503 -315.30697052 161.21446801 -326.91015625 153.55859375 C-327.59980469 153.04425781 -328.28945313 152.52992188 -329 152 C-329 151.34 -329 150.68 -329 150 C-329.56074219 149.88398437 -330.12148438 149.76796875 -330.69921875 149.6484375 C-333.27541228 148.92237956 -335.42553796 147.83498076 -337.8125 146.625 C-359.92568492 136.43935407 -381.3948956 142.36137401 -403.34423828 149.18408203 C-407.92300182 150.59079538 -412.52211745 151.92472203 -417.125 153.25 C-418.38509888 153.61895386 -418.38509888 153.61895386 -419.6706543 153.99536133 C-429.20643044 156.73648329 -438.05383545 158.44009578 -448 158 C-448.75023437 157.98195313 -449.50046875 157.96390625 -450.2734375 157.9453125 C-463.95677185 157.10554108 -476.19179554 148.65552147 -485.49609375 139.1328125 C-493.59056514 129.67075304 -498.46306842 117.98013714 -498.3359375 105.6484375 C-497.66549221 98.36708976 -494.57473135 93.16153613 -489.3125 88.1875 C-481.77421331 82.21270981 -473.0810833 79.16525595 -464.06469727 76.14233398 C-459.8420163 74.71719747 -455.99049482 73.00339127 -452 71 C-449.95230083 70.30867153 -447.88853884 69.66339074 -445.8125 69.0625 C-440.79165982 67.60361436 -435.91006164 65.89190352 -431.00512695 64.09057617 C-416.25948471 58.73930605 -401.34728815 53.8562922 -386.1550293 49.93994141 C-382.31632985 48.9447092 -378.59164301 47.89834685 -374.89453125 46.45703125 C-370.95665183 44.92341892 -366.99793294 43.96019268 -362.875 43.0625 C-357.54955745 41.86011175 -352.29921856 40.55455557 -347.0625 39 C-344.71072271 38.32495281 -342.35633154 37.65897407 -340 37 C-339.26007813 36.79246094 -338.52015625 36.58492188 -337.7578125 36.37109375 C-335.36636034 35.71638471 -332.9671691 35.10417097 -330.5625 34.5 C-329.81685791 34.29117188 -329.07121582 34.08234375 -328.30297852 33.8671875 C-324.2627938 32.89445802 -321.88267238 32.68312676 -318.2109375 34.796875 C-317.15132812 35.52390625 -316.09171875 36.2509375 -315 37 C-313.70145627 37.61377375 -312.39228734 38.20722966 -311.0625 38.75 C-310.051875 39.1625 -309.04125 39.575 -308 40 C-308 40.66 -308 41.32 -308 42 C-307.13890625 42.13277344 -306.2778125 42.26554687 -305.390625 42.40234375 C-302.12337991 42.97825216 -298.96737357 43.75815661 -295.75 44.5625 C-276.22513561 48.71410274 -257.0582564 45.45524316 -239.90185547 35.25390625 C-232.94057469 30.66428647 -226.3920365 24.69274457 -222.25 17.4375 C-219.54773975 13.65745965 -216.26679474 12.94049731 -211.875 12.1875 C-208.59118734 11.70802487 -205.29992422 11.34928288 -202 11 C-199.75258454 10.74496456 -197.50519002 10.48974451 -195.2578125 10.234375 C-190.40201339 9.69458514 -185.5442542 9.18152682 -180.68359375 8.6875 C-175.46906732 8.15738197 -170.26486026 7.57465374 -165.0625 6.9375 C-150.54874672 5.21650159 -136.06972542 3.85522203 -121.45825195 3.34155273 C-120.5993335 3.31005127 -119.74041504 3.2785498 -118.85546875 3.24609375 C-118.10934326 3.22216553 -117.36321777 3.1982373 -116.59448242 3.17358398 C-114.54936986 3.03675562 -112.51120358 2.79613734 -110.48046875 2.51806641 C-104.826048 1.78883649 -99.15052169 1.65591871 -93.45703125 1.46484375 C-91.62518532 1.4001741 -91.62518532 1.4001741 -89.7563324 1.334198 C-85.77522416 1.19648122 -81.79391547 1.06592391 -77.8125 0.9375 C-76.79466682 0.90417383 -76.79466682 0.90417383 -75.75627136 0.87017441 C-50.50145709 0.04361369 -25.26869768 -0.37472866 0 0 Z M0 31 C0.14074951 31.57903076 0.28149902 32.15806152 0.42651367 32.75463867 C1.97056661 39.65558218 2.34960915 46.25423266 2.3125 53.3125 C2.30758545 54.41754883 2.3026709 55.52259766 2.29760742 56.66113281 C2.11207371 69.56666748 -1.06076483 80.07164945 -6 92 C3.50032598 92.93140451 12.3756202 89.2836364 19.9375 83.625 C28.56827564 76.34030863 33.08568646 68.83862676 36 58 C36.20882812 57.31164062 36.41765625 56.62328125 36.6328125 55.9140625 C38.670194 48.42453333 38.16989046 40.69226233 38 33 C33.5421053 32.66062596 29.08362651 32.32960875 24.625 32 C23.37332031 31.90460938 22.12164063 31.80921875 20.83203125 31.7109375 C13.87248957 31.20081403 6.97855225 30.8533832 0 31 Z " fill="#000000" transform="translate(523,373)"/>
<path d="M0 0 C0.93199219 0.42410156 1.86398437 0.84820312 2.82421875 1.28515625 C16.90326068 8.33449524 27.91638288 19.63256023 36 33 C36.5775 33.93199219 37.155 34.86398437 37.75 35.82421875 C44.64810203 47.67289832 48.72821822 61.24366092 49 75 C49.02707031 75.97195313 49.05414063 76.94390625 49.08203125 77.9453125 C49.23322296 88.69366867 48.31426932 98.42978393 44.8125 108.625 C44.53341797 109.5015625 44.25433594 110.378125 43.96679688 111.28125 C42.1028232 116.82790898 39.70466106 121.35898184 36.27612305 126.10302734 C34.82631518 128.07581451 34.82631518 128.07581451 34 131 C33.34 131 32.68 131 32 131 C31.7525 131.556875 31.505 132.11375 31.25 132.6875 C24.5273592 145.12438547 10.60310604 150.78066097 -1.73828125 156.203125 C-15.52009089 159.57017789 -31.30285803 158.12581411 -44 152 C-45.66256296 151.32316426 -47.32791826 150.65296623 -49 150 C-49 149.34 -49 148.68 -49 148 C-50.65 147.67 -52.3 147.34 -54 147 C-54 146.34 -54 145.68 -54 145 C-55.051875 144.6596875 -55.051875 144.6596875 -56.125 144.3125 C-59.74128535 142.66158712 -62.08769976 140.7091165 -65 138 C-65 137.34 -65 136.68 -65 136 C-65.66 136 -66.32 136 -67 136 C-67 135.34 -67 134.68 -67 134 C-67.66 134 -68.32 134 -69 134 C-69 133.34 -69 132.68 -69 132 C-69.66 132 -70.32 132 -71 132 C-72.2890625 130.5390625 -72.2890625 130.5390625 -73.625 128.625 C-74.07101563 127.99851562 -74.51703125 127.37203125 -74.9765625 126.7265625 C-76 125 -76 125 -76 123 C-76.66 123 -77.32 123 -78 123 C-91.28055681 95.5040899 -97.20404453 69.17760787 -87.08984375 39.3125 C-86.18175995 37.11108472 -85.15799963 35.08060262 -84 33 C-83.47277344 32.02546875 -82.94554687 31.0509375 -82.40234375 30.046875 C-79.09942796 24.15244067 -75.73141176 18.84144459 -71 14 C-70.34 14 -69.68 14 -69 14 C-69 13.34 -69 12.68 -69 12 C-50.76169756 -4.19114604 -22.72640151 -10.68107597 0 0 Z " fill="#000000" transform="translate(261,249)"/>
<path d="M0 0 C0 0.66 0 1.32 0 2 C0.68449219 2.08121094 1.36898437 2.16242188 2.07421875 2.24609375 C5.76933602 3.19824012 8.65826611 4.99217324 11.8125 7.0625 C12.74171265 7.67085693 12.74171265 7.67085693 13.68969727 8.29150391 C30.43864172 19.53055212 39.8749927 38.20695236 43.7265625 57.671875 C46.46919894 75.29788521 42.62873387 91.14781358 38 108 C37.34 108 36.68 108 36 108 C35.84724609 109.05767578 35.84724609 109.05767578 35.69140625 110.13671875 C34.90085188 113.41059645 33.59476266 115.88584467 31.9375 118.8125 C31.38964844 119.78832031 30.84179688 120.76414062 30.27734375 121.76953125 C29.85582031 122.50558594 29.43429687 123.24164063 29 124 C28.34 124 27.68 124 27 124 C26.73445312 124.58136719 26.46890625 125.16273438 26.1953125 125.76171875 C22.58621297 132.51993454 16.12382479 138.4951174 10 143 C9.34 143 8.68 143 8 143 C8 143.66 8 144.32 8 145 C7.01 145 6.02 145 5 145 C5 145.66 5 146.32 5 147 C3.43880578 147.79423861 1.87598036 148.58527123 0.3125 149.375 C-0.55761719 149.81585938 -1.42773438 150.25671875 -2.32421875 150.7109375 C-10.94130688 154.86223543 -18.80511453 155.20560571 -28.25 155.25 C-29.87228516 155.2809375 -29.87228516 155.2809375 -31.52734375 155.3125 C-41.90874323 155.36259119 -49.99436918 153.15094184 -58.75 147.625 C-59.37003906 147.25117188 -59.99007812 146.87734375 -60.62890625 146.4921875 C-67.54956295 142.23780486 -72.8446452 137.39993024 -77.5625 130.8125 C-78.04138672 130.14903564 -78.52027344 129.48557129 -79.01367188 128.80200195 C-89.02562231 114.68631602 -93.41299823 99.06469683 -93.3125 81.8125 C-93.30758545 80.80727295 -93.3026709 79.8020459 -93.29760742 78.76635742 C-93.09652507 65.89399332 -90.51052137 54.68296722 -85 43 C-84.64292969 42.17242187 -84.28585937 41.34484375 -83.91796875 40.4921875 C-79.85423984 31.56059958 -73.34085256 22.53572679 -66 16 C-65.34 16 -64.68 16 -64 16 C-64 15.34 -64 14.68 -64 14 C-60.53846154 11 -60.53846154 11 -58 11 C-58 10.34 -58 9.68 -58 9 C-37.99988497 -1.30933764 -22.16680837 -4.70990665 0 0 Z " fill="#000000" transform="translate(813,285)"/>
</svg>
